<?xml version="1.0" encoding="UTF-8" standalone="no"?>
<svg
   viewBox="0 0 1024 1024"
   width="1024"
   height="1024"
   version="1.1"
   id="svg927"
   sodipodi:docname="RSI-icon.svg"
   inkscape:version="1.1.2 (b8e25be833, 2022-02-05)"
   xmlns:inkscape="http://www.inkscape.org/namespaces/inkscape"
   xmlns:sodipodi="http://sodipodi.sourceforge.net/DTD/sodipodi-0.dtd"
   xmlns="http://www.w3.org/2000/svg"
   xmlns:svg="http://www.w3.org/2000/svg">
  <defs
     id="defs931" />
  <sodipodi:namedview
     id="namedview929"
     pagecolor="#505050"
     bordercolor="#ffffff"
     borderopacity="1"
     inkscape:pageshadow="0"
     inkscape:pageopacity="0"
     inkscape:pagecheckerboard="1"
     showgrid="false"
     inkscape:zoom="0.70572571"
     inkscape:cx="787.133"
     inkscape:cy="315.98679"
     inkscape:window-width="1366"
     inkscape:window-height="697"
     inkscape:window-x="-8"
     inkscape:window-y="-8"
     inkscape:window-maximized="1"
     inkscape:current-layer="svg927" />
  <g
     id="#ffffffff">
    <path
       fill="#ffffff"
       opacity="1"
       d="m 183.03,43.52 c 5.01,0.08 9.9602,-0.733117 14.95,-0.88 216.91604,-6.3853 434.07131,-4.758693 651.03,-0.04 5.66403,0.123189 11.31489,0.684967 16.98,0.74 9.67236,0.09396 19.33735,-0.756351 29.01,-0.7 9.22575,0.05375 18.48359,0.03566 27.66,0.99 7.7525,0.806252 15.56898,1.768481 23.04,3.99 5.73629,1.705695 11.60219,3.646922 16.49,7.1 1.91878,1.355552 3.21382,3.427913 4.79,5.17 1.84422,2.038342 3.99477,3.854251 5.46,6.18 2.19985,3.491813 3.49988,7.493226 4.83,11.4 1.9465,5.7172 3.81641,11.538991 4.58,17.53 0.83867,6.58012 -0.18841,13.26831 -0.04,19.9 0.22815,10.19526 1.43472,20.36219 1.43,30.56 -0.003,6.22374 -0.75409,12.42774 -0.89,18.65 -0.50867,23.28797 -0.0226,46.58845 0.28,69.88 0.0434,3.33719 0.20551,6.67256 0.22,10.01 0.0653,15.04785 -0.57547,30.09202 -0.6,45.14 -0.019,11.63057 2.23694,23.4135 0.35,34.89 -0.91536,5.56732 -1.27396,12.33432 -5.58,15.98 -4.6851,3.9666 -12.03528,2.5775 -18.15,3.12 -3.94128,0.34967 -7.91385,0.14909 -11.87,0.08 -6.00096,-0.10481 -11.98936,-0.62823 -17.99,-0.75 -15.33685,-0.31122 -30.6827,0.33836 -46.02,0.05 -3.70545,-0.0697 -7.40398,-0.45557 -11.11,-0.43 -8.64169,0.0596 -17.24832,1.29843 -25.89,1.36 -3.66258,0.0261 -7.32249,-0.22546 -10.98,-0.42 -7.1965,-0.38277 -14.36443,-1.59652 -21.57,-1.47 -7.31443,0.12844 -17.38257,-3.54842 -21.83,2.26 -0.97514,1.27355 -0.27238,3.53087 0.77,4.75 3.12301,3.65257 9.27226,2.62195 13.7,4.49 6.82044,2.87752 13.48988,6.23033 19.68,10.29 3.55001,2.32821 6.90863,4.99752 9.91,8 4.82316,4.82495 9.21665,10.15576 12.85,15.93 4.14499,6.58735 7.7622,13.63783 10.04,21.08 2.47528,8.08739 3.01146,16.66727 3.78,25.09 0.89613,9.82106 1.23229,19.7119 0.96,29.57 -0.20705,7.49595 -0.51532,15.05364 -1.97,22.41 -1.33591,6.75576 -2.89904,13.65444 -6.16,19.72 -2.36607,4.40102 -6.31119,7.74841 -9.47,11.62 -3.07459,3.76837 -9.0943,6.43839 -9.23,11.3 -0.0904,3.23907 3.6554,5.36256 5.72,7.86 4.33801,5.24748 10.67478,8.94663 13.96,14.91 3.94719,7.16498 4.67255,15.7098 6.18,23.75 2.18984,11.67983 3.4422,23.54658 4.13,35.41 0.67565,11.65376 0.57263,23.36122 -0.01,35.02 -0.73969,14.80161 -1.19991,29.77397 -4.42,44.24 -1.86275,8.36826 -4.6585,16.61594 -8.54,24.26 -2.49993,4.92325 -5.51919,9.70282 -9.37,13.66 -3.18705,3.27509 -7.44852,5.299 -11.09,8.06 -4.68966,3.55573 -8.65301,8.18822 -13.85,10.95 -9.09964,4.83572 -19.37647,7.24633 -29.46,9.37 -9.08402,1.91316 -18.4318,2.29786 -27.69,2.98 -5.66915,0.4177 -11.35549,0.69219 -17.04,0.68 -11.02073,-0.0236 -22.05207,-0.48942 -33.03,-1.46 -7.93522,-0.70157 -16.01466,-1.01717 -23.69,-3.15 -6.57621,-1.82741 -12.86128,-4.76077 -18.78,-8.16 -5.16165,-2.96442 -9.81787,-6.76072 -14.4,-10.56 -3.07721,-2.55148 -5.95122,-5.34569 -8.76,-8.19 -3.15669,-3.19662 -6.46392,-6.30771 -9.08,-9.96 -2.73748,-3.82178 -4.72032,-8.13893 -6.81,-12.35 -2.36154,-4.75891 -5.03597,-9.45178 -6.46,-14.57 -1.06446,-3.82586 -1.10807,-7.86723 -1.49,-11.82 -0.96362,-9.97287 -1.70473,-19.97564 -2.02,-29.99 -0.53525,-17.00173 -0.67883,-34.04361 0.22,-51.03 0.5306,-10.02757 0.32913,-20.30405 3.05,-29.97 1.83526,-6.51982 5.44821,-12.42859 8.79,-18.32 2.27384,-4.00867 5.50111,-7.44251 7.63,-11.53 2.16508,-4.15698 5.81847,-8.43948 5.16,-13.08 -0.8136,-5.73381 -7.69263,-8.7531 -10.62,-13.75 -2.31997,-3.96009 -3.72359,-8.39359 -5.39,-12.67 -2.09579,-5.3783 -4.72673,-10.64656 -5.79,-16.32 -1.55599,-8.30249 -0.9726,-16.8859 -0.75,-25.33 0.34295,-13.00954 0.62024,-26.15622 3.21,-38.91 1.11258,-5.47912 3.0623,-10.78485 5.25,-15.93 2.69612,-6.34087 5.80048,-12.56538 9.65,-18.28 2.77551,-4.12026 5.99602,-7.98074 9.6,-11.4 4.83204,-4.58438 10.23631,-8.61009 15.94,-12.05 4.94559,-2.9827 10.31648,-5.23323 15.69,-7.35 5.6807,-2.23778 13.8049,-0.71709 17.43,-5.63 0.76005,-1.03005 0.87946,-2.86498 0.05,-3.84 -4.27793,-5.02867 -12.99075,-2.72476 -19.59,-2.92 -7.02462,-0.20782 -13.97857,1.57324 -21,1.87 -9.99117,0.42228 -19.99991,-0.12341 -30,-0.13 -9.95004,-0.007 -19.90366,0.36135 -29.85,0.09 -8.05034,-0.21963 -16.06995,-1.15991 -24.12,-1.39 -8.02006,-0.22923 -16.04861,-0.16675 -24.07,0.01 -8.85962,0.19522 -17.70496,0.81451 -26.56,1.16 -7.46873,0.2914 -14.93572,0.8131 -22.41,0.77 -3.99747,-0.0231 -7.98264,-0.51223 -11.98,-0.55 -6.67213,-0.063 -13.33785,0.4789 -20.01,0.54 -4.99998,0.0458 -10.00085,-0.0282 -15,-0.13 -4.68143,-0.0953 -9.35819,-0.37556 -14.04,-0.45 -13.65161,-0.21705 -27.30931,-0.25892 -40.96,0.01 -8.68497,0.17109 -17.35377,1.10641 -26.04,1.02 -12.87847,-0.12811 -25.70311,-1.71903 -38.57,-2.28 -7.11272,-0.3101 -14.2306,-0.63261 -21.35,-0.6 -7.33835,0.0336 -14.66299,0.6757 -22,0.82 -17.68329,0.34777 -35.37767,0.50317 -53.06,0.11 -6.66223,-0.14814 -13.30792,-0.77496 -19.97,-0.93 -8.98423,-0.20908 -17.98012,-0.34917 -26.96,0 -8.02151,0.3119 -15.98849,1.5581 -24.01,1.87 -41.00235,1.5943 -83.743807,11.61139 -123.1,0 -3.05681,-0.90186 -6.290077,-2.51977 -8.03,-5.19 -2.382637,-3.65659 -1.783109,-8.57444 -2.06,-12.93 -0.388674,-6.11394 0.486837,-12.24428 0.57,-18.37 0.140365,-10.33912 0.101662,-20.6823 -0.12,-31.02 -0.150246,-7.00705 -0.996667,-14.00356 -0.82,-21.01 0.18534,-7.35038 1.650514,-14.62423 1.97,-21.97 0.927545,-21.32657 0.533601,-42.70454 -0.16,-64.04 -0.258384,-7.94799 -1.440309,-15.85796 -1.49,-23.81 -0.05043,-8.06993 0.668538,-16.1281 1.21,-24.18 0.80756,-12.00894 0.441681,-24.22774 3.04,-35.98 1.218393,-5.510818 2.964366,-11.031843 5.82,-15.9 1.839396,-3.135719 4.413687,-5.831556 7.11,-8.27 4.412064,-3.990106 9.160303,-7.881267 14.63,-10.22 9.488044,-4.056898 20.081662,-5.07891 30.35,-6.1 28.54919,-2.838951 57.38,-0.14 86.07,0.01 m 194.35,59.87 c -10.3,2.09 -20.52,5.14 -29.76,10.22 -8.14,4.85 -15.92,10.79 -21.36,18.66 -8.85,11.21 -15.06,24.59 -17.33,38.73 -2.75,7.37 -1.84,15.28 -2.04,22.98 0.32,5.64 -0.62,11.46 1.21,16.92 1.21,3.81 1.69,7.77 2.42,11.68 3.01,10.04 7.86,19.46 13.92,28 2.76,3.54 6.14,6.54 8.98,10.01 3.91,4.89 9.59,7.8 14.65,11.33 4.94,3.32 10.89,4.35 16.25,6.75 4.11,2.07 8.84,0.95 13.22,1.8 4.89,0.43 9.8,1.86 14.72,0.93 5.17,-0.59 10.34,-1.12 15.51,-1.71 4.65,-1.21 9.05,-3.24 13.76,-4.24 5.71,-2.64 10.88,-6.35 16.08,-9.86 4.91,-4.38 9.62,-9.03 14,-13.94 6.12,-9.17 11.67,-18.98 14.37,-29.75 3.47,-9.94 2.66,-20.6 3.94,-30.89 -1.32,-10.07 -0.65,-20.63 -4.72,-30.14 -4.68,-16.46 -14.61,-31.4 -28.08,-41.97 -8.01,-5.59 -16.8,-10.43 -26.37,-12.67 -4.33,-0.73 -8.38,-2.71 -12.75,-3.16 -6.87,-0.25 -13.79,-0.49 -20.62,0.32 m 193.01,1.05 c -5.38,1.08 -11.11,2.92 -13.99,7.99 -0.7,4.82 -1.42,9.66 -1.41,14.54 -0.08,14.67 0.33,29.35 -0.44,44 1.1,17.28 -0.18,34.62 0.87,51.9 -0.02,7.4 -0.76,15.22 -5.18,21.42 -7.68,8.91 -23.01,9.02 -31.06,0.53 -6.56,-6.29 -7.03,-16.33 -13.08,-22.95 -3.85,-1.73 -8.05,-5.07 -12.46,-3.31 -5.23,1.83 -10.71,5.01 -12.43,10.65 -3.23,6.74 0.15,13.97 2.12,20.53 8.41,16.09 24.24,29.69 42.92,31 9.45,0.8 19.13,0.38 28.3,-2.17 17.74,-6.25 31.41,-23.12 33.07,-41.97 0.52,-7.51 1.35,-15.03 0.49,-22.54 -0.28,-25.35 -0.03,-50.71 -0.12,-76.06 -0.23,-8.65 1.89,-17.53 -1.06,-25.94 -1.45,-3.22 -4.7,-5.15 -8,-6.02 -2.78,-0.72 -5.63,-2.02 -8.54,-1.6 m 181.77,2.75 c -5.03,2.71 -9.6,6.81 -11.73,12.22 -1.29,7.12 -1.64,14.36 -1.43,21.59 -0.15,18.85 0.44,37.72 -0.54,56.56 0.95,17.46 0.4,34.96 0.54,52.44 0.22,7.51 -0.85,15.21 1.42,22.51 2,3.29 4.93,6.35 8.77,7.33 3.82,0.44 7.73,0.4 11.56,-0.02 5.39,-1.89 10.59,-6.62 10.27,-12.76 -0.02,-9.68 -0.13,-19.36 0.32,-29.03 -0.93,-11.98 0.46,-24.04 -1.09,-35.98 -0.6,-12.35 -0.06,-24.73 -0.27,-37.1 -0.13,-4.56 -1.57,-9.07 -0.8,-13.65 0.86,-0.82 1.71,-1.66 2.56,-2.5 6.29,9.99 11.9,20.38 17.96,30.51 13.99,25.15 28.85,49.84 43.3,74.75 4.86,8.65 9.34,18.58 18.53,23.45 4.79,3.18 10.81,2.83 16.28,2.32 7.7,-2.52 13.12,-9.93 14.15,-17.83 0.33,-24.08 -0.56,-48.2 0.6,-72.28 -1.16,-24.53 -0.24,-49.12 -0.62,-73.67 -1.16,-7.38 -9.03,-11.25 -15.81,-11.75 -5.28,1.17 -11.78,1.99 -14.74,7.14 -3.05,9.98 -0.35,20.38 -0.47,30.55 0.18,22.68 0.04,45.37 0.08,68.05 -0.05,4.25 1.28,8.39 0.94,12.64 -0.49,0.44 -1.49,1.3 -1.99,1.74 -1.53,-1.64 -2.85,-3.47 -3.89,-5.45 -5.15,-10.59 -11.84,-20.32 -17.32,-30.73 -12.51,-20.67 -23.99,-41.95 -36.17,-62.81 -3.29,-5.49 -6.74,-11.15 -11.85,-15.12 -4.94,-4.18 -11.53,-5.29 -17.74,-6.1 -3.7,0.5 -7.3,1.76 -10.82,2.98 m -89,-0.56 c -11.63,0.8 -23.31,0 -34.94,0.53 -2.9,1.1 -4.95,3.92 -6.89,6.28 -0.71,5.3 -1.6,12.23 3.41,15.8 4.74,3.42 10.91,1.43 16.3,1.72 2.12,0.14 5.55,-0.56 6.08,2.31 1.38,7.82 0.7,15.83 0.88,23.73 -0.01,27.34 0.03,54.69 -0.01,82.03 -0.13,4.45 0.15,9.06 -1.45,13.3 -6.27,1.52 -12.79,-0.03 -19.1,0.99 -2.33,1.7 -4.42,3.79 -6.11,6.12 -0.61,5.1 -1.62,11.65 2.87,15.36 4.05,3.47 9.82,2.53 14.72,2.3 11.02,-0.25 22.05,-0.03 33.08,-0.11 6.85,0.06 13.74,-0.32 20.56,0.61 2.7,0.34 5.38,-0.41 8.01,-0.94 5.59,-2.5 7.33,-9.54 5.92,-15.11 -0.57,-4.55 -4.82,-8.57 -9.46,-8.55 -5.29,-0.2 -10.61,0.4 -15.86,-0.42 -1.53,-5.73 -1.05,-11.72 -1.17,-17.58 v -88 c 0.06,-5.26 -0.06,-10.59 1.09,-15.76 6.71,-1.21 13.67,1.48 20.22,-0.84 6.22,-3.79 6.94,-12.53 3.91,-18.61 -1.95,-2.57 -4.76,-4.97 -8.19,-4.79 -11.29,-0.1 -22.59,0.26 -33.87,-0.37 m -510.77,0.78 c -5.15,1.64 -10.72,3.36 -14.25,7.72 -2.02,2.78 -4.33,5.58 -4.88,9.09 -0.78,4.9 -2.12,9.75 -2.26,14.74 -0.16,17.98 0.43,35.98 -0.51,53.94 0.94,16.35 0.39,32.73 0.47,49.1 -0.38,7.15 1.67,14.1 3.06,21.04 3.08,8.11 11.51,13.54 20.1,13.83 14.25,0.28 28.53,0.36 42.79,-0.04 6.57,-1.24 13.26,-0.48 19.87,-1.08 4.68,-1.29 9.15,-3.37 14.01,-4 6.47,-1.89 12.26,-5.57 18.11,-8.83 5.27,-2.86 9.14,-7.53 13.39,-11.64 7.28,-6.92 12.26,-15.85 15.87,-25.14 2.56,-4.59 2.35,-10.01 4.17,-14.84 0.81,-2.35 1.7,-4.73 1.67,-7.25 0.1,-8.01 0.17,-16.03 -0.06,-24.03 -0.66,-5.8 -2.97,-11.24 -4.07,-16.96 -4.78,-16.07 -15.16,-30.37 -28.71,-40.21 -9.16,-5.51 -18.92,-10.35 -29.42,-12.58 -6.69,-0.48 -12.92,-3.81 -19.72,-3.32 -10.01,0.37 -20.01,-0.56 -30.02,0.03 -6.53,0.3 -13.14,-0.55 -19.61,0.43 m 589.97,317.72 c -4.93,2.53 -7.51,8.48 -6.97,13.86 -0.27,7.01 0.76,14.07 -0.4,21.04 -1.19,7.32 -0.35,14.76 0.93,22 0.71,3.7 1.63,7.86 4.87,10.21 2.63,2.32 7.2,1.49 8.88,-1.58 1.98,-3.57 1.71,-7.79 2.23,-11.7 1.7,-11.92 -0.46,-24.03 1.33,-35.94 0.59,-4.99 -0.13,-10.24 -2.47,-14.71 -1.55,-2.91 -5.27,-5.12 -8.4,-3.18 m -1.06,154.95 c -4.34,2.14 -5.74,7.24 -6.02,11.71 -0.54,6.09 -2.35,12.05 -2.54,18.16 1.48,9.95 0.29,20.03 1,30.03 1.28,9.31 0.41,18.73 0.69,28.09 -0.04,5.6 3.74,10.88 8.73,13.24 3.21,0.78 6.49,-1.74 7.63,-4.65 2.91,-6.61 1.13,-13.96 2.26,-20.88 0.86,-8.95 0.79,-18.03 -0.39,-26.95 -0.21,-5.34 -0.36,-10.74 0.46,-16.04 0.51,-3.42 0.31,-6.89 -0.21,-10.29 -0.83,-5.77 0.19,-11.63 -0.62,-17.39 -0.69,-2.28 -2.01,-4.66 -4.32,-5.57 -2.21,-0.23 -4.64,-0.5 -6.67,0.54 z"
       id="path5800"
       sodipodi:nodetypes="csssssssssssssssssssssssssssssssssssssssssssssssssssssssssssssssssssssssssssssssssssssssssssssssssssssssssssssssssssscccccccccccccccccccccccccccccccccccccccccccccccccccccccccccccccccccccccccccccccccccccccccccccccccccccccccccccccccccccccccccccccccccccccccccccccccccccc" />
    <path
       fill="#ffffff"
       opacity="1.00"
       d=" M 378.49 131.55 C 382.59 130.59 386.87 131.00 391.05 130.95 C 396.64 130.79 401.84 133.15 406.93 135.12 C 421.05 142.25 429.58 157.20 432.69 172.27 C 434.51 182.92 434.34 193.82 433.55 204.55 C 433.06 214.45 429.36 223.89 424.30 232.31 C 418.37 242.22 408.36 249.73 396.97 251.92 C 388.04 253.20 378.48 252.93 370.31 248.72 C 359.15 244.04 352.10 233.46 347.07 222.93 C 345.04 217.84 344.54 212.31 342.94 207.09 C 341.18 200.54 342.29 193.68 341.97 186.99 C 341.39 179.06 344.45 171.60 346.05 163.97 C 349.23 155.61 353.42 147.28 360.30 141.33 C 365.27 136.33 371.95 133.76 378.49 131.55 Z"
       id="path881" />
    <path
       fill="#ffffff"
       opacity="1.00"
       d=" M 166.51 135.62 C 173.59 134.34 180.84 135.26 187.99 134.98 C 197.06 134.58 205.84 137.23 214.77 138.31 C 219.13 139.52 223.06 141.90 227.00 144.06 C 239.88 153.63 247.68 169.09 248.97 184.97 C 249.29 194.85 249.25 205.03 245.44 214.31 C 244.61 221.48 239.57 226.94 235.61 232.60 C 230.27 237.03 225.21 242.29 218.38 244.35 C 215.07 245.27 211.90 246.62 208.57 247.47 C 200.80 248.87 192.89 249.22 185.00 249.01 C 178.83 248.77 172.56 249.64 166.46 248.34 C 164.91 244.44 165.12 240.17 165.01 236.05 C 164.99 208.03 165.00 180.01 165.01 152.00 C 165.09 146.52 164.88 140.92 166.51 135.62 Z"
       id="path883" />
    <path
       fill="#ffffff"
       opacity="1.00"
       d=" M 213.00 352.77 C 222.35 354.61 231.67 351.44 241.03 351.64 C 250.99 352.51 260.99 354.34 271.00 353.12 C 278.62 352.10 286.33 352.76 293.99 352.51 C 299.78 352.28 305.52 353.17 311.24 353.91 C 321.34 355.50 331.69 353.35 341.74 355.40 C 347.17 356.36 352.38 358.28 357.35 360.65 C 362.36 363.02 367.74 364.63 372.46 367.61 C 376.45 370.15 380.29 372.99 383.65 376.34 C 387.96 380.56 390.21 386.33 394.22 390.80 C 398.80 395.83 401.17 402.33 403.45 408.62 C 405.79 415.20 405.25 422.33 407.16 429.00 C 408.51 434.44 411.25 439.46 412.28 444.99 C 412.99 450.18 412.50 455.45 411.73 460.61 C 410.70 474.18 413.15 488.05 409.63 501.39 C 408.38 507.60 405.07 513.09 403.11 519.07 C 401.63 523.23 400.85 527.73 398.40 531.50 C 394.97 536.49 388.26 538.09 385.21 543.42 C 383.86 545.22 384.84 547.47 385.81 549.20 C 389.21 555.25 395.69 558.76 399.24 564.71 C 401.69 569.07 403.21 573.89 405.74 578.22 C 408.84 583.64 411.55 589.59 411.48 595.97 C 411.50 636.98 411.47 677.99 411.48 719.00 C 411.17 726.78 412.19 734.75 409.96 742.34 C 408.69 747.58 403.72 751.14 398.69 752.32 C 390.46 753.00 382.20 752.36 374.00 751.71 C 364.71 752.88 355.34 752.38 346.00 752.46 C 335.98 752.34 325.97 752.49 315.95 752.57 C 310.82 752.74 305.44 750.97 301.89 747.17 C 299.21 744.10 299.37 739.80 299.45 735.99 C 299.39 731.63 300.56 727.38 300.53 723.03 C 300.64 691.36 300.44 659.68 300.51 628.00 C 300.76 622.62 299.46 617.33 299.52 611.97 C 299.43 607.12 301.29 602.24 299.85 597.46 C 298.34 591.88 295.88 585.49 290.01 583.30 C 285.42 584.53 284.64 589.92 284.51 593.94 C 284.49 624.63 284.45 655.31 284.52 686.00 C 284.56 692.87 284.11 699.79 285.17 706.62 C 286.23 713.77 283.97 720.84 284.37 728.00 C 284.12 733.98 285.57 740.37 282.86 745.98 C 281.08 750.14 276.51 752.70 272.06 752.51 C 242.36 752.35 212.65 752.44 182.95 752.46 C 178.01 752.17 171.57 750.30 170.34 744.80 C 166.40 733.49 169.73 721.57 169.59 710.00 C 169.79 703.63 167.77 697.34 168.87 690.99 C 169.88 684.71 169.35 678.33 169.45 672.00 C 169.30 662.00 169.99 651.95 168.61 642.01 C 168.40 626.01 168.63 610.00 168.51 594.00 C 168.23 585.97 169.98 578.04 169.47 570.00 C 169.97 561.62 168.16 553.36 168.53 545.00 C 168.56 499.00 168.57 453.00 168.51 407.00 C 168.10 399.65 170.44 392.35 168.72 385.05 C 168.44 376.46 167.01 366.76 172.34 359.31 C 176.26 353.71 183.66 352.70 189.99 352.59 C 197.66 352.95 205.35 352.20 213.00 352.77 M 289.35 440.01 C 286.38 441.73 284.48 445.06 284.46 448.49 C 284.26 455.66 284.21 462.88 285.24 470.00 C 285.96 478.72 281.30 487.98 285.64 496.28 C 287.13 499.48 291.76 499.31 293.95 496.97 C 299.60 492.07 300.69 484.05 300.49 476.99 C 300.17 467.72 301.50 458.23 298.90 449.18 C 297.96 445.80 296.60 442.20 293.56 440.18 C 292.39 439.14 290.60 439.15 289.35 440.01 Z"
       id="path885" />
    <path
       fill="#ffffff"
       opacity="1.00"
       d=" M 563.42 352.44 C 571.54 351.40 579.79 351.72 587.84 353.18 C 595.00 354.67 599.38 362.07 599.44 369.02 C 599.39 418.69 599.51 468.35 599.44 518.02 C 599.61 522.33 598.73 526.60 598.77 530.91 C 599.69 540.58 599.29 550.30 599.46 560.00 C 599.35 613.35 599.43 666.69 599.42 720.04 C 599.46 724.39 598.51 728.67 598.56 733.03 C 598.51 738.06 598.57 743.47 595.94 747.95 C 593.21 751.53 588.33 752.59 584.05 752.50 C 557.35 752.49 530.66 752.30 503.96 752.57 C 499.12 752.76 493.96 751.99 490.10 748.87 C 488.06 746.58 487.14 743.53 486.29 740.65 C 484.39 734.50 486.90 728.23 486.54 722.00 C 486.14 706.34 487.21 690.61 485.57 675.01 C 485.48 641.67 485.65 608.33 485.50 575.00 C 485.31 568.97 487.16 562.99 485.93 556.99 C 484.40 549.32 487.33 541.66 486.01 534.00 C 485.15 528.69 485.88 523.28 485.07 517.98 C 483.78 509.80 484.87 501.49 484.51 493.26 C 484.04 490.10 481.61 487.71 479.73 485.28 C 476.28 481.36 472.41 476.96 466.89 476.33 C 455.84 474.56 444.57 476.21 433.45 475.36 C 428.16 473.78 423.07 470.12 421.05 464.82 C 418.83 456.95 422.65 448.90 420.90 440.98 C 420.22 434.52 417.81 427.32 421.42 421.31 C 425.03 416.39 430.84 413.75 436.20 411.19 C 446.19 406.25 457.91 405.68 467.22 399.24 C 474.72 394.06 484.26 392.42 490.87 385.88 C 495.49 381.35 501.74 378.90 506.07 374.04 C 509.41 370.37 513.23 367.22 517.05 364.09 C 521.61 360.30 525.33 354.94 531.36 353.39 C 538.09 351.59 545.17 352.55 552.00 353.26 C 555.82 353.38 559.59 352.51 563.42 352.44 Z"
       id="path887" />
    <path
       fill="#ffffff"
       opacity="1.00"
       d=" M 416.45 771.75 C 428.64 771.36 440.85 771.64 453.04 771.51 C 459.40 771.22 465.65 772.79 472.01 772.53 C 477.36 772.56 482.64 771.04 488.01 771.67 C 499.27 773.22 510.67 772.27 522.00 772.53 C 547.67 772.53 573.34 772.47 599.00 772.50 C 604.01 772.61 608.94 771.43 613.96 771.53 C 621.82 771.56 629.70 771.29 637.55 771.70 C 643.01 772.45 648.54 772.89 654.04 772.29 C 661.32 771.19 668.78 771.02 676.09 771.89 C 686.89 774.17 698.05 773.80 708.97 772.65 C 714.34 772.18 719.63 773.59 725.00 773.45 C 735.67 773.33 746.34 773.67 757.01 773.32 C 766.29 772.05 775.67 772.68 785.00 772.51 C 789.69 772.32 794.30 773.54 798.99 773.33 C 811.28 772.33 823.67 770.28 835.98 772.20 C 845.36 773.47 854.68 771.29 864.04 770.89 C 870.71 771.19 877.29 772.78 884.01 772.50 C 892.67 772.22 901.35 772.75 910.01 772.23 C 915.30 771.40 920.69 771.35 926.00 772.24 C 932.34 773.19 938.67 770.79 945.00 772.15 C 954.92 774.00 965.35 768.87 974.94 773.02 C 978.72 774.93 982.77 778.35 982.55 783.00 C 982.34 829.67 982.52 876.34 982.42 923.02 C 982.18 928.20 980.92 933.28 980.28 938.43 C 978.57 948.31 978.42 959.03 972.51 967.59 C 966.44 975.92 957.95 983.02 947.77 985.51 C 938.24 987.95 928.40 988.69 918.71 990.22 C 905.82 990.83 892.90 990.21 880.00 990.50 C 830.67 990.07 781.33 990.68 732.00 990.28 C 717.33 990.44 702.67 990.49 688.01 990.49 C 678.81 990.84 669.65 988.15 660.48 989.92 C 652.49 991.48 644.31 991.83 636.20 991.21 C 627.20 989.78 618.06 990.64 609.00 990.40 C 599.27 990.48 589.47 989.79 579.80 991.19 C 573.17 992.03 566.62 990.19 560.00 990.37 C 530.33 990.35 500.66 990.46 470.99 990.33 C 465.36 990.22 459.83 991.90 454.21 991.22 C 449.12 990.58 444.01 990.30 438.93 989.60 C 431.91 988.84 424.97 990.52 417.96 990.48 C 414.00 990.48 410.10 991.50 406.13 991.28 C 395.70 990.06 385.11 990.04 374.66 991.12 C 364.10 990.97 353.59 988.85 343.01 989.59 C 333.40 990.83 323.63 990.69 314.03 989.54 C 309.42 989.31 304.78 989.20 300.18 989.74 C 292.85 990.92 285.39 990.35 278.00 990.39 C 269.97 990.20 261.89 990.89 253.92 989.63 C 247.58 988.87 241.34 990.70 235.00 990.39 C 221.73 990.08 208.45 990.67 195.17 990.34 C 188.49 989.50 181.69 988.91 175.00 990.01 C 166.61 991.38 158.36 987.92 149.96 988.69 C 144.31 989.34 138.65 989.78 133.00 990.26 C 126.98 990.07 121.02 988.95 115.00 988.75 C 109.65 989.07 104.34 989.77 99.01 990.33 C 91.79 991.06 84.88 988.43 77.92 986.97 C 69.82 985.22 61.48 983.23 54.60 978.39 C 47.36 973.02 44.23 964.22 40.65 956.32 C 38.02 950.57 37.17 944.22 37.55 937.96 C 37.91 931.89 36.17 926.02 35.60 920.04 C 35.06 914.32 36.63 908.71 36.52 903.01 C 36.52 863.71 36.45 824.40 36.49 785.10 C 36.69 779.74 39.87 772.51 46.08 772.53 C 73.39 772.36 100.70 772.60 128.01 772.39 C 134.65 771.41 141.34 771.45 147.99 772.39 C 190.33 772.63 232.67 772.48 275.01 772.51 C 279.70 772.56 284.31 771.41 289.00 771.50 C 294.03 771.40 298.97 772.65 304.00 772.51 C 332.00 772.51 360.00 772.52 388.00 772.48 C 397.48 772.35 407.03 773.21 416.45 771.75 M 602.41 810.28 C 595.51 812.67 594.85 821.47 588.75 824.85 C 584.62 827.38 579.56 826.20 575.01 826.95 C 568.74 827.98 562.13 826.70 556.10 829.11 C 552.70 830.34 549.25 833.28 549.53 837.23 C 549.36 843.83 547.95 850.41 548.74 857.02 C 549.94 865.61 549.91 874.39 548.66 882.98 C 547.86 888.69 550.11 894.34 549.04 900.03 C 548.18 905.97 548.21 912.04 549.28 917.95 C 550.10 922.75 548.44 927.42 547.73 932.12 C 547.21 936.80 547.16 941.95 549.97 946.00 C 553.33 951.75 563.11 950.62 565.44 944.46 C 568.74 934.58 567.07 924.07 565.94 913.97 C 567.22 895.39 566.03 876.73 566.56 858.11 C 567.14 852.85 569.93 847.49 574.60 844.78 C 579.72 842.35 585.57 843.83 591.02 843.53 C 596.65 844.00 602.20 841.68 607.80 842.89 C 611.16 843.53 614.49 844.53 617.96 844.49 C 627.66 844.61 637.36 844.42 647.07 844.45 C 655.73 844.22 662.00 852.95 662.48 860.95 C 662.54 877.96 662.34 894.98 662.63 911.99 C 662.49 915.39 663.04 919.12 661.19 922.18 C 658.36 927.08 653.38 930.61 647.86 931.79 C 642.64 933.19 637.20 931.91 631.91 932.70 C 629.02 933.34 625.98 934.91 624.56 937.62 C 623.95 941.17 624.11 945.40 627.09 947.91 C 631.13 951.66 637.04 950.63 642.03 950.19 C 648.57 949.02 655.39 950.22 661.77 948.07 C 667.81 946.43 672.88 942.07 675.62 936.47 C 680.45 927.81 680.02 917.52 678.81 908.00 C 678.29 901.01 678.68 893.99 678.50 887.00 C 678.26 880.63 680.14 874.36 679.29 867.99 C 678.13 859.71 678.14 851.25 679.26 842.97 C 679.58 839.76 678.72 836.54 677.37 833.67 C 675.64 830.19 671.82 828.47 668.18 827.83 C 658.54 826.19 648.72 826.36 638.99 826.65 C 632.48 827.60 625.67 827.69 619.38 825.57 C 614.80 822.85 613.75 817.18 611.14 812.92 C 609.54 809.88 605.43 808.58 602.41 810.28 M 230.68 812.74 C 225.89 817.91 227.23 826.25 222.23 831.26 C 217.03 835.16 210.11 834.12 204.05 835.14 C 192.68 835.41 181.20 832.51 169.91 835.02 C 164.89 836.00 159.43 838.42 157.45 843.51 C 155.45 847.55 157.24 852.00 158.02 856.12 C 159.55 862.24 157.25 868.39 157.48 874.56 C 157.64 881.48 157.74 888.43 156.54 895.27 C 155.04 904.60 155.84 914.57 151.56 923.26 C 148.95 928.69 147.97 934.83 148.51 940.82 C 148.52 945.79 153.12 949.71 157.97 949.36 C 160.68 948.44 163.61 946.88 164.53 943.97 C 166.83 937.75 167.43 930.79 171.48 925.32 C 176.92 926.21 180.65 931.22 186.17 932.11 C 192.71 933.06 200.33 933.33 205.62 928.66 C 209.98 924.07 211.91 917.72 214.07 911.90 C 215.18 901.01 216.16 889.97 215.28 879.01 C 214.71 873.95 210.24 870.10 205.31 869.58 C 198.36 868.95 191.37 869.96 184.42 869.40 C 180.40 868.61 176.56 866.01 174.70 862.31 C 172.89 856.33 178.29 851.44 183.16 849.14 C 189.38 846.85 195.63 850.93 201.94 850.24 C 207.89 849.42 213.91 849.31 219.91 849.55 C 223.80 849.54 226.01 853.51 227.17 856.72 C 229.02 863.30 229.48 870.19 229.52 877.00 C 229.55 884.73 231.53 892.31 234.43 899.44 C 238.08 908.91 233.73 919.85 225.86 925.74 C 221.57 928.86 214.88 929.48 212.74 934.97 C 212.07 939.34 211.60 944.58 214.95 948.04 C 216.82 950.03 219.78 952.56 222.59 950.80 C 228.76 948.16 231.05 941.07 236.55 937.60 C 239.72 937.00 243.03 937.63 245.82 939.22 C 252.55 942.55 256.27 949.82 263.09 953.02 C 265.99 954.02 269.22 953.80 272.21 953.31 C 276.99 951.62 279.73 947.04 281.81 942.72 C 284.18 937.64 288.54 933.80 290.71 928.63 C 292.57 924.21 291.58 918.34 287.29 915.72 C 283.91 913.49 278.60 912.10 275.57 915.61 C 272.10 920.45 271.20 927.86 264.83 930.04 C 259.19 932.55 253.56 926.54 254.36 920.99 C 253.49 914.54 258.07 909.47 262.30 905.30 C 266.22 901.59 267.62 896.28 269.68 891.49 C 271.75 886.20 278.70 885.11 280.55 879.69 C 281.93 876.26 283.65 872.10 281.55 868.60 C 280.33 866.63 278.60 864.26 276.01 864.41 C 271.05 864.28 265.89 866.94 263.70 871.51 C 260.71 877.04 256.92 883.52 250.07 884.45 C 245.65 883.22 244.74 877.82 244.48 873.89 C 244.55 868.02 243.63 861.74 246.32 856.28 C 248.11 852.36 252.29 849.92 256.51 849.65 C 263.36 849.31 270.17 848.33 277.04 848.50 C 280.39 848.69 283.87 846.97 285.36 843.89 C 286.19 839.80 284.23 835.88 283.03 832.08 C 281.21 827.14 280.02 821.62 276.22 817.76 C 272.80 814.39 266.31 812.78 262.77 816.79 C 258.95 821.00 261.30 827.07 260.26 832.12 C 257.35 835.90 251.15 834.90 247.80 832.21 C 242.71 826.98 245.36 818.55 241.26 812.81 C 238.80 809.38 233.36 809.81 230.68 812.74 M 415.39 811.38 C 412.00 811.47 409.31 814.33 408.27 817.38 C 405.33 825.88 407.60 835.03 405.63 843.70 C 403.42 854.12 403.88 865.07 400.07 875.14 C 397.44 882.33 392.10 888.03 388.54 894.74 C 385.22 901.04 380.38 906.37 375.20 911.20 C 367.95 917.71 361.01 924.67 352.69 929.84 C 347.21 933.17 347.31 941.36 351.06 945.92 C 355.67 949.92 362.67 948.50 367.31 945.28 C 375.97 939.07 383.34 931.32 391.31 924.29 C 397.96 916.70 402.43 907.51 407.81 899.03 C 409.87 895.80 411.93 892.09 415.71 890.67 C 418.27 889.16 421.77 890.28 423.24 892.80 C 426.14 897.80 427.00 903.65 429.58 908.79 C 431.91 912.94 435.22 916.42 437.84 920.39 C 439.51 922.91 441.36 925.34 443.55 927.45 C 451.52 934.87 458.51 944.36 469.45 947.50 C 474.17 948.75 477.84 944.77 480.49 941.46 C 483.23 938.25 483.83 932.57 480.25 929.75 C 473.87 923.90 465.22 921.12 459.23 914.76 C 454.37 909.57 450.21 903.77 445.82 898.19 C 441.70 892.92 438.94 886.79 436.28 880.71 C 433.49 874.26 429.25 868.45 427.44 861.59 C 425.34 853.25 423.57 844.55 425.06 835.94 C 425.71 828.73 428.23 820.68 423.93 814.11 C 422.12 811.19 418.42 811.12 415.39 811.38 M 826.37 815.15 C 823.90 816.58 821.62 818.99 821.46 821.97 C 820.93 828.03 824.85 833.20 825.88 839.01 C 827.21 843.50 825.85 849.07 821.66 851.58 C 813.21 857.21 802.28 854.77 793.38 859.22 C 790.23 860.75 786.33 862.34 785.18 865.97 C 786.91 871.35 792.83 873.84 798.03 874.42 C 805.24 874.78 811.60 869.81 818.86 870.45 C 825.57 870.56 829.94 877.82 829.61 884.00 C 830.11 890.39 827.08 896.27 826.42 902.53 C 825.61 908.97 824.49 915.52 821.29 921.26 C 818.46 926.86 813.77 932.29 814.50 938.96 C 816.07 943.82 822.28 948.86 827.27 945.33 C 832.69 941.22 835.10 934.49 837.31 928.31 C 839.09 923.12 841.76 918.24 843.00 912.88 C 844.40 905.65 845.95 898.37 845.55 890.97 C 845.41 883.68 845.16 875.18 850.47 869.48 C 856.87 864.93 866.06 866.62 871.96 860.98 C 874.16 859.24 873.77 856.09 873.44 853.63 C 872.45 850.90 869.59 849.32 866.95 848.57 C 861.49 848.18 856.61 851.68 851.16 851.54 C 848.12 851.74 845.51 849.38 844.42 846.71 C 841.22 838.83 843.96 829.77 839.96 822.10 C 837.71 817.16 831.94 812.39 826.37 815.15 M 755.76 833.11 C 754.82 838.48 755.85 843.97 755.08 849.37 C 754.03 856.19 754.48 863.12 754.44 870.00 C 754.55 875.82 754.14 881.70 755.12 887.48 C 755.63 891.96 756.50 896.42 756.45 900.95 C 756.53 908.16 755.77 915.58 758.16 922.54 C 759.79 928.64 763.69 934.56 770.00 936.51 C 774.74 934.91 777.95 930.01 777.63 925.03 C 778.04 920.35 775.99 916.06 774.53 911.76 C 772.77 907.01 773.87 901.87 773.37 896.95 C 772.13 886.89 770.01 876.71 771.39 866.57 C 771.80 860.70 771.36 854.83 771.49 848.96 C 771.54 843.37 774.70 838.47 775.49 833.02 C 773.25 823.71 758.22 824.29 755.76 833.11 M 593.35 863.20 C 588.85 864.65 584.73 867.86 582.71 872.19 C 581.47 878.21 585.06 884.00 584.38 890.06 C 583.29 898.35 583.11 906.76 583.59 915.10 C 584.08 919.19 587.27 924.12 591.93 923.52 C 596.29 922.15 599.46 918.51 603.63 916.71 C 607.15 914.95 611.19 915.65 614.98 915.53 C 621.02 915.69 626.96 914.23 633.00 914.56 C 637.27 914.88 642.48 913.30 644.03 908.88 C 646.56 901.52 645.11 893.61 645.54 885.99 C 645.62 880.69 648.04 874.95 645.18 869.98 C 642.71 864.69 636.50 862.62 631.06 862.46 C 622.38 862.30 613.69 862.65 605.01 862.44 C 601.13 862.53 597.12 862.07 593.35 863.20 Z"
       id="path889" />
    <path
       fill="#ffffff"
       opacity="1.00"
       d=" M 611.33 875.55 C 617.64 875.39 624.24 877.75 628.74 882.24 C 631.08 884.27 630.79 887.65 630.27 890.41 C 626.91 897.10 619.69 902.21 612.00 901.64 C 603.11 902.40 596.27 891.91 598.95 883.83 C 601.24 879.15 606.20 876.05 611.33 875.55 Z"
       id="path891" />
    <path
       fill="#ffffff"
       opacity="1.00"
       d=" M 183.72 884.78 C 186.49 884.10 189.67 884.21 192.02 886.01 C 199.59 890.87 201.60 902.18 196.51 909.51 C 192.13 915.73 183.99 918.37 176.63 917.43 C 172.64 912.58 173.35 905.95 173.45 900.10 C 173.60 893.61 177.46 887.05 183.72 884.78 Z"
       id="path893" />
    <path
       fill="#ffffff"
       opacity="1"
       d="m 183.03,43.52 c 5.01,0.08 9.9602,-0.733117 14.95,-0.88 216.91604,-6.3853 434.07131,-4.758693 651.03,-0.04 5.66403,0.123189 11.31489,0.684967 16.98,0.74 9.67236,0.09396 19.33735,-0.756351 29.01,-0.7 9.22575,0.05375 18.48359,0.03566 27.66,0.99 7.7525,0.806252 15.56898,1.768481 23.04,3.99 5.73629,1.705695 11.60219,3.646922 16.49,7.1 1.91878,1.355552 3.21382,3.427913 4.79,5.17 1.84422,2.038342 3.99477,3.854251 5.46,6.18 2.19985,3.491813 3.49988,7.493226 4.83,11.4 1.9465,5.7172 3.81641,11.538991 4.58,17.53 0.83867,6.58012 -0.18841,13.26831 -0.04,19.9 0.22815,10.19526 1.43472,20.36219 1.43,30.56 -0.003,6.22374 -0.75409,12.42774 -0.89,18.65 -0.50867,23.28797 -0.0226,46.58845 0.28,69.88 0.0434,3.33719 0.20551,6.67256 0.22,10.01 0.0653,15.04785 -0.57547,30.09202 -0.6,45.14 -0.019,11.63057 2.23694,23.4135 0.35,34.89 -0.91536,5.56732 -1.27396,12.33432 -5.58,15.98 -4.6851,3.9666 -12.03528,2.5775 -18.15,3.12 -3.94128,0.34967 -7.91385,0.14909 -11.87,0.08 -6.00096,-0.10481 -11.98936,-0.62823 -17.99,-0.75 -15.33685,-0.31122 -30.6827,0.33836 -46.02,0.05 -3.70545,-0.0697 -7.40398,-0.45557 -11.11,-0.43 -8.64169,0.0596 -17.24832,1.29843 -25.89,1.36 -3.66258,0.0261 -7.32249,-0.22546 -10.98,-0.42 -7.1965,-0.38277 -14.36443,-1.59652 -21.57,-1.47 -7.31443,0.12844 -17.38257,-3.54842 -21.83,2.26 -0.97514,1.27355 -0.27238,3.53087 0.77,4.75 3.12301,3.65257 9.27226,2.62195 13.7,4.49 6.82044,2.87752 13.48988,6.23033 19.68,10.29 3.55001,2.32821 6.90863,4.99752 9.91,8 4.82316,4.82495 9.21665,10.15576 12.85,15.93 4.14499,6.58735 7.7622,13.63783 10.04,21.08 2.47528,8.08739 3.01146,16.66727 3.78,25.09 0.89613,9.82106 1.23229,19.7119 0.96,29.57 -0.20705,7.49595 -0.51532,15.05364 -1.97,22.41 -1.33591,6.75576 -2.89904,13.65444 -6.16,19.72 -2.36607,4.40102 -6.31119,7.74841 -9.47,11.62 -3.07459,3.76837 -9.0943,6.43839 -9.23,11.3 -0.0904,3.23907 3.6554,5.36256 5.72,7.86 4.33801,5.24748 10.67478,8.94663 13.96,14.91 3.94719,7.16498 4.67255,15.7098 6.18,23.75 2.18984,11.67983 3.4422,23.54658 4.13,35.41 0.67565,11.65376 0.57263,23.36122 -0.01,35.02 -0.73969,14.80161 -1.19991,29.77397 -4.42,44.24 -1.86275,8.36826 -4.6585,16.61594 -8.54,24.26 -2.49993,4.92325 -5.51919,9.70282 -9.37,13.66 -3.18705,3.27509 -7.44852,5.299 -11.09,8.06 -4.68966,3.55573 -8.65301,8.18822 -13.85,10.95 -9.09964,4.83572 -19.37647,7.24633 -29.46,9.37 -9.08402,1.91316 -18.4318,2.29786 -27.69,2.98 -5.66915,0.4177 -11.35549,0.69219 -17.04,0.68 -11.02073,-0.0236 -22.05207,-0.48942 -33.03,-1.46 -7.93522,-0.70157 -16.01466,-1.01717 -23.69,-3.15 -6.57621,-1.82741 -12.86128,-4.76077 -18.78,-8.16 -5.16165,-2.96442 -9.81787,-6.76072 -14.4,-10.56 -3.07721,-2.55148 -5.95122,-5.34569 -8.76,-8.19 -3.15669,-3.19662 -6.46392,-6.30771 -9.08,-9.96 -2.73748,-3.82178 -4.72032,-8.13893 -6.81,-12.35 -2.36154,-4.75891 -5.03597,-9.45178 -6.46,-14.57 -1.06446,-3.82586 -1.10807,-7.86723 -1.49,-11.82 -0.96362,-9.97287 -1.70473,-19.97564 -2.02,-29.99 -0.53525,-17.00173 -0.67883,-34.04361 0.22,-51.03 0.5306,-10.02757 0.32913,-20.30405 3.05,-29.97 1.83526,-6.51982 5.44821,-12.42859 8.79,-18.32 2.27384,-4.00867 5.50111,-7.44251 7.63,-11.53 2.16508,-4.15698 5.81847,-8.43948 5.16,-13.08 -0.8136,-5.73381 -7.69263,-8.7531 -10.62,-13.75 -2.31997,-3.96009 -3.72359,-8.39359 -5.39,-12.67 -2.09579,-5.3783 -4.72673,-10.64656 -5.79,-16.32 -1.55599,-8.30249 -0.9726,-16.8859 -0.75,-25.33 0.34295,-13.00954 0.62024,-26.15622 3.21,-38.91 1.11258,-5.47912 3.0623,-10.78485 5.25,-15.93 2.69612,-6.34087 5.80048,-12.56538 9.65,-18.28 2.77551,-4.12026 5.99602,-7.98074 9.6,-11.4 4.83204,-4.58438 10.23631,-8.61009 15.94,-12.05 4.94559,-2.9827 10.31648,-5.23323 15.69,-7.35 5.6807,-2.23778 13.8049,-0.71709 17.43,-5.63 0.76005,-1.03005 0.87946,-2.86498 0.05,-3.84 -4.27793,-5.02867 -12.99075,-2.72476 -19.59,-2.92 -7.02462,-0.20782 -13.97857,1.57324 -21,1.87 -9.99117,0.42228 -19.99991,-0.12341 -30,-0.13 -9.95004,-0.007 -19.90366,0.36135 -29.85,0.09 -8.05034,-0.21963 -16.06995,-1.15991 -24.12,-1.39 -8.02006,-0.22923 -16.04861,-0.16675 -24.07,0.01 -8.85962,0.19522 -17.70496,0.81451 -26.56,1.16 -7.46873,0.2914 -14.93572,0.8131 -22.41,0.77 -3.99747,-0.0231 -7.98264,-0.51223 -11.98,-0.55 -6.67213,-0.063 -13.33785,0.4789 -20.01,0.54 -4.99998,0.0458 -10.00085,-0.0282 -15,-0.13 -4.68143,-0.0953 -9.35819,-0.37556 -14.04,-0.45 -13.65161,-0.21705 -27.30931,-0.25892 -40.96,0.01 -8.68497,0.17109 -17.35377,1.10641 -26.04,1.02 -12.87847,-0.12811 -25.70311,-1.71903 -38.57,-2.28 -7.11272,-0.3101 -14.2306,-0.63261 -21.35,-0.6 -7.33835,0.0336 -14.66299,0.6757 -22,0.82 -17.68329,0.34777 -35.37767,0.50317 -53.06,0.11 -6.66223,-0.14814 -13.30792,-0.77496 -19.97,-0.93 -8.98423,-0.20908 -17.98012,-0.34917 -26.96,0 -8.02151,0.3119 -15.98849,1.5581 -24.01,1.87 -41.00235,1.5943 -83.743807,11.61139 -123.1,0 -3.05681,-0.90186 -6.290077,-2.51977 -8.03,-5.19 -2.382637,-3.65659 -1.783109,-8.57444 -2.06,-12.93 -0.388674,-6.11394 0.486837,-12.24428 0.57,-18.37 0.140365,-10.33912 0.101662,-20.6823 -0.12,-31.02 -0.150246,-7.00705 -0.996667,-14.00356 -0.82,-21.01 0.18534,-7.35038 1.650514,-14.62423 1.97,-21.97 0.927545,-21.32657 0.533601,-42.70454 -0.16,-64.04 -0.258384,-7.94799 -1.440309,-15.85796 -1.49,-23.81 -0.05043,-8.06993 0.668538,-16.1281 1.21,-24.18 0.80756,-12.00894 0.441681,-24.22774 3.04,-35.98 1.218393,-5.510818 2.964366,-11.031843 5.82,-15.9 1.839396,-3.135719 4.413687,-5.831556 7.11,-8.27 4.412064,-3.990106 9.160303,-7.881267 14.63,-10.22 9.488044,-4.056898 20.081662,-5.07891 30.35,-6.1 28.54919,-2.838951 57.38,-0.14 86.07,0.01 m 194.35,59.87 c -10.3,2.09 -20.52,5.14 -29.76,10.22 -8.14,4.85 -15.92,10.79 -21.36,18.66 -8.85,11.21 -15.06,24.59 -17.33,38.73 -2.75,7.37 -1.84,15.28 -2.04,22.98 0.32,5.64 -0.62,11.46 1.21,16.92 1.21,3.81 1.69,7.77 2.42,11.68 3.01,10.04 7.86,19.46 13.92,28 2.76,3.54 6.14,6.54 8.98,10.01 3.91,4.89 9.59,7.8 14.65,11.33 4.94,3.32 10.89,4.35 16.25,6.75 4.11,2.07 8.84,0.95 13.22,1.8 4.89,0.43 9.8,1.86 14.72,0.93 5.17,-0.59 10.34,-1.12 15.51,-1.71 4.65,-1.21 9.05,-3.24 13.76,-4.24 5.71,-2.64 10.88,-6.35 16.08,-9.86 4.91,-4.38 9.62,-9.03 14,-13.94 6.12,-9.17 11.67,-18.98 14.37,-29.75 3.47,-9.94 2.66,-20.6 3.94,-30.89 -1.32,-10.07 -0.65,-20.63 -4.72,-30.14 -4.68,-16.46 -14.61,-31.4 -28.08,-41.97 -8.01,-5.59 -16.8,-10.43 -26.37,-12.67 -4.33,-0.73 -8.38,-2.71 -12.75,-3.16 -6.87,-0.25 -13.79,-0.49 -20.62,0.32 m 193.01,1.05 c -5.38,1.08 -11.11,2.92 -13.99,7.99 -0.7,4.82 -1.42,9.66 -1.41,14.54 -0.08,14.67 0.33,29.35 -0.44,44 1.1,17.28 -0.18,34.62 0.87,51.9 -0.02,7.4 -0.76,15.22 -5.18,21.42 -7.68,8.91 -23.01,9.02 -31.06,0.53 -6.56,-6.29 -7.03,-16.33 -13.08,-22.95 -3.85,-1.73 -8.05,-5.07 -12.46,-3.31 -5.23,1.83 -10.71,5.01 -12.43,10.65 -3.23,6.74 0.15,13.97 2.12,20.53 8.41,16.09 24.24,29.69 42.92,31 9.45,0.8 19.13,0.38 28.3,-2.17 17.74,-6.25 31.41,-23.12 33.07,-41.97 0.52,-7.51 1.35,-15.03 0.49,-22.54 -0.28,-25.35 -0.03,-50.71 -0.12,-76.06 -0.23,-8.65 1.89,-17.53 -1.06,-25.94 -1.45,-3.22 -4.7,-5.15 -8,-6.02 -2.78,-0.72 -5.63,-2.02 -8.54,-1.6 m 181.77,2.75 c -5.03,2.71 -9.6,6.81 -11.73,12.22 -1.29,7.12 -1.64,14.36 -1.43,21.59 -0.15,18.85 0.44,37.72 -0.54,56.56 0.95,17.46 0.4,34.96 0.54,52.44 0.22,7.51 -0.85,15.21 1.42,22.51 2,3.29 4.93,6.35 8.77,7.33 3.82,0.44 7.73,0.4 11.56,-0.02 5.39,-1.89 10.59,-6.62 10.27,-12.76 -0.02,-9.68 -0.13,-19.36 0.32,-29.03 -0.93,-11.98 0.46,-24.04 -1.09,-35.98 -0.6,-12.35 -0.06,-24.73 -0.27,-37.1 -0.13,-4.56 -1.57,-9.07 -0.8,-13.65 0.86,-0.82 1.71,-1.66 2.56,-2.5 6.29,9.99 11.9,20.38 17.96,30.51 13.99,25.15 28.85,49.84 43.3,74.75 4.86,8.65 9.34,18.58 18.53,23.45 4.79,3.18 10.81,2.83 16.28,2.32 7.7,-2.52 13.12,-9.93 14.15,-17.83 0.33,-24.08 -0.56,-48.2 0.6,-72.28 -1.16,-24.53 -0.24,-49.12 -0.62,-73.67 -1.16,-7.38 -9.03,-11.25 -15.81,-11.75 -5.28,1.17 -11.78,1.99 -14.74,7.14 -3.05,9.98 -0.35,20.38 -0.47,30.55 0.18,22.68 0.04,45.37 0.08,68.05 -0.05,4.25 1.28,8.39 0.94,12.64 -0.49,0.44 -1.49,1.3 -1.99,1.74 -1.53,-1.64 -2.85,-3.47 -3.89,-5.45 -5.15,-10.59 -11.84,-20.32 -17.32,-30.73 -12.51,-20.67 -23.99,-41.95 -36.17,-62.81 -3.29,-5.49 -6.74,-11.15 -11.85,-15.12 -4.94,-4.18 -11.53,-5.29 -17.74,-6.1 -3.7,0.5 -7.3,1.76 -10.82,2.98 m -89,-0.56 c -11.63,0.8 -23.31,0 -34.94,0.53 -2.9,1.1 -4.95,3.92 -6.89,6.28 -0.71,5.3 -1.6,12.23 3.41,15.8 4.74,3.42 10.91,1.43 16.3,1.72 2.12,0.14 5.55,-0.56 6.08,2.31 1.38,7.82 0.7,15.83 0.88,23.73 -0.01,27.34 0.03,54.69 -0.01,82.03 -0.13,4.45 0.15,9.06 -1.45,13.3 -6.27,1.52 -12.79,-0.03 -19.1,0.99 -2.33,1.7 -4.42,3.79 -6.11,6.12 -0.61,5.1 -1.62,11.65 2.87,15.36 4.05,3.47 9.82,2.53 14.72,2.3 11.02,-0.25 22.05,-0.03 33.08,-0.11 6.85,0.06 13.74,-0.32 20.56,0.61 2.7,0.34 5.38,-0.41 8.01,-0.94 5.59,-2.5 7.33,-9.54 5.92,-15.11 -0.57,-4.55 -4.82,-8.57 -9.46,-8.55 -5.29,-0.2 -10.61,0.4 -15.86,-0.42 -1.53,-5.73 -1.05,-11.72 -1.17,-17.58 v -88 c 0.06,-5.26 -0.06,-10.59 1.09,-15.76 6.71,-1.21 13.67,1.48 20.22,-0.84 6.22,-3.79 6.94,-12.53 3.91,-18.61 -1.95,-2.57 -4.76,-4.97 -8.19,-4.79 -11.29,-0.1 -22.59,0.26 -33.87,-0.37 m -510.77,0.78 c -5.15,1.64 -10.72,3.36 -14.25,7.72 -2.02,2.78 -4.33,5.58 -4.88,9.09 -0.78,4.9 -2.12,9.75 -2.26,14.74 -0.16,17.98 0.43,35.98 -0.51,53.94 0.94,16.35 0.39,32.73 0.47,49.1 -0.38,7.15 1.67,14.1 3.06,21.04 3.08,8.11 11.51,13.54 20.1,13.83 14.25,0.28 28.53,0.36 42.79,-0.04 6.57,-1.24 13.26,-0.48 19.87,-1.08 4.68,-1.29 9.15,-3.37 14.01,-4 6.47,-1.89 12.26,-5.57 18.11,-8.83 5.27,-2.86 9.14,-7.53 13.39,-11.64 7.28,-6.92 12.26,-15.85 15.87,-25.14 2.56,-4.59 2.35,-10.01 4.17,-14.84 0.81,-2.35 1.7,-4.73 1.67,-7.25 0.1,-8.01 0.17,-16.03 -0.06,-24.03 -0.66,-5.8 -2.97,-11.24 -4.07,-16.96 -4.78,-16.07 -15.16,-30.37 -28.71,-40.21 -9.16,-5.51 -18.92,-10.35 -29.42,-12.58 -6.69,-0.48 -12.92,-3.81 -19.72,-3.32 -10.01,0.37 -20.01,-0.56 -30.02,0.03 -6.53,0.3 -13.14,-0.55 -19.61,0.43 m 589.97,317.72 c -4.93,2.53 -7.51,8.48 -6.97,13.86 -0.27,7.01 0.76,14.07 -0.4,21.04 -1.19,7.32 -0.35,14.76 0.93,22 0.71,3.7 1.63,7.86 4.87,10.21 2.63,2.32 7.2,1.49 8.88,-1.58 1.98,-3.57 1.71,-7.79 2.23,-11.7 1.7,-11.92 -0.46,-24.03 1.33,-35.94 0.59,-4.99 -0.13,-10.24 -2.47,-14.71 -1.55,-2.91 -5.27,-5.12 -8.4,-3.18 m -1.06,154.95 c -4.34,2.14 -5.74,7.24 -6.02,11.71 -0.54,6.09 -2.35,12.05 -2.54,18.16 1.48,9.95 0.29,20.03 1,30.03 1.28,9.31 0.41,18.73 0.69,28.09 -0.04,5.6 3.74,10.88 8.73,13.24 3.21,0.78 6.49,-1.74 7.63,-4.65 2.91,-6.61 1.13,-13.96 2.26,-20.88 0.86,-8.95 0.79,-18.03 -0.39,-26.95 -0.21,-5.34 -0.36,-10.74 0.46,-16.04 0.51,-3.42 0.31,-6.89 -0.21,-10.29 -0.83,-5.77 0.19,-11.63 -0.62,-17.39 -0.69,-2.28 -2.01,-4.66 -4.32,-5.57 -2.21,-0.23 -4.64,-0.5 -6.67,0.54 z"
       id="path5840"
       sodipodi:nodetypes="csssssssssssssssssssssssssssssssssssssssssssssssssssssssssssssssssssssssssssssssssssssssssssssssssssssssssssssssssssscccccccccccccccccccccccccccccccccccccccccccccccccccccccccccccccccccccccccccccccccccccccccccccccccccccccccccccccccccccccccccccccccccccccccccccccccccccc" />
    <path
       fill="#ffffff"
       opacity="1"
       d="m 183.03,43.52 c 5.01,0.08 9.9602,-0.733117 14.95,-0.88 216.91604,-6.3853 434.07131,-4.758693 651.03,-0.04 5.66403,0.123189 11.31489,0.684967 16.98,0.74 9.67236,0.09396 19.33735,-0.756351 29.01,-0.7 9.22575,0.05375 18.48359,0.03566 27.66,0.99 7.7525,0.806252 15.56898,1.768481 23.04,3.99 5.73629,1.705695 11.60219,3.646922 16.49,7.1 1.91878,1.355552 3.21382,3.427913 4.79,5.17 1.84422,2.038342 3.99477,3.854251 5.46,6.18 2.19985,3.491813 3.49988,7.493226 4.83,11.4 1.9465,5.7172 3.81641,11.538991 4.58,17.53 0.83867,6.58012 -0.18841,13.26831 -0.04,19.9 0.22815,10.19526 1.43472,20.36219 1.43,30.56 -0.003,6.22374 -0.75409,12.42774 -0.89,18.65 -0.50867,23.28797 -0.0226,46.58845 0.28,69.88 0.0434,3.33719 0.20551,6.67256 0.22,10.01 0.0653,15.04785 -0.57547,30.09202 -0.6,45.14 -0.019,11.63057 2.23694,23.4135 0.35,34.89 -0.91536,5.56732 -1.27396,12.33432 -5.58,15.98 -4.6851,3.9666 -12.03528,2.5775 -18.15,3.12 -3.94128,0.34967 -7.91385,0.14909 -11.87,0.08 -6.00096,-0.10481 -11.98936,-0.62823 -17.99,-0.75 -15.33685,-0.31122 -30.6827,0.33836 -46.02,0.05 -3.70545,-0.0697 -7.40398,-0.45557 -11.11,-0.43 -8.64169,0.0596 -17.24832,1.29843 -25.89,1.36 -3.66258,0.0261 -7.32249,-0.22546 -10.98,-0.42 -7.1965,-0.38277 -14.36443,-1.59652 -21.57,-1.47 -7.31443,0.12844 -17.38257,-3.54842 -21.83,2.26 -0.97514,1.27355 -0.27238,3.53087 0.77,4.75 3.12301,3.65257 9.27226,2.62195 13.7,4.49 6.82044,2.87752 13.48988,6.23033 19.68,10.29 3.55001,2.32821 6.90863,4.99752 9.91,8 4.82316,4.82495 9.21665,10.15576 12.85,15.93 4.14499,6.58735 7.7622,13.63783 10.04,21.08 2.47528,8.08739 3.01146,16.66727 3.78,25.09 0.89613,9.82106 1.23229,19.7119 0.96,29.57 -0.20705,7.49595 -0.51532,15.05364 -1.97,22.41 -1.33591,6.75576 -2.89904,13.65444 -6.16,19.72 -2.36607,4.40102 -6.31119,7.74841 -9.47,11.62 -3.07459,3.76837 -9.0943,6.43839 -9.23,11.3 -0.0904,3.23907 3.6554,5.36256 5.72,7.86 4.33801,5.24748 10.67478,8.94663 13.96,14.91 3.94719,7.16498 4.67255,15.7098 6.18,23.75 2.18984,11.67983 3.4422,23.54658 4.13,35.41 0.67565,11.65376 0.57263,23.36122 -0.01,35.02 -0.73969,14.80161 -1.19991,29.77397 -4.42,44.24 -1.86275,8.36826 -4.6585,16.61594 -8.54,24.26 -2.49993,4.92325 -5.51919,9.70282 -9.37,13.66 -3.18705,3.27509 -7.44852,5.299 -11.09,8.06 -4.68966,3.55573 -8.65301,8.18822 -13.85,10.95 -9.09964,4.83572 -19.37647,7.24633 -29.46,9.37 -9.08402,1.91316 -18.4318,2.29786 -27.69,2.98 -5.66915,0.4177 -11.35549,0.69219 -17.04,0.68 -11.02073,-0.0236 -22.05207,-0.48942 -33.03,-1.46 -7.93522,-0.70157 -16.01466,-1.01717 -23.69,-3.15 -6.57621,-1.82741 -12.86128,-4.76077 -18.78,-8.16 -5.16165,-2.96442 -9.81787,-6.76072 -14.4,-10.56 -3.07721,-2.55148 -5.95122,-5.34569 -8.76,-8.19 -3.15669,-3.19662 -6.46392,-6.30771 -9.08,-9.96 -2.73748,-3.82178 -4.72032,-8.13893 -6.81,-12.35 -2.36154,-4.75891 -5.03597,-9.45178 -6.46,-14.57 -1.06446,-3.82586 -1.10807,-7.86723 -1.49,-11.82 -0.96362,-9.97287 -1.70473,-19.97564 -2.02,-29.99 -0.53525,-17.00173 -0.67883,-34.04361 0.22,-51.03 0.5306,-10.02757 0.32913,-20.30405 3.05,-29.97 1.83526,-6.51982 5.44821,-12.42859 8.79,-18.32 2.27384,-4.00867 5.50111,-7.44251 7.63,-11.53 2.16508,-4.15698 5.81847,-8.43948 5.16,-13.08 -0.8136,-5.73381 -7.69263,-8.7531 -10.62,-13.75 -2.31997,-3.96009 -3.72359,-8.39359 -5.39,-12.67 -2.09579,-5.3783 -4.72673,-10.64656 -5.79,-16.32 -1.55599,-8.30249 -0.9726,-16.8859 -0.75,-25.33 0.34295,-13.00954 0.62024,-26.15622 3.21,-38.91 1.11258,-5.47912 3.0623,-10.78485 5.25,-15.93 2.69612,-6.34087 5.80048,-12.56538 9.65,-18.28 2.77551,-4.12026 5.99602,-7.98074 9.6,-11.4 4.83204,-4.58438 10.23631,-8.61009 15.94,-12.05 4.94559,-2.9827 10.31648,-5.23323 15.69,-7.35 5.6807,-2.23778 13.8049,-0.71709 17.43,-5.63 0.76005,-1.03005 0.87946,-2.86498 0.05,-3.84 -4.27793,-5.02867 -12.99075,-2.72476 -19.59,-2.92 -7.02462,-0.20782 -13.97857,1.57324 -21,1.87 -9.99117,0.42228 -19.99991,-0.12341 -30,-0.13 -9.95004,-0.007 -19.90366,0.36135 -29.85,0.09 -8.05034,-0.21963 -16.06995,-1.15991 -24.12,-1.39 -8.02006,-0.22923 -16.04861,-0.16675 -24.07,0.01 -8.85962,0.19522 -17.70496,0.81451 -26.56,1.16 -7.46873,0.2914 -14.93572,0.8131 -22.41,0.77 -3.99747,-0.0231 -7.98264,-0.51223 -11.98,-0.55 -6.67213,-0.063 -13.33785,0.4789 -20.01,0.54 -4.99998,0.0458 -10.00085,-0.0282 -15,-0.13 -4.68143,-0.0953 -9.35819,-0.37556 -14.04,-0.45 -13.65161,-0.21705 -27.30931,-0.25892 -40.96,0.01 -8.68497,0.17109 -17.35377,1.10641 -26.04,1.02 -12.87847,-0.12811 -25.70311,-1.71903 -38.57,-2.28 -7.11272,-0.3101 -14.2306,-0.63261 -21.35,-0.6 -7.33835,0.0336 -14.66299,0.6757 -22,0.82 -17.68329,0.34777 -35.37767,0.50317 -53.06,0.11 -6.66223,-0.14814 -13.30792,-0.77496 -19.97,-0.93 -8.98423,-0.20908 -17.98012,-0.34917 -26.96,0 -8.02151,0.3119 -15.98849,1.5581 -24.01,1.87 -41.00235,1.5943 -83.743807,11.61139 -123.1,0 -3.05681,-0.90186 -6.290077,-2.51977 -8.03,-5.19 -2.263138,-74.47115 -5.520319,-149.32034 -0.9,-217.33 0.80756,-12.00894 0.441681,-24.22774 3.04,-35.98 1.218393,-5.510818 2.964366,-11.031843 5.82,-15.9 1.839396,-3.135719 4.413687,-5.831556 7.11,-8.27 4.412064,-3.990106 9.160303,-7.881267 14.63,-10.22 9.488044,-4.056898 20.081662,-5.07891 30.35,-6.1 28.54919,-2.838951 57.38,-0.14 86.07,0.01 m 194.35,59.87 c -10.3,2.09 -20.52,5.14 -29.76,10.22 -8.14,4.85 -15.92,10.79 -21.36,18.66 -8.85,11.21 -15.06,24.59 -17.33,38.73 -2.75,7.37 -1.84,15.28 -2.04,22.98 0.32,5.64 -0.62,11.46 1.21,16.92 1.21,3.81 1.69,7.77 2.42,11.68 3.01,10.04 7.86,19.46 13.92,28 2.76,3.54 6.14,6.54 8.98,10.01 3.91,4.89 9.59,7.8 14.65,11.33 4.94,3.32 10.89,4.35 16.25,6.75 4.11,2.07 8.84,0.95 13.22,1.8 4.89,0.43 9.8,1.86 14.72,0.93 5.17,-0.59 10.34,-1.12 15.51,-1.71 4.65,-1.21 9.05,-3.24 13.76,-4.24 5.71,-2.64 10.88,-6.35 16.08,-9.86 4.91,-4.38 9.62,-9.03 14,-13.94 6.12,-9.17 11.67,-18.98 14.37,-29.75 3.47,-9.94 2.66,-20.6 3.94,-30.89 -1.32,-10.07 -0.65,-20.63 -4.72,-30.14 -4.68,-16.46 -14.61,-31.4 -28.08,-41.97 -8.01,-5.59 -16.8,-10.43 -26.37,-12.67 -4.33,-0.73 -8.38,-2.71 -12.75,-3.16 -6.87,-0.25 -13.79,-0.49 -20.62,0.32 m 193.01,1.05 c -5.38,1.08 -11.11,2.92 -13.99,7.99 -0.7,4.82 -1.42,9.66 -1.41,14.54 -0.08,14.67 0.33,29.35 -0.44,44 1.1,17.28 -0.18,34.62 0.87,51.9 -0.02,7.4 -0.76,15.22 -5.18,21.42 -7.68,8.91 -23.01,9.02 -31.06,0.53 -6.56,-6.29 -7.03,-16.33 -13.08,-22.95 -3.85,-1.73 -8.05,-5.07 -12.46,-3.31 -5.23,1.83 -10.71,5.01 -12.43,10.65 -3.23,6.74 0.15,13.97 2.12,20.53 8.41,16.09 24.24,29.69 42.92,31 9.45,0.8 19.13,0.38 28.3,-2.17 17.74,-6.25 31.41,-23.12 33.07,-41.97 0.52,-7.51 1.35,-15.03 0.49,-22.54 -0.28,-25.35 -0.03,-50.71 -0.12,-76.06 -0.23,-8.65 1.89,-17.53 -1.06,-25.94 -1.45,-3.22 -4.7,-5.15 -8,-6.02 -2.78,-0.72 -5.63,-2.02 -8.54,-1.6 m 181.77,2.75 c -5.03,2.71 -9.6,6.81 -11.73,12.22 -1.29,7.12 -1.64,14.36 -1.43,21.59 -0.15,18.85 0.44,37.72 -0.54,56.56 0.95,17.46 0.4,34.96 0.54,52.44 0.22,7.51 -0.85,15.21 1.42,22.51 2,3.29 4.93,6.35 8.77,7.33 3.82,0.44 7.73,0.4 11.56,-0.02 5.39,-1.89 10.59,-6.62 10.27,-12.76 -0.02,-9.68 -0.13,-19.36 0.32,-29.03 -0.93,-11.98 0.46,-24.04 -1.09,-35.98 -0.6,-12.35 -0.06,-24.73 -0.27,-37.1 -0.13,-4.56 -1.57,-9.07 -0.8,-13.65 0.86,-0.82 1.71,-1.66 2.56,-2.5 6.29,9.99 11.9,20.38 17.96,30.51 13.99,25.15 28.85,49.84 43.3,74.75 4.86,8.65 9.34,18.58 18.53,23.45 4.79,3.18 10.81,2.83 16.28,2.32 7.7,-2.52 13.12,-9.93 14.15,-17.83 0.33,-24.08 -0.56,-48.2 0.6,-72.28 -1.16,-24.53 -0.24,-49.12 -0.62,-73.67 -1.16,-7.38 -9.03,-11.25 -15.81,-11.75 -5.28,1.17 -11.78,1.99 -14.74,7.14 -3.05,9.98 -0.35,20.38 -0.47,30.55 0.18,22.68 0.04,45.37 0.08,68.05 -0.05,4.25 1.28,8.39 0.94,12.64 -0.49,0.44 -1.49,1.3 -1.99,1.74 -1.53,-1.64 -2.85,-3.47 -3.89,-5.45 -5.15,-10.59 -11.84,-20.32 -17.32,-30.73 -12.51,-20.67 -23.99,-41.95 -36.17,-62.81 -3.29,-5.49 -6.74,-11.15 -11.85,-15.12 -4.94,-4.18 -11.53,-5.29 -17.74,-6.1 -3.7,0.5 -7.3,1.76 -10.82,2.98 m -89,-0.56 c -11.63,0.8 -23.31,0 -34.94,0.53 -2.9,1.1 -4.95,3.92 -6.89,6.28 -0.71,5.3 -1.6,12.23 3.41,15.8 4.74,3.42 10.91,1.43 16.3,1.72 2.12,0.14 5.55,-0.56 6.08,2.31 1.38,7.82 0.7,15.83 0.88,23.73 -0.01,27.34 0.03,54.69 -0.01,82.03 -0.13,4.45 0.15,9.06 -1.45,13.3 -6.27,1.52 -12.79,-0.03 -19.1,0.99 -2.33,1.7 -4.42,3.79 -6.11,6.12 -0.61,5.1 -1.62,11.65 2.87,15.36 4.05,3.47 9.82,2.53 14.72,2.3 11.02,-0.25 22.05,-0.03 33.08,-0.11 6.85,0.06 13.74,-0.32 20.56,0.61 2.7,0.34 5.38,-0.41 8.01,-0.94 5.59,-2.5 7.33,-9.54 5.92,-15.11 -0.57,-4.55 -4.82,-8.57 -9.46,-8.55 -5.29,-0.2 -10.61,0.4 -15.86,-0.42 -1.53,-5.73 -1.05,-11.72 -1.17,-17.58 v -88 c 0.06,-5.26 -0.06,-10.59 1.09,-15.76 6.71,-1.21 13.67,1.48 20.22,-0.84 6.22,-3.79 6.94,-12.53 3.91,-18.61 -1.95,-2.57 -4.76,-4.97 -8.19,-4.79 -11.29,-0.1 -22.59,0.26 -33.87,-0.37 m -510.77,0.78 c -5.15,1.64 -10.72,3.36 -14.25,7.72 -2.02,2.78 -4.33,5.58 -4.88,9.09 -0.78,4.9 -2.12,9.75 -2.26,14.74 -0.16,17.98 0.43,35.98 -0.51,53.94 0.94,16.35 0.39,32.73 0.47,49.1 -0.38,7.15 1.67,14.1 3.06,21.04 3.08,8.11 11.51,13.54 20.1,13.83 14.25,0.28 28.53,0.36 42.79,-0.04 6.57,-1.24 13.26,-0.48 19.87,-1.08 4.68,-1.29 9.15,-3.37 14.01,-4 6.47,-1.89 12.26,-5.57 18.11,-8.83 5.27,-2.86 9.14,-7.53 13.39,-11.64 7.28,-6.92 12.26,-15.85 15.87,-25.14 2.56,-4.59 2.35,-10.01 4.17,-14.84 0.81,-2.35 1.7,-4.73 1.67,-7.25 0.1,-8.01 0.17,-16.03 -0.06,-24.03 -0.66,-5.8 -2.97,-11.24 -4.07,-16.96 -4.78,-16.07 -15.16,-30.37 -28.71,-40.21 -9.16,-5.51 -18.92,-10.35 -29.42,-12.58 -6.69,-0.48 -12.92,-3.81 -19.72,-3.32 -10.01,0.37 -20.01,-0.56 -30.02,0.03 -6.53,0.3 -13.14,-0.55 -19.61,0.43 m 589.97,317.72 c -4.93,2.53 -7.51,8.48 -6.97,13.86 -0.27,7.01 0.76,14.07 -0.4,21.04 -1.19,7.32 -0.35,14.76 0.93,22 0.71,3.7 1.63,7.86 4.87,10.21 2.63,2.32 7.2,1.49 8.88,-1.58 1.98,-3.57 1.71,-7.79 2.23,-11.7 1.7,-11.92 -0.46,-24.03 1.33,-35.94 0.59,-4.99 -0.13,-10.24 -2.47,-14.71 -1.55,-2.91 -5.27,-5.12 -8.4,-3.18 m -1.06,154.95 c -4.34,2.14 -5.74,7.24 -6.02,11.71 -0.54,6.09 -2.35,12.05 -2.54,18.16 1.48,9.95 0.29,20.03 1,30.03 1.28,9.31 0.41,18.73 0.69,28.09 -0.04,5.6 3.74,10.88 8.73,13.24 3.21,0.78 6.49,-1.74 7.63,-4.65 2.91,-6.61 1.13,-13.96 2.26,-20.88 0.86,-8.95 0.79,-18.03 -0.39,-26.95 -0.21,-5.34 -0.36,-10.74 0.46,-16.04 0.51,-3.42 0.31,-6.89 -0.21,-10.29 -0.83,-5.77 0.19,-11.63 -0.62,-17.39 -0.69,-2.28 -2.01,-4.66 -4.32,-5.57 -2.21,-0.23 -4.64,-0.5 -6.67,0.54 z"
       id="path5842"
       sodipodi:nodetypes="cssssssssssssssssssssssssssssssssssssssssssssssssssssssssssssssssssssssssssssssssssssssssssssssssssssssccssssscccccccccccccccccccccccccccccccccccccccccccccccccccccccccccccccccccccccccccccccccccccccccccccccccccccccccccccccccccccccccccccccccccccccccccccccccccccc" />
  </g>
  <g
     id="#000000ff">
    <path
       fill="#000000"
       opacity="1"
       d="m 898.99,26.47 c 13.54245,0.393777 25.03049,-1.935734 37.40098,0.222798 C 944.70196,27.726575 951.92,29.26 959.35,32.5 c 5.94,2.62 12.12,4.91 17.49,8.64 7.49,5.64 12.21,14.11 15.56,22.7 2.61,6.95 3.13,14.47 5.49,21.51 2.54,7.43 2.15,15.48 1,23.13 -1.55,7.86 3.08,15.44 1.24,23.32 -1.95,9.44 1.31,18.94 -0.4,28.38 -0.4,11.32 -0.17,22.66 -0.06,33.98 1.26,12.92 -0.16,25.96 1.52,38.85 0.62,5.67 -0.77,11.29 -0.73,16.96 -0.15,28.02 -0.08,56.05 -0.12,84.08 -0.48,5.97 -1.21,11.93 -0.97,17.95 -0.18555,134.01036 0.0806,261.01213 0.08,385 0.09,15.65 -0.69,31.36 0.92,46.95 0.12,34.02 0.03,68.05 0.09,102.07 -0.21,4.43 1.23,8.82 0.42,13.23 -1.53,10.8 0.76,21.73 -0.83,32.53 -1.07,6.77 0.25,13.74 -1.46,20.44 -2.07,8.36 -5.58,16.27 -8.84,24.22 -3.58,9.87 -11.69,17.51 -20.81,22.37 -6.98,4.19 -14.9,6.58 -22.93,7.62 -21.94,2 -44.01,0.92 -66.01,1.27 -35.34,-0.14 -70.67,-0.06 -106,-0.06 -5.67,0.17 -11.32,1.14 -17,0.59 -9.97,-1.13 -20.03,-0.62 -30.03,-0.55 -9.29,1.02 -18.64,0.63 -27.97,0.73 -48,-0.04 -96.01,-0.02 -144.01,0 -6.34,-0.12 -12.66,-1.47 -18.99,-0.45 -7.32,1.09 -14.68,0.06 -21.99,-0.37 -14.67,0 -29.34,0.1 -44.01,0.06 -18.66,0.28 -37.33,-0.38 -56,0.06 -16.33,0.04 -32.66,-0.17 -49,0.01 -19.68,-0.2 -39.38,0.24 -59.03,-0.95 -21.26,2.27 -42.69,-0.3 -63.96,1.55 -6.67,0.1 -13.37,0.36 -20.01,-0.5 -4.35,-0.58 -8.68,0.24 -13,0.57 -9,0.35 -18.01,0.2 -26.99,-0.4 -8.67,0.85 -17.36,0.43 -26,-0.36 -9.98,0.8 -20.01,1.11 -30,0.33 -20.35,-1.21 -40.97,1.6 -61.13,-2.22 -8.9,-1.39 -16.36,-6.65 -24.27,-10.52 -7.6,-4.07 -11.09,-12.41 -15.17,-19.52 -4.53,-9.85 -6.79,-20.84 -5.89,-31.68 0.65,-6.57 -0.61,-13.07 -1.58,-19.53 -1.3,-9.49 0.74,-18.98 0.55,-28.49 -0.01,-30.02 0.2,-60.04 0.32,-90.06 0.1,-4.65 0.63,-9.28 0.5,-13.93 -0.27,-12.46 1.37,-24.96 -0.43,-37.37 0.53,-7.53 0.92,-15.08 0.63,-22.63 0.06,-28.69 0.18,-57.37 0.34,-86.05 0.84,-11.97 0.23,-23.98 0.93,-35.96 -0.64,-11.98 -0.16,-23.98 -0.95,-35.94 -0.19,-46.63 -0.46,-93.26 -0.15,-139.89 1.39,-17.04 0.63,-34.14 0.54,-51.21 -1.47,-13.89 0.15,-27.9 -1.08,-41.78 -1.93,-8.7 0.78,-17.39 0.6,-26.11 -0.22,-10.03 -1.22,-20.03 -1.15,-30.06 0.02,-12.89 -0.28,-25.78 0.25,-38.66 1.14,-11.79 0.82,-23.64 0.02,-35.45 -0.45,-30.96 -0.41,-61.93 -0.02,-92.89 0.92,-10.65 -0.02,-21.39 1.43,-32 -0.07,-7.92 1.49,-15.72 3.8,-23.26 1.89,-5.3 5.51,-9.72 8.18,-14.63 2.27,-4.28 6.54,-6.78 10.58,-9.13 4.65,-2.61 8.51,-6.92 14.02,-7.73 7.35,-1.34 14.54,-3.68 22.04,-4.04 m 12.779726,16.29 c 0,0 -14.599725,2.293591 -24.087769,6.350489 C 62.14226,52.199222 51.98,59.83 51.98,59.83 l -7.11,8.27 c -1.74,5.38 -3.68,10.67 -5.82,15.9 -4.45,11.52 -1.48,24.04 -3.04,35.98 -1.12,8.02 0.09,16.17 -1.21,24.18 -1.08,7.98 1.15,15.86 1.49,23.81 0.18,21.34 0.02,42.69 0.16,64.04 0.12,7.38 -2.09,14.58 -1.97,21.97 -0.09,7.02 1.46,13.97 0.82,21.01 -1.27,10.28 -1.28,20.75 0.12,31.02 0.43,6.12 0.38,12.3 -0.57,18.37 -0.62,4.38 -0.02,8.99 2.06,12.93 1.63,2.9 4.41,5.69 8.03,5.19 41.03,-0.06 82.07,-0.06 123.1,0 8.07,0.1 15.92,-2.76 24.01,-1.87 8.93,1.13 18.05,1.49 26.96,0 6.7,-0.99 13.28,1.24 19.97,0.93 17.69,-0.26 35.37,-0.01 53.06,-0.11 7.36,0.26 14.63,-1.66 22,-0.82 7.06,1.06 14.25,1.29 21.35,0.6 12.92,-2.59 25.61,3 38.57,2.28 8.72,0.53 17.33,-1.3 26.04,-1.02 13.65,0.17 27.31,-0.21 40.96,-0.01 4.69,0.01 9.35,1.37 14.04,0.45 5,-0.94 9.99,0.79 15,0.13 6.63,-0.85 13.34,-0.59 20.01,-0.54 4,-0.02 7.97,1.13 11.98,0.55 7.43,-1.09 14.95,-0.23 22.41,-0.77 8.82,-0.9 17.7,-2.81 26.56,-1.16 7.99,0.64 16.08,0.65 24.07,-0.01 8.07,-1.47 16.06,1.22 24.12,1.39 9.95,0.19 19.9,-0.08 29.85,-0.09 10,-0.05 20,0.46 30,0.13 7.04,-0.16 13.96,-1.83 21,-1.87 6.54,0.86 13.32,0.56 19.59,2.92 -0.02,1.28 -0.03,2.55 -0.05,3.84 -5.12,3.61 -11.59,3.9 -17.43,5.63 -5.66,1.37 -10.96,3.96 -15.69,7.35 -5.38,3.91 -11.79,6.66 -15.94,12.05 -3.06,3.91 -6.28,7.7 -9.6,11.4 -4.6,5.26 -7.05,11.89 -9.65,18.28 -2.02,5.21 -3.86,10.51 -5.25,15.93 -3.72,12.6 -4,25.89 -3.21,38.91 1.28,8.4 0.35,16.89 0.75,25.33 0.22,5.91 3.33,11.1 5.79,16.32 2.03,4.12 3.13,8.65 5.39,12.67 2.9,5.07 8.53,8.16 10.62,13.75 1.09,4.98 -1.99,9.56 -5.16,13.08 -3.16,3.4 -5.58,7.38 -7.63,11.53 -2.95,6.09 -7.58,11.49 -8.79,18.32 -1.51,9.96 -0.85,20.1 -3.05,29.97 -0.42,17 -0.09,34.02 -0.22,51.03 -0.3,10.06 2.24,19.94 2.02,29.99 -0.12,3.99 0.56,7.94 1.49,11.82 1.29,5.2 4.48,9.63 6.46,14.57 1.81,4.32 3.16,9.14 6.81,12.35 3.3,3.05 6.58,6.18 9.08,9.96 2.19,3.42 5.32,6.08 8.76,8.19 5.09,3.13 9.06,7.78 14.4,10.56 6.04,3.15 11.9,7.09 18.78,8.16 7.85,1.29 15.7,2.92 23.69,3.15 10.95,1.52 22.06,0.04 33.03,1.46 5.68,0.02 11.33,-0.99 17.04,-0.68 9.34,0.45 18.48,-1.8 27.69,-2.98 10.27,-1.33 20.36,-4.41 29.46,-9.37 5.27,-2.8 8.86,-7.78 13.85,-10.95 3.78,-2.56 8.48,-4.08 11.09,-8.06 3.03,-4.62 5.92,-9.33 9.37,-13.66 5.46,-6.92 6.91,-15.85 8.54,-24.26 2.31,-14.66 3.21,-29.48 4.42,-44.24 0.09,-11.68 0.14,-23.35 0.01,-35.02 -1.28,-11.81 -1.24,-23.82 -4.13,-35.41 -1.95,-7.93 -1.19,-16.84 -6.18,-23.75 -4.03,-5.49 -8.04,-11.3 -13.96,-14.91 -2.71,-1.83 -6.68,-3.95 -5.72,-7.86 2.04,-4.51 6.55,-7.21 9.23,-11.3 2.78,-4.18 6.12,-7.9 9.47,-11.62 4.91,-5.35 4.53,-13.07 6.16,-19.72 1.86,-7.35 0.74,-14.98 1.97,-22.41 0.28,-9.85 0.78,-19.82 -0.96,-29.57 -1.45,-8.34 -1.68,-16.88 -3.78,-25.09 -1.81,-7.7 -7.43,-13.68 -10.04,-21.08 -2.4,-6.65 -8.33,-10.83 -12.85,-15.93 -2.85,-3.18 -6.05,-6.11 -9.91,-8 -6.64,-3.28 -12.38,-8.43 -19.68,-10.29 -4.55,-1.48 -9.7,-1.64 -13.7,-4.49 -1.62,-1.09 -0.79,-3.18 -0.77,-4.75 6.81,-3.25 14.53,-2.39 21.83,-2.26 7.19,0.38 14.33,2.62 21.57,1.47 3.66,-0.67 7.31,0.35 10.98,0.42 8.66,0.24 17.23,-2.72 25.89,-1.36 3.68,0.51 7.4,0.42 11.11,0.43 15.34,0.05 30.68,-0.12 46.02,-0.05 6.01,-0.09 11.97,1.73 17.99,0.75 3.92,-0.68 7.93,-0.83 11.87,-0.08 6.1,0.75 13.18,1.23 18.15,-3.12 4.79,-3.77 6,-10.21 5.58,-15.98 0.61,-11.66 -2.57,-23.28 -0.35,-34.89 0.82,-15.03 -0.27,-30.11 0.6,-45.14 0.46,-3.34 -0.08,-6.68 -0.22,-10.01 -0.25,-23.3 -0.03,-46.59 -0.28,-69.88 0.04,-6.24 1.89,-12.4 0.89,-18.65 -1.89,-10.11 0.37,-20.45 -1.43,-30.56 -1.25,-6.64 1.97,-13.32 0.04,-19.9 -1.55,-5.84 -3.16,-11.66 -4.58,-17.53 -1.21,-3.93 -1.77,-8.38 -4.83,-11.4 -1.61,-2.31 -5,-3.05 -5.46,-6.18 -1.81,-1.57 -2.52,-4.12 -4.79,-5.17 -5.16,-3.03 -10.55,-5.97 -16.49,-7.1 -7.65,-1.51 -15.37,-2.6 -23.04,-3.99 -9.11,-1.85 -18.44,-0.82 -27.66,-0.99 -9.67,0.23 -19.42,-0.84 -29.01,0.7 C 860.3,44.05 854.65,43 849.01,42.6 M 213,352.77 c -7.65,-0.57 -15.34,0.18 -23.01,-0.18 -6.33,0.11 -13.73,1.12 -17.65,6.72 -5.33,7.45 -3.9,17.15 -3.62,25.74 1.72,7.3 -0.62,14.6 -0.21,21.95 0.06,46 0.05,92 0.02,138 -0.37,8.36 1.44,16.62 0.94,25 0.51,8.04 -1.24,15.97 -0.96,24 0.12,16 -0.11,32.01 0.1,48.01 1.38,9.94 0.69,19.99 0.84,29.99 -0.1,6.33 0.43,12.71 -0.58,18.99 -1.1,6.35 0.92,12.64 0.72,19.01 0.14,11.57 -3.19,23.49 0.75,34.8 1.23,5.5 7.67,7.37 12.61,7.66 29.7,-0.02 59.41,-0.11 89.11,0.05 4.45,0.19 9.02,-2.37 10.8,-6.53 2.71,-5.61 1.26,-12 1.51,-17.98 -0.4,-7.16 1.86,-14.23 0.8,-21.38 -1.06,-6.83 -0.61,-13.75 -0.65,-20.62 -0.07,-30.69 -0.03,-61.37 -0.01,-92.06 0.13,-4.02 0.91,-9.41 5.5,-10.64 5.87,2.19 8.33,8.58 9.84,14.16 1.44,4.78 -0.42,9.66 -0.33,14.51 -0.06,5.36 1.24,10.65 0.99,16.03 -0.07,31.68 0.13,63.36 0.02,95.03 0.03,4.35 -1.14,8.6 -1.08,12.96 -0.08,3.81 -0.24,8.11 2.44,11.18 3.55,3.8 8.93,5.57 14.06,5.4 10.02,-0.08 20.03,-0.23 30.05,-0.11 9.34,-0.08 18.71,0.42 28,-0.75 8.2,0.65 16.46,1.29 24.69,0.61 5.03,-1.18 10,-4.74 11.27,-9.98 2.23,-7.59 1.21,-15.56 1.52,-23.34 -0.01,-41.01 0.02,-82.02 0,-123.03 0.07,-6.38 -2.64,-12.33 -5.74,-17.75 -2.53,-4.33 -4.05,-9.15 -6.5,-13.51 -3.55,-5.95 -10.03,-9.46 -13.43,-15.51 -0.97,-1.73 -1.95,-3.98 -0.6,-5.78 3.05,-5.33 9.76,-6.93 13.19,-11.92 2.45,-3.77 3.23,-8.27 4.71,-12.43 1.96,-5.98 5.27,-11.47 6.52,-17.68 3.52,-13.34 1.07,-27.21 2.1,-40.78 0.77,-5.16 1.26,-10.43 0.55,-15.62 -1.03,-5.53 -3.77,-10.55 -5.12,-15.99 -1.91,-6.67 -1.37,-13.8 -3.71,-20.38 -2.28,-6.29 -4.65,-12.79 -9.23,-17.82 -4.01,-4.47 -6.26,-10.24 -10.57,-14.46 -3.36,-3.35 -7.2,-6.19 -11.19,-8.73 -4.72,-2.98 -10.1,-4.59 -15.11,-6.96 -4.97,-2.37 -10.18,-4.29 -15.61,-5.25 -10.05,-2.05 -20.4,0.1 -30.5,-1.49 -5.72,-0.74 -11.46,-1.63 -17.25,-1.4 -7.66,0.25 -15.37,-0.41 -22.99,0.61 -10.01,1.22 -20.01,-0.61 -29.97,-1.48 -9.36,-0.2 -18.68,2.97 -28.03,1.13 m 350.42,-0.33 c -3.83,0.07 -7.6,0.94 -11.42,0.82 -6.83,-0.71 -13.91,-1.67 -20.64,0.13 -6.03,1.55 -9.75,6.91 -14.31,10.7 -3.82,3.13 -7.64,6.28 -10.98,9.95 -4.33,4.86 -10.58,7.31 -15.2,11.84 -6.61,6.54 -16.15,8.18 -23.65,13.36 -9.31,6.44 -21.03,7.01 -31.02,11.95 -5.36,2.56 -11.17,5.2 -14.78,10.12 -3.61,6.01 -1.2,13.21 -0.52,19.67 1.75,7.92 -2.07,15.97 0.15,23.84 2.02,5.3 7.11,8.96 12.4,10.54 11.12,0.85 22.39,-0.8 33.44,0.97 5.52,0.63 9.39,5.03 12.84,8.95 1.88,2.43 4.31,4.82 4.78,7.98 0.36,8.23 -0.73,16.54 0.56,24.72 0.81,5.3 0.08,10.71 0.94,16.02 1.32,7.66 -1.61,15.32 -0.08,22.99 1.23,6 -0.62,11.98 -0.43,18.01 0.15,33.33 -0.02,66.67 0.07,100.01 1.64,15.6 0.57,31.33 0.97,46.99 0.36,6.23 -2.15,12.5 -0.25,18.65 0.85,2.88 1.77,5.93 3.81,8.22 3.86,3.12 9.02,3.89 13.86,3.7 26.7,-0.27 53.39,-0.08 80.09,-0.07 4.28,0.09 9.16,-0.97 11.89,-4.55 2.63,-4.48 2.57,-9.89 2.62,-14.92 -0.05,-4.36 0.9,-8.64 0.86,-12.99 0.01,-53.35 -0.07,-106.69 0.04,-160.04 -0.17,-9.7 0.23,-19.42 -0.69,-29.09 -0.04,-4.31 0.84,-8.58 0.67,-12.89 0.07,-49.67 -0.05,-99.33 0,-149 -0.06,-6.95 -4.44,-14.35 -11.6,-15.84 -8.05,-1.46 -16.3,-1.78 -24.42,-0.74 M 416.45,771.75 c -9.42,1.46 -18.97,0.6 -28.45,0.73 -28,0.04 -56,0.03 -84,0.03 -5.03,0.14 -9.97,-1.11 -15,-1.01 -4.69,-0.09 -9.3,1.06 -13.99,1.01 -42.34,-0.03 -84.68,0.12 -127.02,-0.12 -6.65,-0.94 -13.34,-0.98 -19.98,0 -27.31,0.21 -54.62,-0.03 -81.93,0.14 -6.21,-0.02 -9.39,7.21 -9.59,12.57 -0.04,39.3 0.03,78.61 0.03,117.91 0.11,5.7 -1.46,11.31 -0.92,17.03 0.57,5.98 2.31,11.85 1.95,17.92 -0.38,6.26 0.47,12.61 3.1,18.36 3.58,7.9 6.71,16.7 13.95,22.07 6.88,4.84 15.22,6.83 23.32,8.58 6.96,1.46 13.87,4.09 21.09,3.36 5.33,-0.56 10.64,-1.26 15.99,-1.58 6.02,0.2 11.98,1.32 18,1.51 5.65,-0.48 11.31,-0.92 16.96,-1.57 8.4,-0.77 16.65,2.69 25.04,1.32 6.69,-1.1 13.49,-0.51 20.17,0.33 13.28,0.33 26.56,-0.26 39.83,0.05 6.34,0.31 12.58,-1.52 18.92,-0.76 7.97,1.26 16.05,0.57 24.08,0.76 7.39,-0.04 14.85,0.53 22.18,-0.65 4.6,-0.54 9.24,-0.43 13.85,-0.2 9.6,1.15 19.37,1.29 28.98,0.05 10.58,-0.74 21.09,1.38 31.65,1.53 10.45,-1.08 21.04,-1.06 31.47,0.16 3.97,0.22 7.87,-0.8 11.83,-0.8 7.01,0.04 13.95,-1.64 20.97,-0.88 5.08,0.7 10.19,0.98 15.28,1.62 5.62,0.68 11.15,-1 16.78,-0.89 29.67,0.13 59.34,0.02 89.01,0.04 6.62,-0.18 13.17,1.66 19.8,0.82 9.67,-1.4 19.47,-0.71 29.2,-0.79 9.06,0.24 18.2,-0.62 27.2,0.81 8.11,0.62 16.29,0.27 24.28,-1.29 9.17,-1.77 18.33,0.92 27.53,0.57 14.66,0 29.32,-0.05 43.99,-0.21 49.33,0.4 98.67,-0.21 148,0.22 12.9,-0.29 25.82,0.33 38.71,-0.28 9.69,-1.53 19.53,-2.27 29.06,-4.71 10.18,-2.49 18.67,-9.59 24.74,-17.92 5.91,-8.56 6.06,-19.28 7.77,-29.16 0.64,-5.15 1.9,-10.23 2.14,-15.41 0.1,-46.68 -0.08,-93.35 0.13,-140.02 0.22,-4.65 -3.83,-8.07 -7.61,-9.98 -9.59,-4.15 -20.02,0.98 -29.94,-0.87 -6.33,-1.36 -12.66,1.04 -19,0.09 -5.31,-0.89 -10.7,-0.84 -15.99,-0.01 -8.66,0.52 -17.34,-0.01 -26,0.27 -6.72,0.28 -13.3,-1.31 -19.97,-1.61 -9.36,0.4 -18.68,2.58 -28.06,1.31 -12.31,-1.92 -24.7,0.13 -36.99,1.13 -4.69,0.21 -9.3,-1.01 -13.99,-0.82 -9.33,0.17 -18.71,-0.46 -27.99,0.81 -10.67,0.35 -21.34,0.01 -32.01,0.13 -5.37,0.14 -10.66,-1.27 -16.03,-0.8 -10.92,1.15 -22.08,1.52 -32.88,-0.76 -7.31,-0.87 -14.77,-0.7 -22.05,0.4 -5.5,0.6 -11.03,0.16 -16.49,-0.59 -7.85,-0.41 -15.73,-0.14 -23.59,-0.17 -5.02,-0.1 -9.95,1.08 -14.96,0.97 -25.66,-0.03 -51.33,0.03 -77,0.03 -11.33,-0.26 -22.73,0.69 -33.99,-0.86 -5.37,-0.63 -10.65,0.89 -16,0.86 -6.36,0.26 -12.61,-1.31 -18.97,-1.02 -12.19,0.13 -24.4,-0.15 -36.59,0.24 z"
       id="path896"
       sodipodi:nodetypes="cccccccccccccccccccccccccccccccccccccccccccccccccccccccccccccccccccccsccccccccccccccccccccccccccccccccccccccccccccccccccccccccccccccccccccccccccccccccccccccccccccccccccccccccccccccccccccccccccccccccccccccccccccccccccccccccccccccccccccccccccccccccccccccccccccccccccccccccccccccccccccccccccccccccccccccccccccccccccccccccccccccccccccccccccccccc" />
    <path
       fill="#000000"
       opacity="1.00"
       d=" M 377.38 103.39 C 384.21 102.58 391.13 102.82 398.00 103.07 C 402.37 103.52 406.42 105.50 410.75 106.23 C 420.32 108.47 429.11 113.31 437.12 118.90 C 450.59 129.47 460.52 144.41 465.20 160.87 C 469.27 170.38 468.60 180.94 469.92 191.01 C 468.64 201.30 469.45 211.96 465.98 221.90 C 463.28 232.67 457.73 242.48 451.61 251.65 C 447.23 256.56 442.52 261.21 437.61 265.59 C 432.41 269.10 427.24 272.81 421.53 275.45 C 416.82 276.45 412.42 278.48 407.77 279.69 C 402.60 280.28 397.43 280.81 392.26 281.40 C 387.34 282.33 382.43 280.90 377.54 280.47 C 373.16 279.62 368.43 280.74 364.32 278.67 C 358.96 276.27 353.01 275.24 348.07 271.92 C 343.01 268.39 337.33 265.48 333.42 260.59 C 330.58 257.12 327.20 254.12 324.44 250.58 C 318.38 242.04 313.53 232.62 310.52 222.58 C 309.79 218.67 309.31 214.71 308.10 210.90 C 306.27 205.44 307.21 199.62 306.89 193.98 C 307.09 186.28 306.18 178.37 308.93 171.00 C 311.20 156.86 317.41 143.48 326.26 132.27 C 331.70 124.40 339.48 118.46 347.62 113.61 C 356.86 108.53 367.08 105.48 377.38 103.39 M 378.49 131.55 C 371.95 133.76 365.27 136.33 360.30 141.33 C 353.42 147.28 349.23 155.61 346.05 163.97 C 344.45 171.60 341.39 179.06 341.97 186.99 C 342.29 193.68 341.18 200.54 342.94 207.09 C 344.54 212.31 345.04 217.84 347.07 222.93 C 352.10 233.46 359.15 244.04 370.31 248.72 C 378.48 252.93 388.04 253.20 396.97 251.92 C 408.36 249.73 418.37 242.22 424.30 232.31 C 429.36 223.89 433.06 214.45 433.55 204.55 C 434.34 193.82 434.51 182.92 432.69 172.27 C 429.58 157.20 421.05 142.25 406.93 135.12 C 401.84 133.15 396.64 130.79 391.05 130.95 C 386.87 131.00 382.59 130.59 378.49 131.55 Z"
       id="path898" />
    <path
       fill="#000000"
       opacity="1"
       d="m 570.39,104.44 c 2.91,-0.42 5.76,0.88 8.54,1.6 3.3,0.87 6.55,2.8 8,6.02 0.8918,42.80743 3.45554,85.29822 0.69,124.54 -1.66,18.85 -15.33,35.72 -33.07,41.97 -9.17,2.55 -18.85,2.97 -28.3,2.17 -18.68,-1.31 -34.51,-14.91 -42.92,-31 -1.97,-6.56 -5.35,-13.79 -2.12,-20.53 1.72,-5.64 7.2,-8.82 12.43,-10.65 4.41,-1.76 8.61,1.58 12.46,3.31 6.05,6.62 6.52,16.66 13.08,22.95 8.05,8.49 23.38,8.38 31.06,-0.53 4.42,-6.2 5.16,-14.02 5.18,-21.42 -0.92302,-33.23791 -0.56367,-64.98145 -0.43,-95.9 -0.01,-4.88 0.71,-9.72 1.41,-14.54 2.88,-5.07 8.61,-6.91 13.99,-7.99 z"
       id="path900"
       sodipodi:nodetypes="cccccccccccccccc" />
    <path
       fill="#000000"
       opacity="1"
       d="m 752.16,107.19 c 3.52,-1.22 7.12,-2.48 10.82,-2.98 6.21,0.81 12.8,1.92 17.74,6.1 5.11,3.97 8.56,9.63 11.85,15.12 12.18,20.86 23.66,42.14 36.17,62.81 5.48,10.41 12.17,20.14 17.32,30.73 1.04,1.98 2.36,3.81 3.89,5.45 0.5,-0.44 1.5,-1.3 1.99,-1.74 0.34,-4.25 -0.99,-8.39 -0.94,-12.64 -0.04,-22.68 0.1,-45.37 -0.08,-68.05 0.12,-10.17 -2.58,-20.57 0.47,-30.55 2.96,-5.15 9.46,-5.97 14.74,-7.14 6.78,0.5 14.65,4.37 15.81,11.75 0.02,145.95 0,0 0.02,145.95 -1.03,7.9 -6.45,15.31 -14.15,17.83 -5.47,0.51 -11.49,0.86 -16.28,-2.32 -9.19,-4.87 -13.67,-14.8 -18.53,-23.45 -14.45,-24.91 -29.31,-49.6 -43.3,-74.75 -6.06,-10.13 -11.67,-20.52 -17.96,-30.51 -1.71347,-0.46628 -2.54133,0.17446 -2.56,2.5 1.84,115.76 0,0 1.84,115.76 0.32,6.14 -4.88,10.87 -10.27,12.76 -3.83,0.42 -7.74,0.46 -11.56,0.02 -3.84,-0.98 -6.77,-4.04 -8.77,-7.33 -2.27,-7.3 -1.2,-15 -1.42,-22.51 -0.14,-17.48 0.41,-34.98 -0.54,-52.44 0.98,-18.84 0.39,-37.71 0.54,-56.56 -0.21,-7.23 0.14,-14.47 1.43,-21.59 2.13,-5.41 6.7,-9.51 11.73,-12.22 z"
       id="path902"
       sodipodi:nodetypes="ccccccccccccccccccccccccccccc" />
    <path
       fill="#000000"
       opacity="1"
       d="m 663.16,106.63 c 11.28,0.63 22.58,0.27 33.87,0.37 3.43,-0.18 6.24,2.22 8.19,4.79 3.03,6.08 2.31,14.82 -3.91,18.61 -6.55,2.32 -13.51,-0.37 -20.22,0.84 2.70225,37.6254 0.21435,89.234 0.08,121.34 5.25,0.82 10.57,0.22 15.86,0.42 4.64,-0.02 8.89,4 9.46,8.55 1.41,5.57 -0.33,12.61 -5.92,15.11 -2.63,0.53 -5.31,1.28 -8.01,0.94 -6.82,-0.93 -13.71,-0.55 -20.56,-0.61 -11.03,0.08 -22.06,-0.14 -33.08,0.11 -4.9,0.23 -10.67,1.17 -14.72,-2.3 -4.49,-3.71 -3.48,-10.26 -2.87,-15.36 1.69,-2.33 3.78,-4.42 6.11,-6.12 6.31,-1.02 12.83,0.53 19.1,-0.99 -0.42011,-39.1699 5.82307,-84.31027 0.58,-119.06 -0.53,-2.87 -3.96,-2.17 -6.08,-2.31 -5.39,-0.29 -11.56,1.7 -16.3,-1.72 -5.01,-3.57 -4.12,-10.5 -3.41,-15.8 1.94,-2.36 3.99,-5.18 6.89,-6.28 11.63,-0.53 23.31,0.27 34.94,-0.53 z"
       id="path904"
       sodipodi:nodetypes="cccccccccccccccccccccc" />
    <path
       fill="#000000"
       opacity="1"
       d="m 152.39,107.41 c 6.47,-0.98 13.08,-0.13 19.61,-0.43 10.01,-0.59 20.01,0.34 30.02,-0.03 6.8,-0.49 13.03,2.84 19.72,3.32 10.5,2.23 20.26,7.07 29.42,12.58 13.55,9.84 23.93,24.14 28.71,40.21 1.1,5.72 3.41,11.16 4.07,16.96 0.23,8 0.16,16.02 0.06,24.03 0.03,2.52 -0.86,4.9 -1.67,7.25 -1.82,4.83 -1.61,10.25 -4.17,14.84 -3.61,9.29 -8.59,18.22 -15.87,25.14 -4.25,4.11 -8.12,8.78 -13.39,11.64 -5.85,3.26 -11.64,6.94 -18.11,8.83 -4.86,0.63 -9.33,2.71 -14.01,4 -6.61,0.6 -13.3,-0.16 -19.87,1.08 -14.26,0.4 -28.54,0.32 -42.79,0.04 -8.59,-0.29 -17.02,-5.72 -20.1,-13.83 -1.39,-6.94 -3.44,-13.89 -3.06,-21.04 -0.073,-35.26592 -0.20472,-70.26996 0.04,-103.04 0.14,-4.99 1.48,-9.84 2.26,-14.74 0.55,-3.51 2.86,-6.31 4.88,-9.09 3.53,-4.36 9.1,-6.08 14.25,-7.72 m 14.12,28.21 c -1.63,5.3 -1.42,10.9 -1.5,16.38 -0.01,28.01 -0.02,56.03 0,84.05 0.11,4.12 -0.1,8.39 1.45,12.29 6.1,1.3 12.37,0.43 18.54,0.67 7.89,0.21 15.8,-0.14 23.57,-1.54 3.33,-0.85 6.5,-2.2 9.81,-3.12 6.83,-2.06 11.89,-7.32 17.23,-11.75 3.96,-5.66 9,-11.12 9.83,-18.29 3.81,-9.28 3.85,-19.46 3.53,-29.34 -1.29,-15.88 -9.09,-31.34 -21.97,-40.91 -3.94,-2.16 -7.87,-4.54 -12.23,-5.75 -8.93,-1.08 -17.71,-3.73 -26.78,-3.33 -7.15,0.28 -14.4,-0.64 -21.48,0.64 z"
       id="path906"
       sodipodi:nodetypes="cccccccccccccccccccccccccccccccccccc" />
    <path
       fill="#000000"
       opacity="1.00"
       d=" M 742.36 425.13 C 745.49 423.19 749.21 425.40 750.76 428.31 C 753.10 432.78 753.82 438.03 753.23 443.02 C 751.44 454.93 753.60 467.04 751.90 478.96 C 751.38 482.87 751.65 487.09 749.67 490.66 C 747.99 493.73 743.42 494.56 740.79 492.24 C 737.55 489.89 736.63 485.73 735.92 482.03 C 734.64 474.79 733.80 467.35 734.99 460.03 C 736.15 453.06 735.12 446.00 735.39 438.99 C 734.85 433.61 737.43 427.66 742.36 425.13 Z"
       id="path908" />
    <path
       fill="#000000"
       opacity="1.00"
       d=" M 289.35 440.01 C 290.60 439.15 292.39 439.14 293.56 440.18 C 296.60 442.20 297.96 445.80 298.90 449.18 C 301.50 458.23 300.17 467.72 300.49 476.99 C 300.69 484.05 299.60 492.07 293.95 496.97 C 291.76 499.31 287.13 499.48 285.64 496.28 C 281.30 487.98 285.96 478.72 285.24 470.00 C 284.21 462.88 284.26 455.66 284.46 448.49 C 284.48 445.06 286.38 441.73 289.35 440.01 Z"
       id="path910" />
    <path
       fill="#000000"
       opacity="1.00"
       d=" M 741.30 580.08 C 743.33 579.04 745.76 579.31 747.97 579.54 C 750.28 580.45 751.60 582.83 752.29 585.11 C 753.10 590.87 752.08 596.73 752.91 602.50 C 753.43 605.90 753.63 609.37 753.12 612.79 C 752.30 618.09 752.45 623.49 752.66 628.83 C 753.84 637.75 753.91 646.83 753.05 655.78 C 751.92 662.70 753.70 670.05 750.79 676.66 C 749.65 679.57 746.37 682.09 743.16 681.31 C 738.17 678.95 734.39 673.67 734.43 668.07 C 734.15 658.71 735.02 649.29 733.74 639.98 C 733.03 629.98 734.22 619.90 732.74 609.95 C 732.93 603.84 734.74 597.88 735.28 591.79 C 735.56 587.32 736.96 582.22 741.30 580.08 Z"
       id="path912" />
    <path
       fill="#000000"
       opacity="1.00"
       d=" M 602.41 810.28 C 605.43 808.58 609.54 809.88 611.14 812.92 C 613.75 817.18 614.80 822.85 619.38 825.57 C 625.67 827.69 632.48 827.60 638.99 826.65 C 648.72 826.36 658.54 826.19 668.18 827.83 C 671.82 828.47 675.64 830.19 677.37 833.67 C 678.72 836.54 679.58 839.76 679.26 842.97 C 678.14 851.25 678.13 859.71 679.29 867.99 C 680.14 874.36 678.26 880.63 678.50 887.00 C 678.68 893.99 678.29 901.01 678.81 908.00 C 680.02 917.52 680.45 927.81 675.62 936.47 C 672.88 942.07 667.81 946.43 661.77 948.07 C 655.39 950.22 648.57 949.02 642.03 950.19 C 637.04 950.63 631.13 951.66 627.09 947.91 C 624.11 945.40 623.95 941.17 624.56 937.62 C 625.98 934.91 629.02 933.34 631.91 932.70 C 637.20 931.91 642.64 933.19 647.86 931.79 C 653.38 930.61 658.36 927.08 661.19 922.18 C 663.04 919.12 662.49 915.39 662.63 911.99 C 662.34 894.98 662.54 877.96 662.48 860.95 C 662.00 852.95 655.73 844.22 647.07 844.45 C 637.36 844.42 627.66 844.61 617.96 844.49 C 614.49 844.53 611.16 843.53 607.80 842.89 C 602.20 841.68 596.65 844.00 591.02 843.53 C 585.57 843.83 579.72 842.35 574.60 844.78 C 569.93 847.49 567.14 852.85 566.56 858.11 C 566.03 876.73 567.22 895.39 565.94 913.97 C 567.07 924.07 568.74 934.58 565.44 944.46 C 563.11 950.62 553.33 951.75 549.97 946.00 C 547.16 941.95 547.21 936.80 547.73 932.12 C 548.44 927.42 550.10 922.75 549.28 917.95 C 548.21 912.04 548.18 905.97 549.04 900.03 C 550.11 894.34 547.86 888.69 548.66 882.98 C 549.91 874.39 549.94 865.61 548.74 857.02 C 547.95 850.41 549.36 843.83 549.53 837.23 C 549.25 833.28 552.70 830.34 556.10 829.11 C 562.13 826.70 568.74 827.98 575.01 826.95 C 579.56 826.20 584.62 827.38 588.75 824.85 C 594.85 821.47 595.51 812.67 602.41 810.28 Z"
       id="path914" />
    <path
       fill="#000000"
       opacity="1.00"
       d=" M 230.68 812.74 C 233.36 809.81 238.80 809.38 241.26 812.81 C 245.36 818.55 242.71 826.98 247.80 832.21 C 251.15 834.90 257.35 835.90 260.26 832.12 C 261.30 827.07 258.95 821.00 262.77 816.79 C 266.31 812.78 272.80 814.39 276.22 817.76 C 280.02 821.62 281.21 827.14 283.03 832.08 C 284.23 835.88 286.19 839.80 285.36 843.89 C 283.87 846.97 280.39 848.69 277.04 848.50 C 270.17 848.33 263.36 849.31 256.51 849.65 C 252.29 849.92 248.11 852.36 246.32 856.28 C 243.63 861.74 244.55 868.02 244.48 873.89 C 244.74 877.82 245.65 883.22 250.07 884.45 C 256.92 883.52 260.71 877.04 263.70 871.51 C 265.89 866.94 271.05 864.28 276.01 864.41 C 278.60 864.26 280.33 866.63 281.55 868.60 C 283.65 872.10 281.93 876.26 280.55 879.69 C 278.70 885.11 271.75 886.20 269.68 891.49 C 267.62 896.28 266.22 901.59 262.30 905.30 C 258.07 909.47 253.49 914.54 254.36 920.99 C 253.56 926.54 259.19 932.55 264.83 930.04 C 271.20 927.86 272.10 920.45 275.57 915.61 C 278.60 912.10 283.91 913.49 287.29 915.72 C 291.58 918.34 292.57 924.21 290.71 928.63 C 288.54 933.80 284.18 937.64 281.81 942.72 C 279.73 947.04 276.99 951.62 272.21 953.31 C 269.22 953.80 265.99 954.02 263.09 953.02 C 256.27 949.82 252.55 942.55 245.82 939.22 C 243.03 937.63 239.72 937.00 236.55 937.60 C 231.05 941.07 228.76 948.16 222.59 950.80 C 219.78 952.56 216.82 950.03 214.95 948.04 C 211.60 944.58 212.07 939.34 212.74 934.97 C 214.88 929.48 221.57 928.86 225.86 925.74 C 233.73 919.85 238.08 908.91 234.43 899.44 C 231.53 892.31 229.55 884.73 229.52 877.00 C 229.48 870.19 229.02 863.30 227.17 856.72 C 226.01 853.51 223.80 849.54 219.91 849.55 C 213.91 849.31 207.89 849.42 201.94 850.24 C 195.63 850.93 189.38 846.85 183.16 849.14 C 178.29 851.44 172.89 856.33 174.70 862.31 C 176.56 866.01 180.40 868.61 184.42 869.40 C 191.37 869.96 198.36 868.95 205.31 869.58 C 210.24 870.10 214.71 873.95 215.28 879.01 C 216.16 889.97 215.18 901.01 214.07 911.90 C 211.91 917.72 209.98 924.07 205.62 928.66 C 200.33 933.33 192.71 933.06 186.17 932.11 C 180.65 931.22 176.92 926.21 171.48 925.32 C 167.43 930.79 166.83 937.75 164.53 943.97 C 163.61 946.88 160.68 948.44 157.97 949.36 C 153.12 949.71 148.52 945.79 148.51 940.82 C 147.97 934.83 148.95 928.69 151.56 923.26 C 155.84 914.57 155.04 904.60 156.54 895.27 C 157.74 888.43 157.64 881.48 157.48 874.56 C 157.25 868.39 159.55 862.24 158.02 856.12 C 157.24 852.00 155.45 847.55 157.45 843.51 C 159.43 838.42 164.89 836.00 169.91 835.02 C 181.20 832.51 192.68 835.41 204.05 835.14 C 210.11 834.12 217.03 835.16 222.23 831.26 C 227.23 826.25 225.89 817.91 230.68 812.74 M 183.72 884.78 C 177.46 887.05 173.60 893.61 173.45 900.10 C 173.35 905.95 172.64 912.58 176.63 917.43 C 183.99 918.37 192.13 915.73 196.51 909.51 C 201.60 902.18 199.59 890.87 192.02 886.01 C 189.67 884.21 186.49 884.10 183.72 884.78 Z"
       id="path916" />
    <path
       fill="#000000"
       opacity="1.00"
       d=" M 415.39 811.38 C 418.42 811.12 422.12 811.19 423.93 814.11 C 428.23 820.68 425.71 828.73 425.06 835.94 C 423.57 844.55 425.34 853.25 427.44 861.59 C 429.25 868.45 433.49 874.26 436.28 880.71 C 438.94 886.79 441.70 892.92 445.82 898.19 C 450.21 903.77 454.37 909.57 459.23 914.76 C 465.22 921.12 473.87 923.90 480.25 929.75 C 483.83 932.57 483.23 938.25 480.49 941.46 C 477.84 944.77 474.17 948.75 469.45 947.50 C 458.51 944.36 451.52 934.87 443.55 927.45 C 441.36 925.34 439.51 922.91 437.84 920.39 C 435.22 916.42 431.91 912.94 429.58 908.79 C 427.00 903.65 426.14 897.80 423.24 892.80 C 421.77 890.28 418.27 889.16 415.71 890.67 C 411.93 892.09 409.87 895.80 407.81 899.03 C 402.43 907.51 397.96 916.70 391.31 924.29 C 383.34 931.32 375.97 939.07 367.31 945.28 C 362.67 948.50 355.67 949.92 351.06 945.92 C 347.31 941.36 347.21 933.17 352.69 929.84 C 361.01 924.67 367.95 917.71 375.20 911.20 C 380.38 906.37 385.22 901.04 388.54 894.74 C 392.10 888.03 397.44 882.33 400.07 875.14 C 403.88 865.07 403.42 854.12 405.63 843.70 C 407.60 835.03 405.33 825.88 408.27 817.38 C 409.31 814.33 412.00 811.47 415.39 811.38 Z"
       id="path918" />
    <path
       fill="#000000"
       opacity="1.00"
       d=" M 826.37 815.15 C 831.94 812.39 837.71 817.16 839.96 822.10 C 843.96 829.77 841.22 838.83 844.42 846.71 C 845.51 849.38 848.12 851.74 851.16 851.54 C 856.61 851.68 861.49 848.18 866.95 848.57 C 869.59 849.32 872.45 850.90 873.44 853.63 C 873.77 856.09 874.16 859.24 871.96 860.98 C 866.06 866.62 856.87 864.93 850.47 869.48 C 845.16 875.18 845.41 883.68 845.55 890.97 C 845.95 898.37 844.40 905.65 843.00 912.88 C 841.76 918.24 839.09 923.12 837.31 928.31 C 835.10 934.49 832.69 941.22 827.27 945.33 C 822.28 948.86 816.07 943.82 814.50 938.96 C 813.77 932.29 818.46 926.86 821.29 921.26 C 824.49 915.52 825.61 908.97 826.42 902.53 C 827.08 896.27 830.11 890.39 829.61 884.00 C 829.94 877.82 825.57 870.56 818.86 870.45 C 811.60 869.81 805.24 874.78 798.03 874.42 C 792.83 873.84 786.91 871.35 785.18 865.97 C 786.33 862.34 790.23 860.75 793.38 859.22 C 802.28 854.77 813.21 857.21 821.66 851.58 C 825.85 849.07 827.21 843.50 825.88 839.01 C 824.85 833.20 820.93 828.03 821.46 821.97 C 821.62 818.99 823.90 816.58 826.37 815.15 Z"
       id="path920" />
    <path
       fill="#000000"
       opacity="1.00"
       d=" M 755.76 833.11 C 758.22 824.29 773.25 823.71 775.49 833.02 C 774.70 838.47 771.54 843.37 771.49 848.96 C 771.36 854.83 771.80 860.70 771.39 866.57 C 770.01 876.71 772.13 886.89 773.37 896.95 C 773.87 901.87 772.77 907.01 774.53 911.76 C 775.99 916.06 778.04 920.35 777.63 925.03 C 777.95 930.01 774.74 934.91 770.00 936.51 C 763.69 934.56 759.79 928.64 758.16 922.54 C 755.77 915.58 756.53 908.16 756.45 900.95 C 756.50 896.42 755.63 891.96 755.12 887.48 C 754.14 881.70 754.55 875.82 754.44 870.00 C 754.48 863.12 754.03 856.19 755.08 849.37 C 755.85 843.97 754.82 838.48 755.76 833.11 Z"
       id="path922" />
    <path
       fill="#000000"
       opacity="1.00"
       d=" M 593.35 863.20 C 597.12 862.07 601.13 862.53 605.01 862.44 C 613.69 862.65 622.38 862.30 631.06 862.46 C 636.50 862.62 642.71 864.69 645.18 869.98 C 648.04 874.95 645.62 880.69 645.54 885.99 C 645.11 893.61 646.56 901.52 644.03 908.88 C 642.48 913.30 637.27 914.88 633.00 914.56 C 626.96 914.23 621.02 915.69 614.98 915.53 C 611.19 915.65 607.15 914.95 603.63 916.71 C 599.46 918.51 596.29 922.15 591.93 923.52 C 587.27 924.12 584.08 919.19 583.59 915.10 C 583.11 906.76 583.29 898.35 584.38 890.06 C 585.06 884.00 581.47 878.21 582.71 872.19 C 584.73 867.86 588.85 864.65 593.35 863.20 M 611.33 875.55 C 606.20 876.05 601.24 879.15 598.95 883.83 C 596.27 891.91 603.11 902.40 612.00 901.64 C 619.69 902.21 626.91 897.10 630.27 890.41 C 630.79 887.65 631.08 884.27 628.74 882.24 C 624.24 877.75 617.64 875.39 611.33 875.55 Z"
       id="path924" />
    <path
       fill="#000000"
       opacity="1"
       d="m 898.99,26.47 c 13.54245,0.393777 25.03049,-1.935734 37.40098,0.222798 C 944.70196,27.726575 951.92,29.26 959.35,32.5 c 5.94,2.62 12.12,4.91 17.49,8.64 7.49,5.64 12.21,14.11 15.56,22.7 2.61,6.95 3.13,14.47 5.49,21.51 2.54,7.43 2.15,15.48 1,23.13 -1.55,7.86 3.08,15.44 1.24,23.32 -1.95,9.44 1.31,18.94 -0.4,28.38 -0.4,11.32 -0.17,22.66 -0.06,33.98 1.26,12.92 -0.16,25.96 1.52,38.85 0.62,5.67 -0.77,11.29 -0.73,16.96 -0.15,28.02 -0.08,56.05 -0.12,84.08 -0.48,5.97 -1.21,11.93 -0.97,17.95 -0.18555,134.01036 0.0806,261.01213 0.08,385 0.09,15.65 -0.69,31.36 0.92,46.95 0.12,34.02 0.03,68.05 0.09,102.07 -0.21,4.43 1.23,8.82 0.42,13.23 -1.53,10.8 0.76,21.73 -0.83,32.53 -1.07,6.77 0.25,13.74 -1.46,20.44 -2.07,8.36 -5.58,16.27 -8.84,24.22 -3.58,9.87 -11.69,17.51 -20.81,22.37 -6.98,4.19 -14.9,6.58 -22.93,7.62 -21.94,2 -44.01,0.92 -66.01,1.27 -35.34,-0.14 -70.67,-0.06 -106,-0.06 -5.67,0.17 -11.32,1.14 -17,0.59 -9.97,-1.13 -20.03,-0.62 -30.03,-0.55 -9.29,1.02 -18.64,0.63 -27.97,0.73 -48,-0.04 -96.01,-0.02 -144.01,0 -6.34,-0.12 -12.66,-1.47 -18.99,-0.45 -7.32,1.09 -14.68,0.06 -21.99,-0.37 -14.67,0 -29.34,0.1 -44.01,0.06 -18.66,0.28 -37.33,-0.38 -56,0.06 -16.33,0.04 -32.66,-0.17 -49,0.01 -19.68,-0.2 -39.38,0.24 -59.03,-0.95 -21.26,2.27 -42.69,-0.3 -63.96,1.55 -6.67,0.1 -13.37,0.36 -20.01,-0.5 -4.35,-0.58 -8.68,0.24 -13,0.57 -9,0.35 -18.01,0.2 -26.99,-0.4 -8.67,0.85 -17.36,0.43 -26,-0.36 -9.98,0.8 -20.01,1.11 -30,0.33 -20.35,-1.21 -40.97,1.6 -61.13,-2.22 -8.9,-1.39 -16.36,-6.65 -24.27,-10.52 -7.6,-4.07 -11.09,-12.41 -15.17,-19.52 -4.53,-9.85 -6.79,-20.84 -5.89,-31.68 0.75,-858.01 0,0 0.75,-858.01 -0.07,-7.92 1.49,-15.72 3.8,-23.26 1.89,-5.3 5.51,-9.72 8.18,-14.63 2.27,-4.28 6.54,-6.78 10.58,-9.13 4.65,-2.61 8.51,-6.92 14.02,-7.73 7.35,-1.34 14.54,-3.68 22.04,-4.04 m 12.779726,16.29 c 0,0 -14.599725,2.293591 -24.087769,6.350489 C 62.14226,52.199222 51.98,59.83 51.98,59.83 l -7.11,8.27 c -1.74,5.38 -3.68,10.67 -5.82,15.9 -2.14,253.31 0,0 -2.14,253.31 1.63,2.9 4.41,5.69 8.03,5.19 635.06,-1.81 0,0 635.06,-1.81 6.54,0.86 13.32,0.56 19.59,2.92 -0.02,1.28 -0.03,2.55 -0.05,3.84 -5.12,3.61 -11.59,3.9 -17.43,5.63 -5.66,1.37 -10.96,3.96 -15.69,7.35 -5.38,3.91 -11.79,6.66 -15.94,12.05 -3.06,3.91 -6.28,7.7 -9.6,11.4 -4.6,5.26 -7.05,11.89 -9.65,18.28 -2.02,5.21 -3.86,10.51 -5.25,15.93 -3.72,12.6 -4,25.89 -3.21,38.91 1.28,8.4 0.35,16.89 0.75,25.33 0.22,5.91 3.33,11.1 5.79,16.32 2.03,4.12 3.13,8.65 5.39,12.67 2.9,5.07 8.53,8.16 10.62,13.75 1.09,4.98 -1.99,9.56 -5.16,13.08 -3.16,3.4 -5.58,7.38 -7.63,11.53 -2.95,6.09 -7.58,11.49 -8.79,18.32 -1.51,9.96 -0.85,20.1 -3.05,29.97 -0.42,17 -0.09,34.02 -0.22,51.03 -0.3,10.06 2.24,19.94 2.02,29.99 -0.12,3.99 0.56,7.94 1.49,11.82 1.29,5.2 4.48,9.63 6.46,14.57 1.81,4.32 3.16,9.14 6.81,12.35 3.3,3.05 6.58,6.18 9.08,9.96 2.19,3.42 5.32,6.08 8.76,8.19 5.09,3.13 9.06,7.78 14.4,10.56 6.04,3.15 11.9,7.09 18.78,8.16 7.85,1.29 15.7,2.92 23.69,3.15 10.95,1.52 22.06,0.04 33.03,1.46 5.68,0.02 11.33,-0.99 17.04,-0.68 9.34,0.45 18.48,-1.8 27.69,-2.98 10.27,-1.33 20.36,-4.41 29.46,-9.37 5.27,-2.8 8.86,-7.78 13.85,-10.95 3.78,-2.56 8.48,-4.08 11.09,-8.06 3.03,-4.62 5.92,-9.33 9.37,-13.66 5.46,-6.92 6.91,-15.85 8.54,-24.26 2.31,-14.66 3.21,-29.48 4.42,-44.24 0.09,-11.68 0.14,-23.35 0.01,-35.02 -1.28,-11.81 -1.24,-23.82 -4.13,-35.41 -1.95,-7.93 -1.19,-16.84 -6.18,-23.75 -4.03,-5.49 -8.04,-11.3 -13.96,-14.91 -2.71,-1.83 -6.68,-3.95 -5.72,-7.86 2.04,-4.51 6.55,-7.21 9.23,-11.3 2.78,-4.18 6.12,-7.9 9.47,-11.62 4.91,-5.35 4.53,-13.07 6.16,-19.72 1.86,-7.35 0.74,-14.98 1.97,-22.41 0.28,-9.85 0.78,-19.82 -0.96,-29.57 -1.45,-8.34 -1.68,-16.88 -3.78,-25.09 -1.81,-7.7 -7.43,-13.68 -10.04,-21.08 -2.4,-6.65 -8.33,-10.83 -12.85,-15.93 -2.85,-3.18 -6.05,-6.11 -9.91,-8 -6.64,-3.28 -12.38,-8.43 -19.68,-10.29 -4.55,-1.48 -9.7,-1.64 -13.7,-4.49 -1.62,-1.09 -0.79,-3.18 -0.77,-4.75 6.81,-3.25 14.53,-2.39 21.83,-2.26 7.19,0.38 14.33,2.62 21.57,1.47 3.66,-0.67 7.31,0.35 10.98,0.42 8.66,0.24 17.23,-2.72 25.89,-1.36 3.68,0.51 7.4,0.42 11.11,0.43 15.34,0.05 30.68,-0.12 46.02,-0.05 6.01,-0.09 11.97,1.73 17.99,0.75 3.92,-0.68 7.93,-0.83 11.87,-0.08 6.1,0.75 13.18,1.23 18.15,-3.12 4.79,-3.77 6,-10.21 5.58,-15.98 0.61,-11.66 -2.57,-23.28 -0.35,-34.89 0.82,-15.03 -0.27,-30.11 0.6,-45.14 0.46,-3.34 -0.08,-6.68 -0.22,-10.01 -0.25,-23.3 -0.03,-46.59 -0.28,-69.88 0.04,-6.24 1.89,-12.4 0.89,-18.65 -1.89,-10.11 0.37,-20.45 -1.43,-30.56 -1.25,-6.64 1.97,-13.32 0.04,-19.9 -1.55,-5.84 -3.16,-11.66 -4.58,-17.53 -1.21,-3.93 -1.77,-8.38 -4.83,-11.4 -1.61,-2.31 -5,-3.05 -5.46,-6.18 -1.81,-1.57 -2.52,-4.12 -4.79,-5.17 -5.16,-3.03 -10.55,-5.97 -16.49,-7.1 -7.65,-1.51 -15.37,-2.6 -23.04,-3.99 -9.11,-1.85 -18.44,-0.82 -27.66,-0.99 -9.67,0.23 -19.42,-0.84 -29.01,0.7 C 860.3,44.05 854.65,43 849.01,42.6 M 213,352.77 c -7.65,-0.57 -15.34,0.18 -23.01,-0.18 -6.33,0.11 -13.73,1.12 -17.65,6.72 -5.33,7.45 -3.9,17.15 -3.62,25.74 1.72,7.3 -0.62,14.6 -0.21,21.95 0.06,46 0.05,92 0.02,138 -0.37,8.36 1.44,16.62 0.94,25 0.51,8.04 -1.24,15.97 -0.96,24 0.12,16 -0.11,32.01 0.1,48.01 1.38,9.94 0.69,19.99 0.84,29.99 -0.1,6.33 0.43,12.71 -0.58,18.99 -1.1,6.35 0.92,12.64 0.72,19.01 0.14,11.57 -3.19,23.49 0.75,34.8 1.23,5.5 7.67,7.37 12.61,7.66 29.7,-0.02 59.41,-0.11 89.11,0.05 4.45,0.19 9.02,-2.37 10.8,-6.53 2.71,-5.61 1.26,-12 1.51,-17.98 -0.4,-7.16 1.86,-14.23 0.8,-21.38 -1.06,-6.83 -0.61,-13.75 -0.65,-20.62 -0.07,-30.69 -0.03,-61.37 -0.01,-92.06 0.13,-4.02 0.91,-9.41 5.5,-10.64 5.87,2.19 8.33,8.58 9.84,14.16 1.44,4.78 -0.42,9.66 -0.33,14.51 -0.06,5.36 1.24,10.65 0.99,16.03 -0.07,31.68 0.13,63.36 0.02,95.03 0.03,4.35 -1.14,8.6 -1.08,12.96 -0.08,3.81 -0.24,8.11 2.44,11.18 3.55,3.8 8.93,5.57 14.06,5.4 10.02,-0.08 20.03,-0.23 30.05,-0.11 9.34,-0.08 18.71,0.42 28,-0.75 8.2,0.65 16.46,1.29 24.69,0.61 5.03,-1.18 10,-4.74 11.27,-9.98 2.23,-7.59 1.21,-15.56 1.52,-23.34 -0.01,-41.01 0.02,-82.02 0,-123.03 0.07,-6.38 -2.64,-12.33 -5.74,-17.75 -2.53,-4.33 -4.05,-9.15 -6.5,-13.51 -3.55,-5.95 -10.03,-9.46 -13.43,-15.51 -0.97,-1.73 -1.95,-3.98 -0.6,-5.78 3.05,-5.33 9.76,-6.93 13.19,-11.92 2.45,-3.77 3.23,-8.27 4.71,-12.43 1.96,-5.98 5.27,-11.47 6.52,-17.68 3.52,-13.34 1.07,-27.21 2.1,-40.78 0.77,-5.16 1.26,-10.43 0.55,-15.62 -1.03,-5.53 -3.77,-10.55 -5.12,-15.99 -1.91,-6.67 -1.37,-13.8 -3.71,-20.38 -2.28,-6.29 -4.65,-12.79 -9.23,-17.82 -4.01,-4.47 -6.26,-10.24 -10.57,-14.46 -3.36,-3.35 -7.2,-6.19 -11.19,-8.73 -4.72,-2.98 -10.1,-4.59 -15.11,-6.96 -4.97,-2.37 -10.18,-4.29 -15.61,-5.25 -10.05,-2.05 -20.4,0.1 -30.5,-1.49 -5.72,-0.74 -11.46,-1.63 -17.25,-1.4 -7.66,0.25 -15.37,-0.41 -22.99,0.61 -10.01,1.22 -20.01,-0.61 -29.97,-1.48 -9.36,-0.2 -18.68,2.97 -28.03,1.13 m 350.42,-0.33 c -3.83,0.07 -7.6,0.94 -11.42,0.82 -6.83,-0.71 -13.91,-1.67 -20.64,0.13 -6.03,1.55 -9.75,6.91 -14.31,10.7 -3.82,3.13 -7.64,6.28 -10.98,9.95 -4.33,4.86 -10.58,7.31 -15.2,11.84 -6.61,6.54 -16.15,8.18 -23.65,13.36 -9.31,6.44 -21.03,7.01 -31.02,11.95 -5.36,2.56 -11.17,5.2 -14.78,10.12 -3.61,6.01 -1.2,13.21 -0.52,19.67 1.75,7.92 -2.07,15.97 0.15,23.84 2.02,5.3 7.11,8.96 12.4,10.54 11.12,0.85 22.39,-0.8 33.44,0.97 5.52,0.63 9.39,5.03 12.84,8.95 1.88,2.43 4.31,4.82 4.78,7.98 0.36,8.23 -0.73,16.54 0.56,24.72 0.81,5.3 0.08,10.71 0.94,16.02 1.32,7.66 -1.61,15.32 -0.08,22.99 1.23,6 -0.62,11.98 -0.43,18.01 0.15,33.33 -0.02,66.67 0.07,100.01 1.64,15.6 0.57,31.33 0.97,46.99 0.36,6.23 -2.15,12.5 -0.25,18.65 0.85,2.88 1.77,5.93 3.81,8.22 3.86,3.12 9.02,3.89 13.86,3.7 26.7,-0.27 53.39,-0.08 80.09,-0.07 4.28,0.09 9.16,-0.97 11.89,-4.55 2.63,-4.48 2.57,-9.89 2.62,-14.92 -0.05,-4.36 0.9,-8.64 0.86,-12.99 0.01,-53.35 -0.07,-106.69 0.04,-160.04 -0.17,-9.7 0.23,-19.42 -0.69,-29.09 -0.04,-4.31 0.84,-8.58 0.67,-12.89 0.07,-49.67 -0.05,-99.33 0,-149 -0.06,-6.95 -4.44,-14.35 -11.6,-15.84 -8.05,-1.46 -16.3,-1.78 -24.42,-0.74 M 416.45,771.75 c -9.42,1.46 -18.97,0.6 -28.45,0.73 -28,0.04 -56,0.03 -84,0.03 -5.03,0.14 -9.97,-1.11 -15,-1.01 -4.69,-0.09 -9.3,1.06 -13.99,1.01 -42.34,-0.03 -84.68,0.12 -127.02,-0.12 -6.65,-0.94 -13.34,-0.98 -19.98,0 -27.31,0.21 -54.62,-0.03 -81.93,0.14 -6.21,-0.02 -9.39,7.21 -9.59,12.57 -0.04,39.3 0.03,78.61 0.03,117.91 0.11,5.7 -1.46,11.31 -0.92,17.03 0.57,5.98 2.31,11.85 1.95,17.92 -0.38,6.26 0.47,12.61 3.1,18.36 3.58,7.9 6.71,16.7 13.95,22.07 6.88,4.84 15.22,6.83 23.32,8.58 6.96,1.46 13.87,4.09 21.09,3.36 5.33,-0.56 10.64,-1.26 15.99,-1.58 6.02,0.2 11.98,1.32 18,1.51 5.65,-0.48 11.31,-0.92 16.96,-1.57 8.4,-0.77 16.65,2.69 25.04,1.32 6.69,-1.1 13.49,-0.51 20.17,0.33 13.28,0.33 26.56,-0.26 39.83,0.05 6.34,0.31 12.58,-1.52 18.92,-0.76 7.97,1.26 16.05,0.57 24.08,0.76 7.39,-0.04 14.85,0.53 22.18,-0.65 4.6,-0.54 9.24,-0.43 13.85,-0.2 9.6,1.15 19.37,1.29 28.98,0.05 10.58,-0.74 21.09,1.38 31.65,1.53 10.45,-1.08 21.04,-1.06 31.47,0.16 3.97,0.22 7.87,-0.8 11.83,-0.8 7.01,0.04 13.95,-1.64 20.97,-0.88 5.08,0.7 10.19,0.98 15.28,1.62 5.62,0.68 11.15,-1 16.78,-0.89 29.67,0.13 59.34,0.02 89.01,0.04 6.62,-0.18 13.17,1.66 19.8,0.82 9.67,-1.4 19.47,-0.71 29.2,-0.79 9.06,0.24 18.2,-0.62 27.2,0.81 8.11,0.62 16.29,0.27 24.28,-1.29 9.17,-1.77 18.33,0.92 27.53,0.57 14.66,0 29.32,-0.05 43.99,-0.21 49.33,0.4 98.67,-0.21 148,0.22 12.9,-0.29 25.82,0.33 38.71,-0.28 9.69,-1.53 19.53,-2.27 29.06,-4.71 10.18,-2.49 18.67,-9.59 24.74,-17.92 5.91,-8.56 6.06,-19.28 7.77,-29.16 0.64,-5.15 1.9,-10.23 2.14,-15.41 0.1,-46.68 -0.08,-93.35 0.13,-140.02 0.22,-4.65 -3.83,-8.07 -7.61,-9.98 -9.59,-4.15 -20.02,0.98 -29.94,-0.87 -6.33,-1.36 -12.66,1.04 -19,0.09 -5.31,-0.89 -10.7,-0.84 -15.99,-0.01 -8.66,0.52 -17.34,-0.01 -26,0.27 -6.72,0.28 -13.3,-1.31 -19.97,-1.61 -9.36,0.4 -18.68,2.58 -28.06,1.31 -12.31,-1.92 -24.7,0.13 -36.99,1.13 -4.69,0.21 -9.3,-1.01 -13.99,-0.82 -9.33,0.17 -18.71,-0.46 -27.99,0.81 -10.67,0.35 -21.34,0.01 -32.01,0.13 -5.37,0.14 -10.66,-1.27 -16.03,-0.8 -10.92,1.15 -22.08,1.52 -32.88,-0.76 -7.31,-0.87 -14.77,-0.7 -22.05,0.4 -5.5,0.6 -11.03,0.16 -16.49,-0.59 -7.85,-0.41 -15.73,-0.14 -23.59,-0.17 -5.02,-0.1 -9.95,1.08 -14.96,0.97 -25.66,-0.03 -51.33,0.03 -77,0.03 -11.33,-0.26 -22.73,0.69 -33.99,-0.86 -5.37,-0.63 -10.65,0.89 -16,0.86 -6.36,0.26 -12.61,-1.31 -18.97,-1.02 -12.19,0.13 -24.4,-0.15 -36.59,0.24 z"
       id="path6692"
       sodipodi:nodetypes="ccccccccccccccccccccccccccccccccccccccccccccccccccccsccccccccccccccccccccccccccccccccccccccccccccccccccccccccccccccccccccccccccccccccccccccccccccccccccccccccccccccccccccccccccccccccccccccccccccccccccccccccccccccccccccccccccccccccccccccccccccccccccccccccccccccccccccccccccccccccccccccccccccccccccc"
       style="opacity:1" />
  </g>
</svg>
