<svg xmlns="http://www.w3.org/2000/svg" viewBox="0 0 1024 1024" width="1024" height="1024">
<g id="#ffffffff">
<path fill="#ffffff" opacity="1.00" d=" M 183.03 43.52 C 188.04 43.60 192.97 42.44 197.98 42.64 C 414.99 42.59 632.00 42.63 849.01 42.60 C 854.65 43.00 860.30 44.05 865.99 43.34 C 875.58 41.80 885.33 42.87 895.00 42.64 C 904.22 42.81 913.55 41.78 922.66 43.63 C 930.33 45.02 938.05 46.11 945.70 47.62 C 951.64 48.75 957.03 51.69 962.19 54.72 C 964.46 55.77 965.17 58.32 966.98 59.89 C 967.44 63.02 970.83 63.76 972.44 66.07 C 975.50 69.09 976.06 73.54 977.27 77.47 C 978.69 83.34 980.30 89.16 981.85 95.00 C 983.78 101.58 980.56 108.26 981.81 114.90 C 983.61 125.01 981.35 135.35 983.24 145.46 C 984.24 151.71 982.39 157.87 982.35 164.11 C 982.60 187.40 982.38 210.69 982.63 233.99 C 982.77 237.32 983.31 240.66 982.85 244.00 C 981.98 259.03 983.07 274.11 982.25 289.14 C 980.03 300.75 983.21 312.37 982.60 324.03 C 983.02 329.80 981.81 336.24 977.02 340.01 C 972.05 344.36 964.97 343.88 958.87 343.13 C 954.93 342.38 950.92 342.53 947.00 343.21 C 940.98 344.19 935.02 342.37 929.01 342.46 C 913.67 342.39 898.33 342.56 882.99 342.51 C 879.28 342.50 875.56 342.59 871.88 342.08 C 863.22 340.72 854.65 343.68 845.99 343.44 C 842.32 343.37 838.67 342.35 835.01 343.02 C 827.77 344.17 820.63 341.93 813.44 341.55 C 806.14 341.42 798.42 340.56 791.61 343.81 C 791.59 345.38 790.76 347.47 792.38 348.56 C 796.38 351.41 801.53 351.57 806.08 353.05 C 813.38 354.91 819.12 360.06 825.76 363.34 C 829.62 365.23 832.82 368.16 835.67 371.34 C 840.19 376.44 846.12 380.62 848.52 387.27 C 851.13 394.67 856.75 400.65 858.56 408.35 C 860.66 416.56 860.89 425.10 862.34 433.44 C 864.08 443.19 863.58 453.16 863.30 463.01 C 862.07 470.44 863.19 478.07 861.33 485.42 C 859.70 492.07 860.08 499.79 855.17 505.14 C 851.82 508.86 848.48 512.58 845.70 516.76 C 843.02 520.85 838.51 523.55 836.47 528.06 C 835.51 531.97 839.48 534.09 842.19 535.92 C 848.11 539.53 852.12 545.34 856.15 550.83 C 861.14 557.74 860.38 566.65 862.33 574.58 C 865.22 586.17 865.18 598.18 866.46 609.99 C 866.59 621.66 866.54 633.33 866.45 645.01 C 865.24 659.77 864.34 674.59 862.03 689.25 C 860.40 697.66 858.95 706.59 853.49 713.51 C 850.04 717.84 847.15 722.55 844.12 727.17 C 841.51 731.15 836.81 732.67 833.03 735.23 C 828.04 738.40 824.45 743.38 819.18 746.18 C 810.08 751.14 799.99 754.22 789.72 755.55 C 780.51 756.73 771.37 758.98 762.03 758.53 C 756.32 758.22 750.67 759.23 744.99 759.21 C 734.02 757.79 722.91 759.27 711.96 757.75 C 703.97 757.52 696.12 755.89 688.27 754.60 C 681.39 753.53 675.53 749.59 669.49 746.44 C 664.15 743.66 660.18 739.01 655.09 735.88 C 651.65 733.77 648.52 731.11 646.33 727.69 C 643.83 723.91 640.55 720.78 637.25 717.73 C 633.60 714.52 632.25 709.70 630.44 705.38 C 628.46 700.44 625.27 696.01 623.98 690.81 C 623.05 686.93 622.37 682.98 622.49 678.99 C 622.71 668.94 620.17 659.06 620.47 649.00 C 620.60 631.99 620.27 614.97 620.69 597.97 C 622.89 588.10 622.23 577.96 623.74 568.00 C 624.95 561.17 629.58 555.77 632.53 549.68 C 634.58 545.53 637.00 541.55 640.16 538.15 C 643.33 534.63 646.41 530.05 645.32 525.07 C 643.23 519.48 637.60 516.39 634.70 511.32 C 632.44 507.30 631.34 502.77 629.31 498.65 C 626.85 493.43 623.74 488.24 623.52 482.33 C 623.12 473.89 624.05 465.40 622.77 457.00 C 621.98 443.98 622.26 430.69 625.98 418.09 C 627.37 412.67 629.21 407.37 631.23 402.16 C 633.83 395.77 636.28 389.14 640.88 383.88 C 644.20 380.18 647.42 376.39 650.48 372.48 C 654.63 367.09 661.04 364.34 666.42 360.43 C 671.15 357.04 676.45 354.45 682.11 353.08 C 687.95 351.35 694.42 351.06 699.54 347.45 C 699.56 346.16 699.57 344.89 699.59 343.61 C 693.32 341.25 686.54 341.55 680.00 340.69 C 672.96 340.73 666.04 342.40 659.00 342.56 C 649.00 342.89 639.00 342.38 629.00 342.43 C 619.05 342.44 609.10 342.71 599.15 342.52 C 591.09 342.35 583.10 339.66 575.03 341.13 C 567.04 341.79 558.95 341.78 550.96 341.14 C 542.10 339.49 533.22 341.40 524.40 342.30 C 516.94 342.84 509.42 341.98 501.99 343.07 C 497.98 343.65 494.01 342.50 490.01 342.52 C 483.34 342.47 476.63 342.21 470.00 343.06 C 464.99 343.72 460.00 341.99 455.00 342.93 C 450.31 343.85 445.65 342.49 440.96 342.48 C 427.31 342.28 413.65 342.66 400.00 342.49 C 391.29 342.21 382.68 344.04 373.96 343.51 C 361.00 344.23 348.31 338.64 335.39 341.23 C 328.29 341.92 321.10 341.69 314.04 340.63 C 306.67 339.79 299.40 341.71 292.04 341.45 C 274.35 341.55 256.67 341.30 238.98 341.56 C 232.29 341.87 225.71 339.64 219.01 340.63 C 210.10 342.12 200.98 341.76 192.05 340.63 C 183.96 339.74 176.11 342.60 168.04 342.50 C 127.01 342.44 85.97 342.44 44.94 342.50 C 41.32 343.00 38.54 340.21 36.91 337.31 C 34.83 333.37 34.23 328.76 34.85 324.38 C 35.80 318.31 35.85 312.13 35.42 306.01 C 34.02 295.74 34.03 285.27 35.30 274.99 C 35.94 267.95 34.39 261.00 34.48 253.98 C 34.36 246.59 36.57 239.39 36.45 232.01 C 36.31 210.66 36.47 189.31 36.29 167.97 C 35.95 160.02 33.72 152.14 34.80 144.16 C 36.10 136.15 34.89 128.00 36.01 119.98 C 37.57 108.04 34.60 95.52 39.05 84.00 C 41.19 78.77 43.13 73.48 44.87 68.10 C 45.83 64.26 50.55 63.31 51.98 59.83 C 53.91 53.55 61.04 51.49 66.61 49.61 C 76.80 47.87 86.45 43.19 96.96 43.51 C 125.65 43.55 154.34 43.37 183.03 43.52 M 377.38 103.39 C 367.08 105.48 356.86 108.53 347.62 113.61 C 339.48 118.46 331.70 124.40 326.26 132.27 C 317.41 143.48 311.20 156.86 308.93 171.00 C 306.18 178.37 307.09 186.28 306.89 193.98 C 307.21 199.62 306.27 205.44 308.10 210.90 C 309.31 214.71 309.79 218.67 310.52 222.58 C 313.53 232.62 318.38 242.04 324.44 250.58 C 327.20 254.12 330.58 257.12 333.42 260.59 C 337.33 265.48 343.01 268.39 348.07 271.92 C 353.01 275.24 358.96 276.27 364.32 278.67 C 368.43 280.74 373.16 279.62 377.54 280.47 C 382.43 280.90 387.34 282.33 392.26 281.40 C 397.43 280.81 402.60 280.28 407.77 279.69 C 412.42 278.48 416.82 276.45 421.53 275.45 C 427.24 272.81 432.41 269.10 437.61 265.59 C 442.52 261.21 447.23 256.56 451.61 251.65 C 457.73 242.48 463.28 232.67 465.98 221.90 C 469.45 211.96 468.64 201.30 469.92 191.01 C 468.60 180.94 469.27 170.38 465.20 160.87 C 460.52 144.41 450.59 129.47 437.12 118.90 C 429.11 113.31 420.32 108.47 410.75 106.23 C 406.42 105.50 402.37 103.52 398.00 103.07 C 391.13 102.82 384.21 102.58 377.38 103.39 M 570.39 104.44 C 565.01 105.52 559.28 107.36 556.40 112.43 C 555.70 117.25 554.98 122.09 554.99 126.97 C 554.91 141.64 555.32 156.32 554.55 170.97 C 555.65 188.25 554.37 205.59 555.42 222.87 C 555.40 230.27 554.66 238.09 550.24 244.29 C 542.56 253.20 527.23 253.31 519.18 244.82 C 512.62 238.53 512.15 228.49 506.10 221.87 C 502.25 220.14 498.05 216.80 493.64 218.56 C 488.41 220.39 482.93 223.57 481.21 229.21 C 477.98 235.95 481.36 243.18 483.33 249.74 C 491.74 265.83 507.57 279.43 526.25 280.74 C 535.70 281.54 545.38 281.12 554.55 278.57 C 572.29 272.32 585.96 255.45 587.62 236.60 C 588.14 229.09 588.97 221.57 588.11 214.06 C 587.83 188.71 588.08 163.35 587.99 138.00 C 587.76 129.35 589.88 120.47 586.93 112.06 C 585.48 108.84 582.23 106.91 578.93 106.04 C 576.15 105.32 573.30 104.02 570.39 104.44 M 752.16 107.19 C 747.13 109.90 742.56 114.00 740.43 119.41 C 739.14 126.53 738.79 133.77 739.00 141.00 C 738.85 159.85 739.44 178.72 738.46 197.56 C 739.41 215.02 738.86 232.52 739.00 250.00 C 739.22 257.51 738.15 265.21 740.42 272.51 C 742.42 275.80 745.35 278.86 749.19 279.84 C 753.01 280.28 756.92 280.24 760.75 279.82 C 766.14 277.93 771.34 273.20 771.02 267.06 C 771.00 257.38 770.89 247.70 771.34 238.03 C 770.41 226.05 771.80 213.99 770.25 202.05 C 769.65 189.70 770.19 177.32 769.98 164.95 C 769.85 160.39 768.41 155.88 769.18 151.30 C 770.04 150.48 770.89 149.64 771.74 148.80 C 778.03 158.79 783.64 169.18 789.70 179.31 C 803.69 204.46 818.55 229.15 833.00 254.06 C 837.86 262.71 842.34 272.64 851.53 277.51 C 856.32 280.69 862.34 280.34 867.81 279.83 C 875.51 277.31 880.93 269.90 881.96 262.00 C 882.29 237.92 881.40 213.80 882.56 189.72 C 881.40 165.19 882.32 140.60 881.94 116.05 C 880.78 108.67 872.91 104.80 866.13 104.30 C 860.85 105.47 854.35 106.29 851.39 111.44 C 848.34 121.42 851.04 131.82 850.92 141.99 C 851.10 164.67 850.96 187.36 851.00 210.04 C 850.95 214.29 852.28 218.43 851.94 222.68 C 851.45 223.12 850.45 223.98 849.95 224.42 C 848.42 222.78 847.10 220.95 846.06 218.97 C 840.91 208.38 834.22 198.65 828.74 188.24 C 816.23 167.57 804.75 146.29 792.57 125.43 C 789.28 119.94 785.83 114.28 780.72 110.31 C 775.78 106.13 769.19 105.02 762.98 104.21 C 759.28 104.71 755.68 105.97 752.16 107.19 M 663.16 106.63 C 651.53 107.43 639.85 106.63 628.22 107.16 C 625.32 108.26 623.27 111.08 621.33 113.44 C 620.62 118.74 619.73 125.67 624.74 129.24 C 629.48 132.66 635.65 130.67 641.04 130.96 C 643.16 131.10 646.59 130.40 647.12 133.27 C 648.50 141.09 647.82 149.10 648.00 157.00 C 647.99 184.34 648.03 211.69 647.99 239.03 C 647.86 243.48 648.14 248.09 646.54 252.33 C 640.27 253.85 633.75 252.30 627.44 253.32 C 625.11 255.02 623.02 257.11 621.33 259.44 C 620.72 264.54 619.71 271.09 624.20 274.80 C 628.25 278.27 634.02 277.33 638.92 277.10 C 649.94 276.85 660.97 277.07 672.00 276.99 C 678.85 277.05 685.74 276.67 692.56 277.60 C 695.26 277.94 697.94 277.19 700.57 276.66 C 706.16 274.16 707.90 267.12 706.49 261.55 C 705.92 257.00 701.67 252.98 697.03 253.00 C 691.74 252.80 686.42 253.40 681.17 252.58 C 679.64 246.85 680.12 240.86 680.00 235.00 C 680.00 205.67 680.00 176.33 680.00 147.00 C 680.06 141.74 679.94 136.41 681.09 131.24 C 687.80 130.03 694.76 132.72 701.31 130.40 C 707.53 126.61 708.25 117.87 705.22 111.79 C 703.27 109.22 700.46 106.82 697.03 107.00 C 685.74 106.90 674.44 107.26 663.16 106.63 M 152.39 107.41 C 147.24 109.05 141.67 110.77 138.14 115.13 C 136.12 117.91 133.81 120.71 133.26 124.22 C 132.48 129.12 131.14 133.97 131.00 138.96 C 130.84 156.94 131.43 174.94 130.49 192.90 C 131.43 209.25 130.88 225.63 130.96 242.00 C 130.58 249.15 132.63 256.10 134.02 263.04 C 137.10 271.15 145.53 276.58 154.12 276.87 C 168.37 277.15 182.65 277.23 196.91 276.83 C 203.48 275.59 210.17 276.35 216.78 275.75 C 221.46 274.46 225.93 272.38 230.79 271.75 C 237.26 269.86 243.05 266.18 248.90 262.92 C 254.17 260.06 258.04 255.39 262.29 251.28 C 269.57 244.36 274.55 235.43 278.16 226.14 C 280.72 221.55 280.51 216.13 282.33 211.30 C 283.14 208.95 284.03 206.57 284.00 204.05 C 284.10 196.04 284.17 188.02 283.94 180.02 C 283.28 174.22 280.97 168.78 279.87 163.06 C 275.09 146.99 264.71 132.69 251.16 122.85 C 242.00 117.34 232.24 112.50 221.74 110.27 C 215.05 109.79 208.82 106.46 202.02 106.95 C 192.01 107.32 182.01 106.39 172.00 106.98 C 165.47 107.28 158.86 106.43 152.39 107.41 M 742.36 425.13 C 737.43 427.66 734.85 433.61 735.39 438.99 C 735.12 446.00 736.15 453.06 734.99 460.03 C 733.80 467.35 734.64 474.79 735.92 482.03 C 736.63 485.73 737.55 489.89 740.79 492.24 C 743.42 494.56 747.99 493.73 749.67 490.66 C 751.65 487.09 751.38 482.87 751.90 478.96 C 753.60 467.04 751.44 454.93 753.23 443.02 C 753.82 438.03 753.10 432.78 750.76 428.31 C 749.21 425.40 745.49 423.19 742.36 425.13 M 741.30 580.08 C 736.96 582.22 735.56 587.32 735.28 591.79 C 734.74 597.88 732.93 603.84 732.74 609.95 C 734.22 619.90 733.03 629.98 733.74 639.98 C 735.02 649.29 734.15 658.71 734.43 668.07 C 734.39 673.67 738.17 678.95 743.16 681.31 C 746.37 682.09 749.65 679.57 750.79 676.66 C 753.70 670.05 751.92 662.70 753.05 655.78 C 753.91 646.83 753.84 637.75 752.66 628.83 C 752.45 623.49 752.30 618.09 753.12 612.79 C 753.63 609.37 753.43 605.90 752.91 602.50 C 752.08 596.73 753.10 590.87 752.29 585.11 C 751.60 582.83 750.28 580.45 747.97 579.54 C 745.76 579.31 743.33 579.04 741.30 580.08 Z" />
<path fill="#ffffff" opacity="1.00" d=" M 378.49 131.55 C 382.59 130.59 386.87 131.00 391.05 130.95 C 396.64 130.79 401.84 133.15 406.93 135.12 C 421.05 142.25 429.58 157.20 432.69 172.27 C 434.51 182.92 434.34 193.82 433.55 204.55 C 433.06 214.45 429.36 223.89 424.30 232.31 C 418.37 242.22 408.36 249.73 396.97 251.92 C 388.04 253.20 378.48 252.93 370.31 248.72 C 359.15 244.04 352.10 233.46 347.07 222.93 C 345.04 217.84 344.54 212.31 342.94 207.09 C 341.18 200.54 342.29 193.68 341.97 186.99 C 341.39 179.06 344.45 171.60 346.05 163.97 C 349.23 155.61 353.42 147.28 360.30 141.33 C 365.27 136.33 371.95 133.76 378.49 131.55 Z" />
<path fill="#ffffff" opacity="1.00" d=" M 166.51 135.62 C 173.59 134.34 180.84 135.26 187.99 134.98 C 197.06 134.58 205.84 137.23 214.77 138.31 C 219.13 139.52 223.06 141.90 227.00 144.06 C 239.88 153.63 247.68 169.09 248.97 184.97 C 249.29 194.85 249.25 205.03 245.44 214.31 C 244.61 221.48 239.57 226.94 235.61 232.60 C 230.27 237.03 225.21 242.29 218.38 244.35 C 215.07 245.27 211.90 246.62 208.57 247.47 C 200.80 248.87 192.89 249.22 185.00 249.01 C 178.83 248.77 172.56 249.64 166.46 248.34 C 164.91 244.44 165.12 240.17 165.01 236.05 C 164.99 208.03 165.00 180.01 165.01 152.00 C 165.09 146.52 164.88 140.92 166.51 135.62 Z" />
<path fill="#ffffff" opacity="1.00" d=" M 213.00 352.77 C 222.35 354.61 231.67 351.44 241.03 351.64 C 250.99 352.51 260.99 354.34 271.00 353.12 C 278.62 352.10 286.33 352.76 293.99 352.51 C 299.78 352.28 305.52 353.17 311.24 353.91 C 321.34 355.50 331.69 353.35 341.74 355.40 C 347.17 356.36 352.38 358.28 357.35 360.65 C 362.36 363.02 367.74 364.63 372.46 367.61 C 376.45 370.15 380.29 372.99 383.65 376.34 C 387.96 380.56 390.21 386.33 394.22 390.80 C 398.80 395.83 401.17 402.33 403.45 408.62 C 405.79 415.20 405.25 422.33 407.16 429.00 C 408.51 434.44 411.25 439.46 412.28 444.99 C 412.99 450.18 412.50 455.45 411.73 460.61 C 410.70 474.18 413.15 488.05 409.63 501.39 C 408.38 507.60 405.07 513.09 403.11 519.07 C 401.63 523.23 400.85 527.73 398.40 531.50 C 394.97 536.49 388.26 538.09 385.21 543.42 C 383.86 545.22 384.84 547.47 385.81 549.20 C 389.21 555.25 395.69 558.76 399.24 564.71 C 401.69 569.07 403.21 573.89 405.74 578.22 C 408.84 583.64 411.55 589.59 411.48 595.97 C 411.50 636.98 411.47 677.99 411.48 719.00 C 411.17 726.78 412.19 734.75 409.96 742.34 C 408.69 747.58 403.72 751.14 398.69 752.32 C 390.46 753.00 382.20 752.36 374.00 751.71 C 364.71 752.88 355.34 752.38 346.00 752.46 C 335.98 752.34 325.97 752.49 315.95 752.57 C 310.82 752.74 305.44 750.97 301.89 747.17 C 299.21 744.10 299.37 739.80 299.45 735.99 C 299.39 731.63 300.56 727.38 300.53 723.03 C 300.64 691.36 300.44 659.68 300.51 628.00 C 300.76 622.62 299.46 617.33 299.52 611.97 C 299.43 607.12 301.29 602.24 299.85 597.46 C 298.34 591.88 295.88 585.49 290.01 583.30 C 285.42 584.53 284.64 589.92 284.51 593.94 C 284.49 624.63 284.45 655.31 284.52 686.00 C 284.56 692.87 284.11 699.79 285.17 706.62 C 286.23 713.77 283.97 720.84 284.37 728.00 C 284.12 733.98 285.57 740.37 282.86 745.98 C 281.08 750.14 276.51 752.70 272.06 752.51 C 242.36 752.35 212.65 752.44 182.95 752.46 C 178.01 752.17 171.57 750.30 170.34 744.80 C 166.40 733.49 169.73 721.57 169.59 710.00 C 169.79 703.63 167.77 697.34 168.87 690.99 C 169.88 684.71 169.35 678.33 169.45 672.00 C 169.30 662.00 169.99 651.95 168.61 642.01 C 168.40 626.01 168.63 610.00 168.51 594.00 C 168.23 585.97 169.98 578.04 169.47 570.00 C 169.97 561.62 168.16 553.36 168.53 545.00 C 168.56 499.00 168.57 453.00 168.51 407.00 C 168.10 399.65 170.44 392.35 168.72 385.05 C 168.44 376.46 167.01 366.76 172.34 359.31 C 176.26 353.71 183.66 352.70 189.99 352.59 C 197.66 352.95 205.35 352.20 213.00 352.77 M 289.35 440.01 C 286.38 441.73 284.48 445.06 284.46 448.49 C 284.26 455.66 284.21 462.88 285.24 470.00 C 285.96 478.72 281.30 487.98 285.64 496.28 C 287.13 499.48 291.76 499.31 293.95 496.97 C 299.60 492.07 300.69 484.05 300.49 476.99 C 300.17 467.72 301.50 458.23 298.90 449.18 C 297.96 445.80 296.60 442.20 293.56 440.18 C 292.39 439.14 290.60 439.15 289.35 440.01 Z" />
<path fill="#ffffff" opacity="1.00" d=" M 563.42 352.44 C 571.54 351.40 579.79 351.72 587.84 353.18 C 595.00 354.67 599.38 362.07 599.44 369.02 C 599.39 418.69 599.51 468.35 599.44 518.02 C 599.61 522.33 598.73 526.60 598.77 530.91 C 599.69 540.58 599.29 550.30 599.46 560.00 C 599.35 613.35 599.43 666.69 599.42 720.04 C 599.46 724.39 598.51 728.67 598.56 733.03 C 598.51 738.06 598.57 743.47 595.94 747.95 C 593.21 751.53 588.33 752.59 584.05 752.50 C 557.35 752.49 530.66 752.30 503.96 752.57 C 499.12 752.76 493.96 751.99 490.10 748.87 C 488.06 746.58 487.14 743.53 486.29 740.65 C 484.39 734.50 486.90 728.23 486.54 722.00 C 486.14 706.34 487.21 690.61 485.57 675.01 C 485.48 641.67 485.65 608.33 485.50 575.00 C 485.31 568.97 487.16 562.99 485.93 556.99 C 484.40 549.32 487.33 541.66 486.01 534.00 C 485.15 528.69 485.88 523.28 485.07 517.98 C 483.78 509.80 484.87 501.49 484.51 493.26 C 484.04 490.10 481.61 487.71 479.73 485.28 C 476.28 481.36 472.41 476.96 466.89 476.33 C 455.84 474.56 444.57 476.21 433.45 475.36 C 428.16 473.78 423.07 470.12 421.05 464.82 C 418.83 456.95 422.65 448.90 420.90 440.98 C 420.22 434.52 417.81 427.32 421.42 421.31 C 425.03 416.39 430.84 413.75 436.20 411.19 C 446.19 406.25 457.91 405.68 467.22 399.24 C 474.72 394.06 484.26 392.42 490.87 385.88 C 495.49 381.35 501.74 378.90 506.07 374.04 C 509.41 370.37 513.23 367.22 517.05 364.09 C 521.61 360.30 525.33 354.94 531.36 353.39 C 538.09 351.59 545.17 352.55 552.00 353.26 C 555.82 353.38 559.59 352.51 563.42 352.44 Z" />
<path fill="#ffffff" opacity="1.00" d=" M 416.45 771.75 C 428.64 771.36 440.85 771.64 453.04 771.51 C 459.40 771.22 465.65 772.79 472.01 772.53 C 477.36 772.56 482.64 771.04 488.01 771.67 C 499.27 773.22 510.67 772.27 522.00 772.53 C 547.67 772.53 573.34 772.47 599.00 772.50 C 604.01 772.61 608.94 771.43 613.96 771.53 C 621.82 771.56 629.70 771.29 637.55 771.70 C 643.01 772.45 648.54 772.89 654.04 772.29 C 661.32 771.19 668.78 771.02 676.09 771.89 C 686.89 774.17 698.05 773.80 708.97 772.65 C 714.34 772.18 719.63 773.59 725.00 773.45 C 735.67 773.33 746.34 773.67 757.01 773.32 C 766.29 772.05 775.67 772.68 785.00 772.51 C 789.69 772.32 794.30 773.54 798.99 773.33 C 811.28 772.33 823.67 770.28 835.98 772.20 C 845.36 773.47 854.68 771.29 864.04 770.89 C 870.71 771.19 877.29 772.78 884.01 772.50 C 892.67 772.22 901.35 772.75 910.01 772.23 C 915.30 771.40 920.69 771.35 926.00 772.24 C 932.34 773.19 938.67 770.79 945.00 772.15 C 954.92 774.00 965.35 768.87 974.94 773.02 C 978.72 774.93 982.77 778.35 982.55 783.00 C 982.34 829.67 982.52 876.34 982.42 923.02 C 982.18 928.20 980.92 933.28 980.28 938.43 C 978.57 948.31 978.42 959.03 972.51 967.59 C 966.44 975.92 957.95 983.02 947.77 985.51 C 938.24 987.95 928.40 988.69 918.71 990.22 C 905.82 990.83 892.90 990.21 880.00 990.50 C 830.67 990.07 781.33 990.68 732.00 990.28 C 717.33 990.44 702.67 990.49 688.01 990.49 C 678.81 990.84 669.65 988.15 660.48 989.92 C 652.49 991.48 644.31 991.83 636.20 991.21 C 627.20 989.78 618.06 990.64 609.00 990.40 C 599.27 990.48 589.47 989.79 579.80 991.19 C 573.17 992.03 566.62 990.19 560.00 990.37 C 530.33 990.35 500.66 990.46 470.99 990.33 C 465.36 990.22 459.83 991.90 454.21 991.22 C 449.12 990.58 444.01 990.30 438.93 989.60 C 431.91 988.84 424.97 990.52 417.96 990.48 C 414.00 990.48 410.10 991.50 406.13 991.28 C 395.70 990.06 385.11 990.04 374.66 991.12 C 364.10 990.97 353.59 988.85 343.01 989.59 C 333.40 990.83 323.63 990.69 314.03 989.54 C 309.42 989.31 304.78 989.20 300.18 989.74 C 292.85 990.92 285.39 990.35 278.00 990.39 C 269.97 990.20 261.89 990.89 253.92 989.63 C 247.58 988.87 241.34 990.70 235.00 990.39 C 221.73 990.08 208.45 990.67 195.17 990.34 C 188.49 989.50 181.69 988.91 175.00 990.01 C 166.61 991.38 158.36 987.92 149.96 988.69 C 144.31 989.34 138.65 989.78 133.00 990.26 C 126.98 990.07 121.02 988.95 115.00 988.75 C 109.65 989.07 104.34 989.77 99.01 990.33 C 91.79 991.06 84.88 988.43 77.92 986.97 C 69.82 985.22 61.48 983.23 54.60 978.39 C 47.36 973.02 44.23 964.22 40.65 956.32 C 38.02 950.57 37.17 944.22 37.55 937.96 C 37.91 931.89 36.17 926.02 35.60 920.04 C 35.06 914.32 36.63 908.71 36.52 903.01 C 36.52 863.71 36.45 824.40 36.49 785.10 C 36.69 779.74 39.87 772.51 46.08 772.53 C 73.39 772.36 100.70 772.60 128.01 772.39 C 134.65 771.41 141.34 771.45 147.99 772.39 C 190.33 772.63 232.67 772.48 275.01 772.51 C 279.70 772.56 284.31 771.41 289.00 771.50 C 294.03 771.40 298.97 772.65 304.00 772.51 C 332.00 772.51 360.00 772.52 388.00 772.48 C 397.48 772.35 407.03 773.21 416.45 771.75 M 602.41 810.28 C 595.51 812.67 594.85 821.47 588.75 824.85 C 584.62 827.38 579.56 826.20 575.01 826.95 C 568.74 827.98 562.13 826.70 556.10 829.11 C 552.70 830.34 549.25 833.28 549.53 837.23 C 549.36 843.83 547.95 850.41 548.74 857.02 C 549.94 865.61 549.91 874.39 548.66 882.98 C 547.86 888.69 550.11 894.34 549.04 900.03 C 548.18 905.97 548.21 912.04 549.28 917.95 C 550.10 922.75 548.44 927.42 547.73 932.12 C 547.21 936.80 547.16 941.95 549.97 946.00 C 553.33 951.75 563.11 950.62 565.44 944.46 C 568.74 934.58 567.07 924.07 565.94 913.97 C 567.22 895.39 566.03 876.73 566.56 858.11 C 567.14 852.85 569.93 847.49 574.60 844.78 C 579.72 842.35 585.57 843.83 591.02 843.53 C 596.65 844.00 602.20 841.68 607.80 842.89 C 611.16 843.53 614.49 844.53 617.96 844.49 C 627.66 844.61 637.36 844.42 647.07 844.45 C 655.73 844.22 662.00 852.95 662.48 860.95 C 662.54 877.96 662.34 894.98 662.63 911.99 C 662.49 915.39 663.04 919.12 661.19 922.18 C 658.36 927.08 653.38 930.61 647.86 931.79 C 642.64 933.19 637.20 931.91 631.91 932.70 C 629.02 933.34 625.98 934.91 624.56 937.62 C 623.95 941.17 624.11 945.40 627.09 947.91 C 631.13 951.66 637.04 950.63 642.03 950.19 C 648.57 949.02 655.39 950.22 661.77 948.07 C 667.81 946.43 672.88 942.07 675.62 936.47 C 680.45 927.81 680.02 917.52 678.81 908.00 C 678.29 901.01 678.68 893.99 678.50 887.00 C 678.26 880.63 680.14 874.36 679.29 867.99 C 678.13 859.71 678.14 851.25 679.26 842.97 C 679.58 839.76 678.72 836.54 677.37 833.67 C 675.64 830.19 671.82 828.47 668.18 827.83 C 658.54 826.19 648.72 826.36 638.99 826.65 C 632.48 827.60 625.67 827.69 619.38 825.57 C 614.80 822.85 613.75 817.18 611.14 812.92 C 609.54 809.88 605.43 808.58 602.41 810.28 M 230.68 812.74 C 225.89 817.91 227.23 826.25 222.23 831.26 C 217.03 835.16 210.11 834.12 204.05 835.14 C 192.68 835.41 181.20 832.51 169.91 835.02 C 164.89 836.00 159.43 838.42 157.45 843.51 C 155.45 847.55 157.24 852.00 158.02 856.12 C 159.55 862.24 157.25 868.39 157.48 874.56 C 157.64 881.48 157.74 888.43 156.54 895.27 C 155.04 904.60 155.84 914.57 151.56 923.26 C 148.95 928.69 147.97 934.83 148.51 940.82 C 148.52 945.79 153.12 949.71 157.97 949.36 C 160.68 948.44 163.61 946.88 164.53 943.97 C 166.83 937.75 167.43 930.79 171.48 925.32 C 176.92 926.21 180.65 931.22 186.17 932.11 C 192.71 933.06 200.33 933.33 205.62 928.66 C 209.98 924.07 211.91 917.72 214.07 911.90 C 215.18 901.01 216.16 889.97 215.28 879.01 C 214.71 873.95 210.24 870.10 205.31 869.58 C 198.36 868.95 191.37 869.96 184.42 869.40 C 180.40 868.61 176.56 866.01 174.70 862.31 C 172.89 856.33 178.29 851.44 183.16 849.14 C 189.38 846.85 195.63 850.93 201.94 850.24 C 207.89 849.42 213.91 849.31 219.91 849.55 C 223.80 849.54 226.01 853.51 227.17 856.72 C 229.02 863.30 229.48 870.19 229.52 877.00 C 229.55 884.73 231.53 892.31 234.43 899.44 C 238.08 908.91 233.73 919.85 225.86 925.74 C 221.57 928.86 214.88 929.48 212.74 934.97 C 212.07 939.34 211.60 944.58 214.95 948.04 C 216.82 950.03 219.78 952.56 222.59 950.80 C 228.76 948.16 231.05 941.07 236.55 937.60 C 239.72 937.00 243.03 937.63 245.82 939.22 C 252.55 942.55 256.27 949.82 263.09 953.02 C 265.99 954.02 269.22 953.80 272.21 953.31 C 276.99 951.62 279.73 947.04 281.81 942.72 C 284.18 937.64 288.54 933.80 290.71 928.63 C 292.57 924.21 291.58 918.34 287.29 915.72 C 283.91 913.49 278.60 912.10 275.57 915.61 C 272.10 920.45 271.20 927.86 264.83 930.04 C 259.19 932.55 253.56 926.54 254.36 920.99 C 253.49 914.54 258.07 909.47 262.30 905.30 C 266.22 901.59 267.62 896.28 269.68 891.49 C 271.75 886.20 278.70 885.11 280.55 879.69 C 281.93 876.26 283.65 872.10 281.55 868.60 C 280.33 866.63 278.60 864.26 276.01 864.41 C 271.05 864.28 265.89 866.94 263.70 871.51 C 260.71 877.04 256.92 883.52 250.07 884.45 C 245.65 883.22 244.74 877.82 244.48 873.89 C 244.55 868.02 243.63 861.74 246.32 856.28 C 248.11 852.36 252.29 849.92 256.51 849.65 C 263.36 849.31 270.17 848.33 277.04 848.50 C 280.39 848.69 283.87 846.97 285.36 843.89 C 286.19 839.80 284.23 835.88 283.03 832.08 C 281.21 827.14 280.02 821.62 276.22 817.76 C 272.80 814.39 266.31 812.78 262.77 816.79 C 258.95 821.00 261.30 827.07 260.26 832.12 C 257.35 835.90 251.15 834.90 247.80 832.21 C 242.71 826.98 245.36 818.55 241.26 812.81 C 238.80 809.38 233.36 809.81 230.68 812.74 M 415.39 811.38 C 412.00 811.47 409.31 814.33 408.27 817.38 C 405.33 825.88 407.60 835.03 405.63 843.70 C 403.42 854.12 403.88 865.07 400.07 875.14 C 397.44 882.33 392.10 888.03 388.54 894.74 C 385.22 901.04 380.38 906.37 375.20 911.20 C 367.95 917.71 361.01 924.67 352.69 929.84 C 347.21 933.17 347.31 941.36 351.06 945.92 C 355.67 949.92 362.67 948.50 367.31 945.28 C 375.97 939.07 383.34 931.32 391.31 924.29 C 397.96 916.70 402.43 907.51 407.81 899.03 C 409.87 895.80 411.93 892.09 415.71 890.67 C 418.27 889.16 421.77 890.28 423.24 892.80 C 426.14 897.80 427.00 903.65 429.58 908.79 C 431.91 912.94 435.22 916.42 437.84 920.39 C 439.51 922.91 441.36 925.34 443.55 927.45 C 451.52 934.87 458.51 944.36 469.45 947.50 C 474.17 948.75 477.84 944.77 480.49 941.46 C 483.23 938.25 483.83 932.57 480.25 929.75 C 473.87 923.90 465.22 921.12 459.23 914.76 C 454.37 909.57 450.21 903.77 445.82 898.19 C 441.70 892.92 438.94 886.79 436.28 880.71 C 433.49 874.26 429.25 868.45 427.44 861.59 C 425.34 853.25 423.57 844.55 425.06 835.94 C 425.71 828.73 428.23 820.68 423.93 814.11 C 422.12 811.19 418.42 811.12 415.39 811.38 M 826.37 815.15 C 823.90 816.58 821.62 818.99 821.46 821.97 C 820.93 828.03 824.85 833.20 825.88 839.01 C 827.21 843.50 825.85 849.07 821.66 851.58 C 813.21 857.21 802.28 854.77 793.38 859.22 C 790.23 860.75 786.33 862.34 785.18 865.97 C 786.91 871.35 792.83 873.84 798.03 874.42 C 805.24 874.78 811.60 869.81 818.86 870.45 C 825.57 870.56 829.94 877.82 829.61 884.00 C 830.11 890.39 827.08 896.27 826.42 902.53 C 825.61 908.97 824.49 915.52 821.29 921.26 C 818.46 926.86 813.77 932.29 814.50 938.96 C 816.07 943.82 822.28 948.86 827.27 945.33 C 832.69 941.22 835.10 934.49 837.31 928.31 C 839.09 923.12 841.76 918.24 843.00 912.88 C 844.40 905.65 845.95 898.37 845.55 890.97 C 845.41 883.68 845.16 875.18 850.47 869.48 C 856.87 864.93 866.06 866.62 871.96 860.98 C 874.16 859.24 873.77 856.09 873.44 853.63 C 872.45 850.90 869.59 849.32 866.95 848.57 C 861.49 848.18 856.61 851.68 851.16 851.54 C 848.12 851.74 845.51 849.38 844.42 846.71 C 841.22 838.83 843.96 829.77 839.96 822.10 C 837.71 817.16 831.94 812.39 826.37 815.15 M 755.76 833.11 C 754.82 838.48 755.85 843.97 755.08 849.37 C 754.03 856.19 754.48 863.12 754.44 870.00 C 754.55 875.82 754.14 881.70 755.12 887.48 C 755.63 891.96 756.50 896.42 756.45 900.95 C 756.53 908.16 755.77 915.58 758.16 922.54 C 759.79 928.64 763.69 934.56 770.00 936.51 C 774.74 934.91 777.95 930.01 777.63 925.03 C 778.04 920.35 775.99 916.06 774.53 911.76 C 772.77 907.01 773.87 901.87 773.37 896.95 C 772.13 886.89 770.01 876.71 771.39 866.57 C 771.80 860.70 771.36 854.83 771.49 848.96 C 771.54 843.37 774.70 838.47 775.49 833.02 C 773.25 823.71 758.22 824.29 755.76 833.11 M 593.35 863.20 C 588.85 864.65 584.73 867.86 582.71 872.19 C 581.47 878.21 585.06 884.00 584.38 890.06 C 583.29 898.35 583.11 906.76 583.59 915.10 C 584.08 919.19 587.27 924.12 591.93 923.52 C 596.29 922.15 599.46 918.51 603.63 916.71 C 607.15 914.95 611.19 915.65 614.98 915.53 C 621.02 915.69 626.96 914.23 633.00 914.56 C 637.27 914.88 642.48 913.30 644.03 908.88 C 646.56 901.52 645.11 893.61 645.54 885.99 C 645.62 880.69 648.04 874.95 645.18 869.98 C 642.71 864.69 636.50 862.62 631.06 862.46 C 622.38 862.30 613.69 862.65 605.01 862.44 C 601.13 862.53 597.12 862.07 593.35 863.20 Z" />
<path fill="#ffffff" opacity="1.00" d=" M 611.33 875.55 C 617.64 875.39 624.24 877.75 628.74 882.24 C 631.08 884.27 630.79 887.65 630.27 890.41 C 626.91 897.10 619.69 902.21 612.00 901.64 C 603.11 902.40 596.27 891.91 598.95 883.83 C 601.24 879.15 606.20 876.05 611.33 875.55 Z" />
<path fill="#ffffff" opacity="1.00" d=" M 183.72 884.78 C 186.49 884.10 189.67 884.21 192.02 886.01 C 199.59 890.87 201.60 902.18 196.51 909.51 C 192.13 915.73 183.99 918.37 176.63 917.43 C 172.64 912.58 173.35 905.95 173.45 900.10 C 173.60 893.61 177.46 887.05 183.72 884.78 Z" />
</g>
<g id="#000000ff">
<path fill="#000000" opacity="1.00" d=" M 101.53 26.00 C 109.99 25.11 118.52 25.76 127.01 25.67 C 136.01 25.85 145.04 25.26 154.01 26.23 C 163.37 26.71 172.76 25.93 182.11 26.75 C 188.07 27.52 194.03 26.24 200.00 26.36 C 237.00 26.40 274.00 26.49 310.99 26.31 C 319.36 25.91 327.65 28.34 335.99 26.86 C 347.63 26.02 359.33 26.62 371.00 26.40 C 384.60 26.76 398.26 25.62 411.80 27.25 C 417.56 27.74 423.23 26.12 429.00 26.35 C 443.66 26.39 458.33 26.51 473.00 26.33 C 479.37 26.01 485.66 28.06 492.02 27.11 C 498.30 26.14 504.67 26.49 511.00 26.43 C 523.33 26.37 535.66 26.35 547.99 26.46 C 554.68 26.46 561.32 27.87 568.02 27.23 C 579.97 25.94 592.01 26.48 604.00 26.46 C 667.00 26.44 730.00 26.48 792.99 26.44 C 799.02 26.24 805.00 27.74 811.02 27.03 C 819.64 26.02 828.33 26.44 836.99 26.48 C 857.66 26.30 878.33 26.51 898.99 26.47 C 911.28 27.49 923.77 24.91 935.89 27.82 C 943.70 29.48 951.92 29.26 959.35 32.50 C 965.29 35.12 971.47 37.41 976.84 41.14 C 984.33 46.78 989.05 55.25 992.40 63.84 C 995.01 70.79 995.53 78.31 997.89 85.35 C 1000.43 92.78 1000.04 100.83 998.89 108.48 C 997.34 116.34 1001.97 123.92 1000.13 131.80 C 998.18 141.24 1001.44 150.74 999.73 160.18 C 999.33 171.50 999.56 182.84 999.67 194.16 C 1000.93 207.08 999.51 220.12 1001.19 233.01 C 1001.81 238.68 1000.42 244.30 1000.46 249.97 C 1000.31 277.99 1000.38 306.02 1000.34 334.05 C 999.86 340.02 999.13 345.98 999.37 352.00 C 999.47 417.68 999.44 483.37 999.41 549.05 C 999.55 553.71 998.63 558.31 998.62 562.96 C 998.37 570.65 999.56 578.30 999.36 586.00 C 999.46 636.33 999.45 686.67 999.45 737.00 C 999.54 752.65 998.76 768.36 1000.37 783.95 C 1000.49 817.97 1000.40 852.00 1000.46 886.02 C 1000.25 890.45 1001.69 894.84 1000.88 899.25 C 999.35 910.05 1001.64 920.98 1000.05 931.78 C 998.98 938.55 1000.30 945.52 998.59 952.22 C 996.52 960.58 993.01 968.49 989.75 976.44 C 986.17 986.31 978.06 993.95 968.94 998.81 C 961.96 1003.00 954.04 1005.39 946.01 1006.43 C 924.07 1008.43 902.00 1007.35 880.00 1007.70 C 844.66 1007.56 809.33 1007.64 774.00 1007.64 C 768.33 1007.81 762.68 1008.78 757.00 1008.23 C 747.03 1007.10 736.97 1007.61 726.97 1007.68 C 717.68 1008.70 708.33 1008.31 699.00 1008.41 C 651.00 1008.37 602.99 1008.39 554.99 1008.41 C 548.65 1008.29 542.33 1006.94 536.00 1007.96 C 528.68 1009.05 521.32 1008.02 514.01 1007.59 C 499.34 1007.59 484.67 1007.69 470.00 1007.65 C 451.34 1007.93 432.67 1007.27 414.00 1007.71 C 397.67 1007.75 381.34 1007.54 365.00 1007.72 C 345.32 1007.52 325.62 1007.96 305.97 1006.77 C 284.71 1009.04 263.28 1006.47 242.01 1008.32 C 235.34 1008.42 228.64 1008.68 222.00 1007.82 C 217.65 1007.24 213.32 1008.06 209.00 1008.39 C 200.00 1008.74 190.99 1008.59 182.01 1007.99 C 173.34 1008.84 164.65 1008.42 156.01 1007.63 C 146.03 1008.43 136.00 1008.74 126.01 1007.96 C 105.66 1006.75 85.04 1009.56 64.88 1005.74 C 55.98 1004.35 48.52 999.09 40.61 995.22 C 33.01 991.15 29.52 982.81 25.44 975.70 C 20.91 965.85 18.65 954.86 19.55 944.02 C 20.20 937.45 18.94 930.95 17.97 924.49 C 16.67 915.00 18.71 905.51 18.52 896.00 C 18.51 865.98 18.72 835.96 18.84 805.94 C 18.94 801.29 19.47 796.66 19.34 792.01 C 19.07 779.55 20.71 767.05 18.91 754.64 C 19.44 747.11 19.83 739.56 19.54 732.01 C 19.60 703.32 19.72 674.64 19.88 645.96 C 20.72 633.99 20.11 621.98 20.81 610.00 C 20.17 598.02 20.65 586.02 19.86 574.06 C 19.67 527.43 19.40 480.80 19.71 434.17 C 21.10 417.13 20.34 400.03 20.25 382.96 C 18.78 369.07 20.40 355.06 19.17 341.18 C 17.24 332.48 19.95 323.79 19.77 315.07 C 19.55 305.04 18.55 295.04 18.62 285.01 C 18.64 272.12 18.34 259.23 18.87 246.35 C 20.01 234.56 19.69 222.71 18.89 210.90 C 18.44 179.94 18.48 148.97 18.87 118.01 C 19.79 107.36 18.85 96.62 20.30 86.01 C 20.23 78.09 21.79 70.29 24.10 62.75 C 25.99 57.45 29.61 53.03 32.28 48.12 C 34.55 43.84 38.82 41.34 42.86 38.99 C 47.51 36.38 51.37 32.07 56.88 31.26 C 64.23 29.92 71.42 27.58 78.92 27.22 C 86.43 26.31 94.02 26.86 101.53 26.00 M 183.03 43.52 C 154.34 43.37 125.65 43.55 96.96 43.51 C 86.45 43.19 76.80 47.87 66.61 49.61 C 61.04 51.49 53.91 53.55 51.98 59.83 C 50.55 63.31 45.83 64.26 44.87 68.10 C 43.13 73.48 41.19 78.77 39.05 84.00 C 34.60 95.52 37.57 108.04 36.01 119.98 C 34.89 128.00 36.10 136.15 34.80 144.16 C 33.72 152.14 35.95 160.02 36.29 167.97 C 36.47 189.31 36.31 210.66 36.45 232.01 C 36.57 239.39 34.36 246.59 34.48 253.98 C 34.39 261.00 35.94 267.95 35.30 274.99 C 34.03 285.27 34.02 295.74 35.42 306.01 C 35.85 312.13 35.80 318.31 34.85 324.38 C 34.23 328.76 34.83 333.37 36.91 337.31 C 38.54 340.21 41.32 343.00 44.94 342.50 C 85.97 342.44 127.01 342.44 168.04 342.50 C 176.11 342.60 183.96 339.74 192.05 340.63 C 200.98 341.76 210.10 342.12 219.01 340.63 C 225.71 339.64 232.29 341.87 238.98 341.56 C 256.67 341.30 274.35 341.55 292.04 341.45 C 299.40 341.71 306.67 339.79 314.04 340.63 C 321.10 341.69 328.29 341.92 335.39 341.23 C 348.31 338.64 361.00 344.23 373.96 343.51 C 382.68 344.04 391.29 342.21 400.00 342.49 C 413.65 342.66 427.31 342.28 440.96 342.48 C 445.65 342.49 450.31 343.85 455.00 342.93 C 460.00 341.99 464.99 343.72 470.00 343.06 C 476.63 342.21 483.34 342.47 490.01 342.52 C 494.01 342.50 497.98 343.65 501.99 343.07 C 509.42 341.98 516.94 342.84 524.40 342.30 C 533.22 341.40 542.10 339.49 550.96 341.14 C 558.95 341.78 567.04 341.79 575.03 341.13 C 583.10 339.66 591.09 342.35 599.15 342.52 C 609.10 342.71 619.05 342.44 629.00 342.43 C 639.00 342.38 649.00 342.89 659.00 342.56 C 666.04 342.40 672.96 340.73 680.00 340.69 C 686.54 341.55 693.32 341.25 699.59 343.61 C 699.57 344.89 699.56 346.16 699.54 347.45 C 694.42 351.06 687.95 351.35 682.11 353.08 C 676.45 354.45 671.15 357.04 666.42 360.43 C 661.04 364.34 654.63 367.09 650.48 372.48 C 647.42 376.39 644.20 380.18 640.88 383.88 C 636.28 389.14 633.83 395.77 631.23 402.16 C 629.21 407.37 627.37 412.67 625.98 418.09 C 622.26 430.69 621.98 443.98 622.77 457.00 C 624.05 465.40 623.12 473.89 623.52 482.33 C 623.74 488.24 626.85 493.43 629.31 498.65 C 631.34 502.77 632.44 507.30 634.70 511.32 C 637.60 516.39 643.23 519.48 645.32 525.07 C 646.41 530.05 643.33 534.63 640.16 538.15 C 637.00 541.55 634.58 545.53 632.53 549.68 C 629.58 555.77 624.95 561.17 623.74 568.00 C 622.23 577.96 622.89 588.10 620.69 597.97 C 620.27 614.97 620.60 631.99 620.47 649.00 C 620.17 659.06 622.71 668.94 622.49 678.99 C 622.37 682.98 623.05 686.93 623.98 690.81 C 625.27 696.01 628.46 700.44 630.44 705.38 C 632.25 709.70 633.60 714.52 637.25 717.73 C 640.55 720.78 643.83 723.91 646.33 727.69 C 648.52 731.11 651.65 733.77 655.09 735.88 C 660.18 739.01 664.15 743.66 669.49 746.44 C 675.53 749.59 681.39 753.53 688.27 754.60 C 696.12 755.89 703.97 757.52 711.96 757.75 C 722.91 759.27 734.02 757.79 744.99 759.21 C 750.67 759.23 756.32 758.22 762.03 758.53 C 771.37 758.98 780.51 756.73 789.72 755.55 C 799.99 754.22 810.08 751.14 819.18 746.18 C 824.45 743.38 828.04 738.40 833.03 735.23 C 836.81 732.67 841.51 731.15 844.12 727.17 C 847.15 722.55 850.04 717.84 853.49 713.51 C 858.95 706.59 860.40 697.66 862.03 689.25 C 864.34 674.59 865.24 659.77 866.45 645.01 C 866.54 633.33 866.59 621.66 866.46 609.99 C 865.18 598.18 865.22 586.17 862.33 574.58 C 860.38 566.65 861.14 557.74 856.15 550.83 C 852.12 545.34 848.11 539.53 842.19 535.92 C 839.48 534.09 835.51 531.97 836.47 528.06 C 838.51 523.55 843.02 520.85 845.70 516.76 C 848.48 512.58 851.82 508.86 855.17 505.14 C 860.08 499.79 859.70 492.07 861.33 485.42 C 863.19 478.07 862.07 470.44 863.30 463.01 C 863.58 453.16 864.08 443.19 862.34 433.44 C 860.89 425.10 860.66 416.56 858.56 408.35 C 856.75 400.65 851.13 394.67 848.52 387.27 C 846.12 380.62 840.19 376.44 835.67 371.34 C 832.82 368.16 829.62 365.23 825.76 363.34 C 819.12 360.06 813.38 354.91 806.08 353.05 C 801.53 351.57 796.38 351.41 792.38 348.56 C 790.76 347.47 791.59 345.38 791.61 343.81 C 798.42 340.56 806.14 341.42 813.44 341.55 C 820.63 341.93 827.77 344.17 835.01 343.02 C 838.67 342.35 842.32 343.37 845.99 343.44 C 854.65 343.68 863.22 340.72 871.88 342.08 C 875.56 342.59 879.28 342.50 882.99 342.51 C 898.33 342.56 913.67 342.39 929.01 342.46 C 935.02 342.37 940.98 344.19 947.00 343.21 C 950.92 342.53 954.93 342.38 958.87 343.13 C 964.97 343.88 972.05 344.36 977.02 340.01 C 981.81 336.24 983.02 329.80 982.60 324.03 C 983.21 312.37 980.03 300.75 982.25 289.14 C 983.07 274.11 981.98 259.03 982.85 244.00 C 983.31 240.66 982.77 237.32 982.63 233.99 C 982.38 210.69 982.60 187.40 982.35 164.11 C 982.39 157.87 984.24 151.71 983.24 145.46 C 981.35 135.35 983.61 125.01 981.81 114.90 C 980.56 108.26 983.78 101.58 981.85 95.00 C 980.30 89.16 978.69 83.34 977.27 77.47 C 976.06 73.54 975.50 69.09 972.44 66.07 C 970.83 63.76 967.44 63.02 966.98 59.89 C 965.17 58.32 964.46 55.77 962.19 54.72 C 957.03 51.69 951.64 48.75 945.70 47.62 C 938.05 46.11 930.33 45.02 922.66 43.63 C 913.55 41.78 904.22 42.81 895.00 42.64 C 885.33 42.87 875.58 41.80 865.99 43.34 C 860.30 44.05 854.65 43.00 849.01 42.60 C 632.00 42.63 414.99 42.59 197.98 42.64 C 192.97 42.44 188.04 43.60 183.03 43.52 M 213.00 352.77 C 205.35 352.20 197.66 352.95 189.99 352.59 C 183.66 352.70 176.26 353.71 172.34 359.31 C 167.01 366.76 168.44 376.46 168.72 385.05 C 170.44 392.35 168.10 399.65 168.51 407.00 C 168.57 453.00 168.56 499.00 168.53 545.00 C 168.16 553.36 169.97 561.62 169.47 570.00 C 169.98 578.04 168.23 585.97 168.51 594.00 C 168.63 610.00 168.40 626.01 168.61 642.01 C 169.99 651.95 169.30 662.00 169.45 672.00 C 169.35 678.33 169.88 684.71 168.87 690.99 C 167.77 697.34 169.79 703.63 169.59 710.00 C 169.73 721.57 166.40 733.49 170.34 744.80 C 171.57 750.30 178.01 752.17 182.95 752.46 C 212.65 752.44 242.36 752.35 272.06 752.51 C 276.51 752.70 281.08 750.14 282.86 745.98 C 285.57 740.37 284.12 733.98 284.37 728.00 C 283.97 720.84 286.23 713.77 285.17 706.62 C 284.11 699.79 284.56 692.87 284.52 686.00 C 284.45 655.31 284.49 624.63 284.51 593.94 C 284.64 589.92 285.42 584.53 290.01 583.30 C 295.88 585.49 298.34 591.88 299.85 597.46 C 301.29 602.24 299.43 607.12 299.52 611.97 C 299.46 617.33 300.76 622.62 300.51 628.00 C 300.44 659.68 300.64 691.36 300.53 723.03 C 300.56 727.38 299.39 731.63 299.45 735.99 C 299.37 739.80 299.21 744.10 301.89 747.17 C 305.44 750.97 310.82 752.74 315.95 752.57 C 325.97 752.49 335.98 752.34 346.00 752.46 C 355.34 752.38 364.71 752.88 374.00 751.71 C 382.20 752.36 390.46 753.00 398.69 752.32 C 403.72 751.14 408.69 747.58 409.96 742.34 C 412.19 734.75 411.17 726.78 411.48 719.00 C 411.47 677.99 411.50 636.98 411.48 595.97 C 411.55 589.59 408.84 583.64 405.74 578.22 C 403.21 573.89 401.69 569.07 399.24 564.71 C 395.69 558.76 389.21 555.25 385.81 549.20 C 384.84 547.47 383.86 545.22 385.21 543.42 C 388.26 538.09 394.97 536.49 398.40 531.50 C 400.85 527.73 401.63 523.23 403.11 519.07 C 405.07 513.09 408.38 507.60 409.63 501.39 C 413.15 488.05 410.70 474.18 411.73 460.61 C 412.50 455.45 412.99 450.18 412.28 444.99 C 411.25 439.46 408.51 434.44 407.16 429.00 C 405.25 422.33 405.79 415.20 403.45 408.62 C 401.17 402.33 398.80 395.83 394.22 390.80 C 390.21 386.33 387.96 380.56 383.65 376.34 C 380.29 372.99 376.45 370.15 372.46 367.61 C 367.74 364.63 362.36 363.02 357.35 360.65 C 352.38 358.28 347.17 356.36 341.74 355.40 C 331.69 353.35 321.34 355.50 311.24 353.91 C 305.52 353.17 299.78 352.28 293.99 352.51 C 286.33 352.76 278.62 352.10 271.00 353.12 C 260.99 354.34 250.99 352.51 241.03 351.64 C 231.67 351.44 222.35 354.61 213.00 352.77 M 563.42 352.44 C 559.59 352.51 555.82 353.38 552.00 353.26 C 545.17 352.55 538.09 351.59 531.36 353.39 C 525.33 354.94 521.61 360.30 517.05 364.09 C 513.23 367.22 509.41 370.37 506.07 374.04 C 501.74 378.90 495.49 381.35 490.87 385.88 C 484.26 392.42 474.72 394.06 467.22 399.24 C 457.91 405.68 446.19 406.25 436.20 411.19 C 430.84 413.75 425.03 416.39 421.42 421.31 C 417.81 427.32 420.22 434.52 420.90 440.98 C 422.65 448.90 418.83 456.95 421.05 464.82 C 423.07 470.12 428.16 473.78 433.45 475.36 C 444.57 476.21 455.84 474.56 466.89 476.33 C 472.41 476.96 476.28 481.36 479.73 485.28 C 481.61 487.71 484.04 490.10 484.51 493.26 C 484.87 501.49 483.78 509.80 485.07 517.98 C 485.88 523.28 485.15 528.69 486.01 534.00 C 487.33 541.66 484.40 549.32 485.93 556.99 C 487.16 562.99 485.31 568.97 485.50 575.00 C 485.65 608.33 485.48 641.67 485.57 675.01 C 487.21 690.61 486.14 706.34 486.54 722.00 C 486.90 728.23 484.39 734.50 486.29 740.65 C 487.14 743.53 488.06 746.58 490.10 748.87 C 493.96 751.99 499.12 752.76 503.96 752.57 C 530.66 752.30 557.35 752.49 584.05 752.50 C 588.33 752.59 593.21 751.53 595.94 747.95 C 598.57 743.47 598.51 738.06 598.56 733.03 C 598.51 728.67 599.46 724.39 599.42 720.04 C 599.43 666.69 599.35 613.35 599.46 560.00 C 599.29 550.30 599.69 540.58 598.77 530.91 C 598.73 526.60 599.61 522.33 599.44 518.02 C 599.51 468.35 599.39 418.69 599.44 369.02 C 599.38 362.07 595.00 354.67 587.84 353.18 C 579.79 351.72 571.54 351.40 563.42 352.44 M 416.45 771.75 C 407.03 773.21 397.48 772.35 388.00 772.48 C 360.00 772.52 332.00 772.51 304.00 772.51 C 298.97 772.65 294.03 771.40 289.00 771.50 C 284.31 771.41 279.70 772.56 275.01 772.51 C 232.67 772.48 190.33 772.63 147.99 772.39 C 141.34 771.45 134.65 771.41 128.01 772.39 C 100.70 772.60 73.39 772.36 46.08 772.53 C 39.87 772.51 36.69 779.74 36.49 785.10 C 36.45 824.40 36.52 863.71 36.52 903.01 C 36.63 908.71 35.06 914.32 35.60 920.04 C 36.17 926.02 37.91 931.89 37.55 937.96 C 37.17 944.22 38.02 950.57 40.65 956.32 C 44.23 964.22 47.36 973.02 54.60 978.39 C 61.48 983.23 69.82 985.22 77.92 986.97 C 84.88 988.43 91.79 991.06 99.01 990.33 C 104.34 989.77 109.65 989.07 115.00 988.75 C 121.02 988.95 126.98 990.07 133.00 990.26 C 138.65 989.78 144.31 989.34 149.96 988.69 C 158.36 987.92 166.61 991.38 175.00 990.01 C 181.69 988.91 188.49 989.50 195.17 990.34 C 208.45 990.67 221.73 990.08 235.00 990.39 C 241.34 990.70 247.58 988.87 253.92 989.63 C 261.89 990.89 269.97 990.20 278.00 990.39 C 285.39 990.35 292.85 990.92 300.18 989.74 C 304.78 989.20 309.42 989.31 314.03 989.54 C 323.63 990.69 333.40 990.83 343.01 989.59 C 353.59 988.85 364.10 990.97 374.66 991.12 C 385.11 990.04 395.70 990.06 406.13 991.28 C 410.10 991.50 414.00 990.48 417.96 990.48 C 424.97 990.52 431.91 988.84 438.93 989.60 C 444.01 990.30 449.12 990.58 454.21 991.22 C 459.83 991.90 465.36 990.22 470.99 990.33 C 500.66 990.46 530.33 990.35 560.00 990.37 C 566.62 990.19 573.17 992.03 579.80 991.19 C 589.47 989.79 599.27 990.48 609.00 990.40 C 618.06 990.64 627.20 989.78 636.20 991.21 C 644.31 991.83 652.49 991.48 660.48 989.92 C 669.65 988.15 678.81 990.84 688.01 990.49 C 702.67 990.49 717.33 990.44 732.00 990.28 C 781.33 990.68 830.67 990.07 880.00 990.50 C 892.90 990.21 905.82 990.83 918.71 990.22 C 928.40 988.69 938.24 987.95 947.77 985.51 C 957.95 983.02 966.44 975.92 972.51 967.59 C 978.42 959.03 978.57 948.31 980.28 938.43 C 980.92 933.28 982.18 928.20 982.42 923.02 C 982.52 876.34 982.34 829.67 982.55 783.00 C 982.77 778.35 978.72 774.93 974.94 773.02 C 965.35 768.87 954.92 774.00 945.00 772.15 C 938.67 770.79 932.34 773.19 926.00 772.24 C 920.69 771.35 915.30 771.40 910.01 772.23 C 901.35 772.75 892.67 772.22 884.01 772.50 C 877.29 772.78 870.71 771.19 864.04 770.89 C 854.68 771.29 845.36 773.47 835.98 772.20 C 823.67 770.28 811.28 772.33 798.99 773.33 C 794.30 773.54 789.69 772.32 785.00 772.51 C 775.67 772.68 766.29 772.05 757.01 773.32 C 746.34 773.67 735.67 773.33 725.00 773.45 C 719.63 773.59 714.34 772.18 708.97 772.65 C 698.05 773.80 686.89 774.17 676.09 771.89 C 668.78 771.02 661.32 771.19 654.04 772.29 C 648.54 772.89 643.01 772.45 637.55 771.70 C 629.70 771.29 621.82 771.56 613.96 771.53 C 608.94 771.43 604.01 772.61 599.00 772.50 C 573.34 772.47 547.67 772.53 522.00 772.53 C 510.67 772.27 499.27 773.22 488.01 771.67 C 482.64 771.04 477.36 772.56 472.01 772.53 C 465.65 772.79 459.40 771.22 453.04 771.51 C 440.85 771.64 428.64 771.36 416.45 771.75 Z" />
<path fill="#000000" opacity="1.00" d=" M 377.38 103.39 C 384.21 102.58 391.13 102.82 398.00 103.07 C 402.37 103.52 406.42 105.50 410.75 106.23 C 420.32 108.47 429.11 113.31 437.12 118.90 C 450.59 129.47 460.52 144.41 465.20 160.87 C 469.27 170.38 468.60 180.94 469.92 191.01 C 468.64 201.30 469.45 211.96 465.98 221.90 C 463.28 232.67 457.73 242.48 451.61 251.65 C 447.23 256.56 442.52 261.21 437.61 265.59 C 432.41 269.10 427.24 272.81 421.53 275.45 C 416.82 276.45 412.42 278.48 407.77 279.69 C 402.60 280.28 397.43 280.81 392.26 281.40 C 387.34 282.33 382.43 280.90 377.54 280.47 C 373.16 279.62 368.43 280.74 364.32 278.67 C 358.96 276.27 353.01 275.24 348.07 271.92 C 343.01 268.39 337.33 265.48 333.42 260.59 C 330.58 257.12 327.20 254.12 324.44 250.58 C 318.38 242.04 313.53 232.62 310.52 222.58 C 309.79 218.67 309.31 214.71 308.10 210.90 C 306.27 205.44 307.21 199.62 306.89 193.98 C 307.09 186.28 306.18 178.37 308.93 171.00 C 311.20 156.86 317.41 143.48 326.26 132.27 C 331.70 124.40 339.48 118.46 347.62 113.61 C 356.86 108.53 367.08 105.48 377.38 103.39 M 378.49 131.55 C 371.95 133.76 365.27 136.33 360.30 141.33 C 353.42 147.28 349.23 155.61 346.05 163.97 C 344.45 171.60 341.39 179.06 341.97 186.99 C 342.29 193.68 341.18 200.54 342.94 207.09 C 344.54 212.31 345.04 217.84 347.07 222.93 C 352.10 233.46 359.15 244.04 370.31 248.72 C 378.48 252.93 388.04 253.20 396.97 251.92 C 408.36 249.73 418.37 242.22 424.30 232.31 C 429.36 223.89 433.06 214.45 433.55 204.55 C 434.34 193.82 434.51 182.92 432.69 172.27 C 429.58 157.20 421.05 142.25 406.93 135.12 C 401.84 133.15 396.64 130.79 391.05 130.95 C 386.87 131.00 382.59 130.59 378.49 131.55 Z" />
<path fill="#000000" opacity="1.00" d=" M 570.39 104.44 C 573.30 104.02 576.15 105.32 578.93 106.04 C 582.23 106.91 585.48 108.84 586.93 112.06 C 589.88 120.47 587.76 129.35 587.99 138.00 C 588.08 163.35 587.83 188.71 588.11 214.06 C 588.97 221.57 588.14 229.09 587.62 236.60 C 585.96 255.45 572.29 272.32 554.55 278.57 C 545.38 281.12 535.70 281.54 526.25 280.74 C 507.57 279.43 491.74 265.83 483.33 249.74 C 481.36 243.18 477.98 235.95 481.21 229.21 C 482.93 223.57 488.41 220.39 493.64 218.56 C 498.05 216.80 502.25 220.14 506.10 221.87 C 512.15 228.49 512.62 238.53 519.18 244.82 C 527.23 253.31 542.56 253.20 550.24 244.29 C 554.66 238.09 555.40 230.27 555.42 222.87 C 554.37 205.59 555.65 188.25 554.55 170.97 C 555.32 156.32 554.91 141.64 554.99 126.97 C 554.98 122.09 555.70 117.25 556.40 112.43 C 559.28 107.36 565.01 105.52 570.39 104.44 Z" />
<path fill="#000000" opacity="1.00" d=" M 752.16 107.19 C 755.68 105.97 759.28 104.71 762.98 104.21 C 769.19 105.02 775.78 106.13 780.72 110.31 C 785.83 114.28 789.28 119.94 792.57 125.43 C 804.75 146.29 816.23 167.57 828.74 188.24 C 834.22 198.65 840.91 208.38 846.06 218.97 C 847.10 220.95 848.42 222.78 849.95 224.42 C 850.45 223.98 851.45 223.12 851.94 222.68 C 852.28 218.43 850.95 214.29 851.00 210.04 C 850.96 187.36 851.10 164.67 850.92 141.99 C 851.04 131.82 848.34 121.42 851.39 111.44 C 854.35 106.29 860.85 105.47 866.13 104.30 C 872.91 104.80 880.78 108.67 881.94 116.05 C 882.32 140.60 881.40 165.19 882.56 189.72 C 881.40 213.80 882.29 237.92 881.96 262.00 C 880.93 269.90 875.51 277.31 867.81 279.83 C 862.34 280.34 856.32 280.69 851.53 277.51 C 842.34 272.64 837.86 262.71 833.00 254.06 C 818.55 229.15 803.69 204.46 789.70 179.31 C 783.64 169.18 778.03 158.79 771.74 148.80 C 770.89 149.64 770.04 150.48 769.18 151.30 C 768.41 155.88 769.85 160.39 769.98 164.95 C 770.19 177.32 769.65 189.70 770.25 202.05 C 771.80 213.99 770.41 226.05 771.34 238.03 C 770.89 247.70 771.00 257.38 771.02 267.06 C 771.34 273.20 766.14 277.93 760.75 279.82 C 756.92 280.24 753.01 280.28 749.19 279.84 C 745.35 278.86 742.42 275.80 740.42 272.51 C 738.15 265.21 739.22 257.51 739.00 250.00 C 738.86 232.52 739.41 215.02 738.46 197.56 C 739.44 178.72 738.85 159.85 739.00 141.00 C 738.79 133.77 739.14 126.53 740.43 119.41 C 742.56 114.00 747.13 109.90 752.16 107.19 Z" />
<path fill="#000000" opacity="1.00" d=" M 663.16 106.63 C 674.44 107.26 685.74 106.90 697.03 107.00 C 700.46 106.82 703.27 109.22 705.22 111.79 C 708.25 117.87 707.53 126.61 701.31 130.40 C 694.76 132.72 687.80 130.03 681.09 131.24 C 679.94 136.41 680.06 141.74 680.00 147.00 C 680.00 176.33 680.00 205.67 680.00 235.00 C 680.12 240.86 679.64 246.85 681.17 252.58 C 686.42 253.40 691.74 252.80 697.03 253.00 C 701.67 252.98 705.92 257.00 706.49 261.55 C 707.90 267.12 706.16 274.16 700.57 276.66 C 697.94 277.19 695.26 277.94 692.56 277.60 C 685.74 276.67 678.85 277.05 672.00 276.99 C 660.97 277.07 649.94 276.85 638.92 277.10 C 634.02 277.33 628.25 278.27 624.20 274.80 C 619.71 271.09 620.72 264.54 621.33 259.44 C 623.02 257.11 625.11 255.02 627.44 253.32 C 633.75 252.30 640.27 253.85 646.54 252.33 C 648.14 248.09 647.86 243.48 647.99 239.03 C 648.03 211.69 647.99 184.34 648.00 157.00 C 647.82 149.10 648.50 141.09 647.12 133.27 C 646.59 130.40 643.16 131.10 641.04 130.96 C 635.65 130.67 629.48 132.66 624.74 129.24 C 619.73 125.67 620.62 118.74 621.33 113.44 C 623.27 111.08 625.32 108.26 628.22 107.16 C 639.85 106.63 651.53 107.43 663.16 106.63 Z" />
<path fill="#000000" opacity="1.00" d=" M 152.39 107.41 C 158.86 106.43 165.47 107.28 172.00 106.98 C 182.01 106.39 192.01 107.32 202.02 106.95 C 208.82 106.46 215.05 109.79 221.74 110.27 C 232.24 112.50 242.00 117.34 251.16 122.85 C 264.71 132.69 275.09 146.99 279.87 163.06 C 280.97 168.78 283.28 174.22 283.94 180.02 C 284.17 188.02 284.10 196.04 284.00 204.05 C 284.03 206.57 283.14 208.95 282.33 211.30 C 280.51 216.13 280.72 221.55 278.16 226.14 C 274.55 235.43 269.57 244.36 262.29 251.28 C 258.04 255.39 254.17 260.06 248.90 262.92 C 243.05 266.18 237.26 269.86 230.79 271.75 C 225.93 272.38 221.46 274.46 216.78 275.75 C 210.17 276.35 203.48 275.59 196.91 276.83 C 182.65 277.23 168.37 277.15 154.12 276.87 C 145.53 276.58 137.10 271.15 134.02 263.04 C 132.63 256.10 130.58 249.15 130.96 242.00 C 130.88 225.63 131.43 209.25 130.49 192.90 C 131.43 174.94 130.84 156.94 131.00 138.96 C 131.14 133.97 132.48 129.12 133.26 124.22 C 133.81 120.71 136.12 117.91 138.14 115.13 C 141.67 110.77 147.24 109.05 152.39 107.41 M 166.51 135.62 C 164.88 140.92 165.09 146.52 165.01 152.00 C 165.00 180.01 164.99 208.03 165.01 236.05 C 165.12 240.17 164.91 244.44 166.46 248.34 C 172.56 249.64 178.83 248.77 185.00 249.01 C 192.89 249.22 200.80 248.87 208.57 247.47 C 211.90 246.62 215.07 245.27 218.38 244.35 C 225.21 242.29 230.27 237.03 235.61 232.60 C 239.57 226.94 244.61 221.48 245.44 214.31 C 249.25 205.03 249.29 194.85 248.97 184.97 C 247.68 169.09 239.88 153.63 227.00 144.06 C 223.06 141.90 219.13 139.52 214.77 138.31 C 205.84 137.23 197.06 134.58 187.99 134.98 C 180.84 135.26 173.59 134.34 166.51 135.62 Z" />
<path fill="#000000" opacity="1.00" d=" M 742.36 425.13 C 745.49 423.19 749.21 425.40 750.76 428.31 C 753.10 432.78 753.82 438.03 753.23 443.02 C 751.44 454.93 753.60 467.04 751.90 478.96 C 751.38 482.87 751.65 487.09 749.67 490.66 C 747.99 493.73 743.42 494.56 740.79 492.24 C 737.55 489.89 736.63 485.73 735.92 482.03 C 734.64 474.79 733.80 467.35 734.99 460.03 C 736.15 453.06 735.12 446.00 735.39 438.99 C 734.85 433.61 737.43 427.66 742.36 425.13 Z" />
<path fill="#000000" opacity="1.00" d=" M 289.35 440.01 C 290.60 439.15 292.39 439.14 293.56 440.18 C 296.60 442.20 297.96 445.80 298.90 449.18 C 301.50 458.23 300.17 467.72 300.49 476.99 C 300.69 484.05 299.60 492.07 293.95 496.97 C 291.76 499.31 287.13 499.48 285.64 496.28 C 281.30 487.98 285.96 478.72 285.24 470.00 C 284.21 462.88 284.26 455.66 284.46 448.49 C 284.48 445.06 286.38 441.73 289.35 440.01 Z" />
<path fill="#000000" opacity="1.00" d=" M 741.30 580.08 C 743.33 579.04 745.76 579.31 747.97 579.54 C 750.28 580.45 751.60 582.83 752.29 585.11 C 753.10 590.87 752.08 596.73 752.91 602.50 C 753.43 605.90 753.63 609.37 753.12 612.79 C 752.30 618.09 752.45 623.49 752.66 628.83 C 753.84 637.75 753.91 646.83 753.05 655.78 C 751.92 662.70 753.70 670.05 750.79 676.66 C 749.65 679.57 746.37 682.09 743.16 681.31 C 738.17 678.95 734.39 673.67 734.43 668.07 C 734.15 658.71 735.02 649.29 733.74 639.98 C 733.03 629.98 734.22 619.90 732.74 609.95 C 732.93 603.84 734.74 597.88 735.28 591.79 C 735.56 587.32 736.96 582.22 741.30 580.08 Z" />
<path fill="#000000" opacity="1.00" d=" M 602.41 810.28 C 605.43 808.58 609.54 809.88 611.14 812.92 C 613.75 817.18 614.80 822.85 619.38 825.57 C 625.67 827.69 632.48 827.60 638.99 826.65 C 648.72 826.36 658.54 826.19 668.18 827.83 C 671.82 828.47 675.64 830.19 677.37 833.67 C 678.72 836.54 679.58 839.76 679.26 842.97 C 678.14 851.25 678.13 859.71 679.29 867.99 C 680.14 874.36 678.26 880.63 678.50 887.00 C 678.68 893.99 678.29 901.01 678.81 908.00 C 680.02 917.52 680.45 927.81 675.62 936.47 C 672.88 942.07 667.81 946.43 661.77 948.07 C 655.39 950.22 648.57 949.02 642.03 950.19 C 637.04 950.63 631.13 951.66 627.09 947.91 C 624.11 945.40 623.95 941.17 624.56 937.62 C 625.98 934.91 629.02 933.34 631.91 932.70 C 637.20 931.91 642.64 933.19 647.86 931.79 C 653.38 930.61 658.36 927.08 661.19 922.18 C 663.04 919.12 662.49 915.39 662.63 911.99 C 662.34 894.98 662.54 877.96 662.48 860.95 C 662.00 852.95 655.73 844.22 647.07 844.45 C 637.36 844.42 627.66 844.61 617.96 844.49 C 614.49 844.53 611.16 843.53 607.80 842.89 C 602.20 841.68 596.65 844.00 591.02 843.53 C 585.57 843.83 579.72 842.35 574.60 844.78 C 569.93 847.49 567.14 852.85 566.56 858.11 C 566.03 876.73 567.22 895.39 565.94 913.97 C 567.07 924.07 568.74 934.58 565.44 944.46 C 563.11 950.62 553.33 951.75 549.97 946.00 C 547.16 941.95 547.21 936.80 547.73 932.12 C 548.44 927.42 550.10 922.75 549.28 917.95 C 548.21 912.04 548.18 905.97 549.04 900.03 C 550.11 894.34 547.86 888.69 548.66 882.98 C 549.91 874.39 549.94 865.61 548.74 857.02 C 547.95 850.41 549.36 843.83 549.53 837.23 C 549.25 833.28 552.70 830.34 556.10 829.11 C 562.13 826.70 568.74 827.98 575.01 826.95 C 579.56 826.20 584.62 827.38 588.75 824.85 C 594.85 821.47 595.51 812.67 602.41 810.28 Z" />
<path fill="#000000" opacity="1.00" d=" M 230.68 812.74 C 233.36 809.81 238.80 809.38 241.26 812.81 C 245.36 818.55 242.71 826.98 247.80 832.21 C 251.15 834.90 257.35 835.90 260.26 832.12 C 261.30 827.07 258.95 821.00 262.77 816.79 C 266.31 812.78 272.80 814.39 276.22 817.76 C 280.02 821.62 281.21 827.14 283.03 832.08 C 284.23 835.88 286.19 839.80 285.36 843.89 C 283.87 846.97 280.39 848.69 277.04 848.50 C 270.17 848.33 263.36 849.31 256.51 849.65 C 252.29 849.92 248.11 852.36 246.32 856.28 C 243.63 861.74 244.55 868.02 244.48 873.89 C 244.74 877.82 245.65 883.22 250.07 884.45 C 256.92 883.52 260.71 877.04 263.70 871.51 C 265.89 866.94 271.05 864.28 276.01 864.41 C 278.60 864.26 280.33 866.63 281.55 868.60 C 283.65 872.10 281.93 876.26 280.55 879.69 C 278.70 885.11 271.75 886.20 269.68 891.49 C 267.62 896.28 266.22 901.59 262.30 905.30 C 258.07 909.47 253.49 914.54 254.36 920.99 C 253.56 926.54 259.19 932.55 264.83 930.04 C 271.20 927.86 272.10 920.45 275.57 915.61 C 278.60 912.10 283.91 913.49 287.29 915.72 C 291.58 918.34 292.57 924.21 290.71 928.63 C 288.54 933.80 284.18 937.64 281.81 942.72 C 279.73 947.04 276.99 951.62 272.21 953.31 C 269.22 953.80 265.99 954.02 263.09 953.02 C 256.27 949.82 252.55 942.55 245.82 939.22 C 243.03 937.63 239.72 937.00 236.55 937.60 C 231.05 941.07 228.76 948.16 222.59 950.80 C 219.78 952.56 216.82 950.03 214.95 948.04 C 211.60 944.58 212.07 939.34 212.74 934.97 C 214.88 929.48 221.57 928.86 225.86 925.74 C 233.73 919.85 238.08 908.91 234.43 899.44 C 231.53 892.31 229.55 884.73 229.52 877.00 C 229.48 870.19 229.02 863.30 227.17 856.72 C 226.01 853.51 223.80 849.54 219.91 849.55 C 213.91 849.31 207.89 849.42 201.94 850.24 C 195.63 850.93 189.38 846.85 183.16 849.14 C 178.29 851.44 172.89 856.33 174.70 862.31 C 176.56 866.01 180.40 868.61 184.42 869.40 C 191.37 869.96 198.36 868.95 205.31 869.58 C 210.24 870.10 214.71 873.95 215.28 879.01 C 216.16 889.97 215.18 901.01 214.07 911.90 C 211.91 917.72 209.98 924.07 205.62 928.66 C 200.33 933.33 192.71 933.06 186.17 932.11 C 180.65 931.22 176.92 926.21 171.48 925.32 C 167.43 930.79 166.83 937.75 164.53 943.97 C 163.61 946.88 160.68 948.44 157.97 949.36 C 153.12 949.71 148.52 945.79 148.51 940.82 C 147.97 934.83 148.95 928.69 151.56 923.26 C 155.84 914.57 155.04 904.60 156.54 895.27 C 157.74 888.43 157.64 881.48 157.48 874.56 C 157.25 868.39 159.55 862.24 158.02 856.12 C 157.24 852.00 155.45 847.55 157.45 843.51 C 159.43 838.42 164.89 836.00 169.91 835.02 C 181.20 832.51 192.68 835.41 204.05 835.14 C 210.11 834.12 217.03 835.16 222.23 831.26 C 227.23 826.25 225.89 817.91 230.68 812.74 M 183.72 884.78 C 177.46 887.05 173.60 893.61 173.45 900.10 C 173.35 905.95 172.64 912.58 176.63 917.43 C 183.99 918.37 192.13 915.73 196.51 909.51 C 201.60 902.18 199.59 890.87 192.02 886.01 C 189.67 884.21 186.49 884.10 183.72 884.78 Z" />
<path fill="#000000" opacity="1.00" d=" M 415.39 811.38 C 418.42 811.12 422.12 811.19 423.93 814.11 C 428.23 820.68 425.71 828.73 425.06 835.94 C 423.57 844.55 425.34 853.25 427.44 861.59 C 429.25 868.45 433.49 874.26 436.28 880.71 C 438.94 886.79 441.70 892.92 445.82 898.19 C 450.21 903.77 454.37 909.57 459.23 914.76 C 465.22 921.12 473.87 923.90 480.25 929.75 C 483.83 932.57 483.23 938.25 480.49 941.46 C 477.84 944.77 474.17 948.75 469.45 947.50 C 458.51 944.36 451.52 934.87 443.55 927.45 C 441.36 925.34 439.51 922.91 437.84 920.39 C 435.22 916.42 431.91 912.94 429.58 908.79 C 427.00 903.65 426.14 897.80 423.24 892.80 C 421.77 890.28 418.27 889.16 415.71 890.67 C 411.93 892.09 409.87 895.80 407.81 899.03 C 402.43 907.51 397.96 916.70 391.31 924.29 C 383.34 931.32 375.97 939.07 367.31 945.28 C 362.67 948.50 355.67 949.92 351.06 945.92 C 347.31 941.36 347.21 933.17 352.69 929.84 C 361.01 924.67 367.95 917.71 375.20 911.20 C 380.38 906.37 385.22 901.04 388.54 894.74 C 392.10 888.03 397.44 882.33 400.07 875.14 C 403.88 865.07 403.42 854.12 405.63 843.70 C 407.60 835.03 405.33 825.88 408.27 817.38 C 409.31 814.33 412.00 811.47 415.39 811.38 Z" />
<path fill="#000000" opacity="1.00" d=" M 826.37 815.15 C 831.94 812.39 837.71 817.16 839.96 822.10 C 843.96 829.77 841.22 838.83 844.42 846.71 C 845.51 849.38 848.12 851.74 851.16 851.54 C 856.61 851.68 861.49 848.18 866.95 848.57 C 869.59 849.32 872.45 850.90 873.44 853.63 C 873.77 856.09 874.16 859.24 871.96 860.98 C 866.06 866.62 856.87 864.93 850.47 869.48 C 845.16 875.18 845.41 883.68 845.55 890.97 C 845.95 898.37 844.40 905.65 843.00 912.88 C 841.76 918.24 839.09 923.12 837.31 928.31 C 835.10 934.49 832.69 941.22 827.27 945.33 C 822.28 948.86 816.07 943.82 814.50 938.96 C 813.77 932.29 818.46 926.86 821.29 921.26 C 824.49 915.52 825.61 908.97 826.42 902.53 C 827.08 896.27 830.11 890.39 829.61 884.00 C 829.94 877.82 825.57 870.56 818.86 870.45 C 811.60 869.81 805.24 874.78 798.03 874.42 C 792.83 873.84 786.91 871.35 785.18 865.97 C 786.33 862.34 790.23 860.75 793.38 859.22 C 802.28 854.77 813.21 857.21 821.66 851.58 C 825.85 849.07 827.21 843.50 825.88 839.01 C 824.85 833.20 820.93 828.03 821.46 821.97 C 821.62 818.99 823.90 816.58 826.37 815.15 Z" />
<path fill="#000000" opacity="1.00" d=" M 755.76 833.11 C 758.22 824.29 773.25 823.71 775.49 833.02 C 774.70 838.47 771.54 843.37 771.49 848.96 C 771.36 854.83 771.80 860.70 771.39 866.57 C 770.01 876.71 772.13 886.89 773.37 896.95 C 773.87 901.87 772.77 907.01 774.53 911.76 C 775.99 916.06 778.04 920.35 777.63 925.03 C 777.95 930.01 774.74 934.91 770.00 936.51 C 763.69 934.56 759.79 928.64 758.16 922.54 C 755.77 915.58 756.53 908.16 756.45 900.95 C 756.50 896.42 755.63 891.96 755.12 887.48 C 754.14 881.70 754.55 875.82 754.44 870.00 C 754.48 863.12 754.03 856.19 755.08 849.37 C 755.85 843.97 754.82 838.48 755.76 833.11 Z" />
<path fill="#000000" opacity="1.00" d=" M 593.35 863.20 C 597.12 862.07 601.13 862.53 605.01 862.44 C 613.69 862.65 622.38 862.30 631.06 862.46 C 636.50 862.62 642.71 864.69 645.18 869.98 C 648.04 874.95 645.62 880.69 645.54 885.99 C 645.11 893.61 646.56 901.52 644.03 908.88 C 642.48 913.30 637.27 914.88 633.00 914.56 C 626.96 914.23 621.02 915.69 614.98 915.53 C 611.19 915.65 607.15 914.95 603.63 916.71 C 599.46 918.51 596.29 922.15 591.93 923.52 C 587.27 924.12 584.08 919.19 583.59 915.10 C 583.11 906.76 583.29 898.35 584.38 890.06 C 585.06 884.00 581.47 878.21 582.71 872.19 C 584.73 867.86 588.85 864.65 593.35 863.20 M 611.33 875.55 C 606.20 876.05 601.24 879.15 598.95 883.83 C 596.27 891.91 603.11 902.40 612.00 901.64 C 619.69 902.21 626.91 897.10 630.27 890.41 C 630.79 887.65 631.08 884.27 628.74 882.24 C 624.24 877.75 617.64 875.39 611.33 875.55 Z" />
</g>
</svg>
